Kana.sfdir
StartChar: uF0147
Encoding: 983367 983367 0
Width: 1000
VWidth: 0
Flags: MW
LayerCount: 2
Fore
SplineSet
72 2 m 1
 73 23 l 1
 78 42 l 1
 86 61 l 1
 96 78 l 1
 108 92 l 1
 122 104 l 1
 139 114 l 1
 158 122 l 1
 177 127 l 1
 198 128 l 1
 198 68 l 1
 186 68 l 1
 176 65 l 1
 166 61 l 1
 158 56 l 1
 150 50 l 1
 144 42 l 1
 139 34 l 1
 135 24 l 1
 132 14 l 1
 132 2 l 1
 72 2 l 1
72 2 m 1
 132 2 l 1
 132 -8 l 1
 135 -18 l 1
 139 -28 l 1
 144 -36 l 1
 150 -44 l 1
 158 -50 l 1
 166 -56 l 1
 176 -60 l 1
 186 -62 l 1
 197 -63 l 1
 198 -123 l 1
 177 -122 l 1
 158 -116 l 1
 139 -109 l 1
 122 -99 l 1
 108 -86 l 1
 96 -72 l 1
 86 -56 l 1
 78 -37 l 1
 73 -18 l 1
 72 2 l 1
197 -123 m 1
 198 -63 l 1
 208 -62 l 1
 218 -60 l 1
 228 -56 l 1
 236 -50 l 1
 244 -44 l 1
 250 -36 l 1
 256 -28 l 1
 260 -18 l 1
 262 -8 l 1
 263 2 l 1
 323 2 l 1
 322 -18 l 1
 316 -37 l 1
 309 -56 l 1
 299 -72 l 1
 286 -86 l 1
 272 -99 l 1
 256 -109 l 1
 237 -116 l 1
 218 -122 l 1
 197 -123 l 1
198 68 m 1
 198 128 l 1
 218 127 l 1
 237 122 l 1
 256 114 l 1
 272 104 l 1
 286 92 l 1
 299 78 l 1
 309 61 l 1
 316 42 l 1
 322 23 l 1
 323 2 l 1
 263 2 l 1
 262 14 l 1
 260 24 l 1
 256 34 l 1
 250 42 l 1
 244 50 l 1
 236 56 l 1
 228 61 l 1
 218 65 l 1
 208 68 l 1
 198 68 l 1
EndSplineSet
Comment: "Kage: aj1-00327+AAoA-Alias: uf0147"
Colour: ffff00
EndChar
StartChar: uF0148
Encoding: 983368 983368 1
Width: 500
VWidth: 0
Flags: MW
LayerCount: 2
Fore
SplineSet
230 660 m 1
 230 130 l 1
 190 130 l 1
 190 640 l 1
 190 700 l 1
 216 700 l 1
 242 700 l 1
 250 700 l 1
 268 700 l 1
 294 700 l 1
 320 700 l 1
 346 700 l 1
 372 700 l 1
 398 700 l 1
 424 700 l 1
 450 700 l 1
 450 660 l 1
 424 660 l 1
 398 660 l 1
 372 660 l 1
 346 660 l 1
 320 660 l 1
 294 660 l 1
 268 660 l 1
 230 660 l 1
EndSplineSet
Comment: "Kage: aj1-00328+AAoA-Alias: uf0148"
EndChar
StartChar: uF0149
Encoding: 983369 983369 2
Width: 500
VWidth: 0
Flags: MW
LayerCount: 2
Fore
SplineSet
100 -60 m 1
 126 -60 l 1
 152 -60 l 1
 178 -60 l 1
 204 -60 l 1
 230 -60 l 1
 256 -60 l 1
 282 -60 l 1
 320 -60 l 1
 320 450 l 1
 360 450 l 1
 360 -40 l 1
 360 -80 l 1
 360 -100 l 1
 334 -100 l 1
 308 -100 l 1
 282 -100 l 1
 256 -100 l 1
 230 -100 l 1
 204 -100 l 1
 178 -100 l 1
 152 -100 l 1
 126 -100 l 1
 100 -100 l 1
 100 -60 l 1
EndSplineSet
Comment: "Kage: aj1-00329+AAoA-Alias: uf0149"
EndChar
StartChar: uF014B
Encoding: 983371 983371 4
Width: 1000
VWidth: 0
Flags: MW
LayerCount: 2
Fore
SplineSet
186 300 m 1
 188 318 l 1
 196 336 l 1
 209 351 l 1
 228 362 l 1
 250 365 l 1
 250 305 l 1
 248 305 l 1
 247 304 l 1
 246 303 l 1
 246 300 l 1
 246 298 l 1
 247 296 l 1
 248 296 l 1
 250 295 l 1
 250 235 l 1
 228 239 l 1
 209 250 l 1
 196 264 l 1
 188 282 l 1
 186 300 l 1
220 250 m 1
 220 350 l 1
 280 350 l 1
 280 250 l 1
 220 250 l 1
250 235 m 1
 250 295 l 1
 252 296 l 1
 253 298 l 1
 254 300 l 1
 253 303 l 1
 252 304 l 1
 252 305 l 1
 250 305 l 1
 250 365 l 1
 272 362 l 1
 290 351 l 1
 304 336 l 1
 311 318 l 1
 314 300 l 1
 311 282 l 1
 304 264 l 1
 290 250 l 1
 272 239 l 1
 250 235 l 1
EndSplineSet
Comment: "Kage: aj1-00331+AAoA-Alias: uf014b"
Colour: ffff00
EndChar
StartChar: uF014C
Encoding: 983372 983372 5
Width: 1000
VWidth: 0
Flags: MW
LayerCount: 2
Fore
SplineSet
64 574 m 1
 66 586 l 1
 68 598 l 1
 68 610 l 1
 78 610 l 1
 78 599 l 1
 84 589 l 1
 88 580 l 1
 94 572 l 1
 99 566 l 1
 105 561 l 1
 111 556 l 1
 118 554 l 1
 124 550 l 1
 130 548 l 1
 98 498 l 1
 89 508 l 1
 81 518 l 1
 75 528 l 1
 70 540 l 1
 67 551 l 1
 65 562 l 1
 64 574 l 1
68 360 m 1
 68 371 l 1
 71 383 l 1
 72 395 l 1
 80 395 l 1
 82 384 l 1
 86 374 l 1
 92 365 l 1
 96 358 l 1
 102 351 l 1
 108 346 l 1
 114 342 l 1
 120 338 l 1
 126 336 l 1
 134 334 l 1
 101 283 l 1
 92 292 l 1
 84 302 l 1
 78 314 l 1
 73 324 l 1
 70 336 l 1
 68 348 l 1
 68 360 l 1
85 -96 m 1
 132 -50 l 1
 174 0 l 1
 214 54 l 1
 249 111 l 1
 281 172 l 1
 310 238 l 1
 334 308 l 1
 354 382 l 1
 372 462 l 1
 385 545 l 1
 444 536 l 1
 428 450 l 1
 406 368 l 1
 382 292 l 1
 352 220 l 1
 319 153 l 1
 282 91 l 1
 240 34 l 1
 194 -18 l 1
 144 -64 l 1
 90 -104 l 1
 85 -96 l 1
86 -96 m 1
 132 -58 l 1
 175 -15 l 1
 214 33 l 1
 250 88 l 1
 281 148 l 1
 309 214 l 1
 334 286 l 1
 354 366 l 1
 372 452 l 1
 385 544 l 1
 444 536 l 1
 428 442 l 1
 406 353 l 1
 382 271 l 1
 352 196 l 1
 319 128 l 1
 282 67 l 1
 240 12 l 1
 194 -34 l 1
 144 -73 l 1
 90 -104 l 1
 86 -96 l 1
98 498 m 1
 130 548 l 1
 143 530 l 1
 140 507 l 1
 120 494 l 1
 98 498 l 1
101 283 m 1
 134 334 l 1
 146 314 l 1
 142 292 l 1
 124 280 l 1
 101 283 l 1
104 555 m 1
 117 556 l 1
 134 557 l 1
 154 558 l 1
 176 561 l 1
 204 564 l 1
 233 566 l 1
 266 570 l 1
 303 574 l 1
 344 577 l 1
 387 580 l 1
 388 571 l 1
 346 558 l 1
 308 547 l 1
 272 538 l 1
 240 530 l 1
 210 522 l 1
 185 515 l 1
 162 509 l 1
 143 504 l 1
 127 500 l 1
 114 496 l 1
 104 555 l 1
106 340 m 1
 118 340 l 1
 132 342 l 1
 149 344 l 1
 169 346 l 1
 192 348 l 1
 216 352 l 1
 244 354 l 1
 275 358 l 1
 308 362 l 1
 345 364 l 1
 346 356 l 1
 312 344 l 1
 280 332 l 1
 251 323 l 1
 224 315 l 1
 200 308 l 1
 178 300 l 1
 160 294 l 1
 143 290 l 1
 129 284 l 1
 118 281 l 1
 106 340 l 1
212 321 m 1
 236 329 l 1
 258 338 l 1
 278 346 l 1
 296 353 l 1
 312 358 l 1
 325 364 l 1
 336 368 l 1
 347 370 l 1
 357 372 l 1
 373 368 l 1
 341 318 l 1
 350 316 l 1
 348 318 l 1
 342 320 l 1
 332 321 l 1
 318 322 l 1
 303 321 l 1
 284 320 l 1
 264 318 l 1
 240 316 l 1
 214 312 l 1
 212 321 l 1
236 536 m 1
 262 546 l 1
 285 556 l 1
 306 564 l 1
 326 570 l 1
 343 576 l 1
 358 581 l 1
 372 584 l 1
 384 587 l 1
 397 588 l 1
 412 584 l 1
 380 532 l 1
 384 532 l 1
 382 535 l 1
 374 537 l 1
 364 538 l 1
 349 538 l 1
 332 538 l 1
 312 536 l 1
 290 534 l 1
 265 532 l 1
 238 528 l 1
 236 536 l 1
341 318 m 1
 373 368 l 1
 386 350 l 1
 382 328 l 1
 364 314 l 1
 341 318 l 1
361 572 m 1
 370 580 l 1
 376 588 l 1
 385 594 l 1
 396 596 l 1
 409 594 l 1
 420 588 l 1
 430 578 l 1
 438 566 l 1
 444 552 l 1
 450 536 l 1
 392 524 l 1
 391 538 l 1
 390 548 l 1
 390 556 l 1
 389 562 l 1
 390 566 l 1
 390 568 l 1
 388 571 l 1
 384 573 l 1
 375 572 l 1
 368 566 l 1
 361 572 l 1
380 532 m 1
 412 584 l 1
 425 565 l 1
 422 542 l 1
 403 529 l 1
 380 532 l 1
392 524 m 1
 450 536 l 1
 446 514 l 1
 426 500 l 1
 404 506 l 1
 392 524 l 1
EndSplineSet
Comment: "Kage: aj1-00332+AAoA-Alias: uf014c"
Colour: ffff00
EndChar
StartChar: uF014D
Encoding: 983373 983373 6
Width: 500
VWidth: 0
Flags: MW
LayerCount: 2
Fore
SplineSet
215 324 m 1
 215 332 l 1
 222 332 l 1
 230 333 l 1
 236 332 l 1
 245 330 l 1
 252 326 l 1
 260 320 l 1
 267 315 l 1
 275 306 l 1
 281 297 l 1
 283 297 l 1
 284 293 l 1
 288 286 l 1
 288 268 l 1
 283 264 l 1
 283 240 l 1
 278 188 l 1
 270 137 l 1
 255 89 l 1
 238 45 l 1
 216 2 l 1
 189 -34 l 1
 158 -67 l 1
 123 -94 l 1
 88 -112 l 1
 84 -115 l 1
 83 -115 l 1
 78 -114 l 1
 79 -110 l 1
 80 -110 l 1
 79 -109 l 1
 84 -105 l 1
 110 -77 l 1
 138 -43 l 1
 162 -8 l 1
 184 29 l 1
 203 67 l 1
 217 108 l 1
 227 151 l 1
 234 196 l 1
 237 242 l 1
 237 294 l 1
 238 293 l 1
 237 294 l 1
 234 301 l 1
 232 307 l 1
 230 311 l 1
 227 316 l 1
 225 320 l 1
 222 323 l 1
 215 324 l 1
283 206 m 1
 297 231 l 1
 311 254 l 1
 324 276 l 1
 336 297 l 1
 347 317 l 1
 357 337 l 1
 365 356 l 1
 373 375 l 1
 380 392 l 1
 382 395 l 1
 382 396 l 1
 376 398 l 1
 366 401 l 1
 351 401 l 1
 334 401 l 1
 312 402 l 1
 289 401 l 1
 262 399 l 1
 232 395 l 1
 232 398 l 1
 212 393 l 1
 187 389 l 1
 164 383 l 1
 145 379 l 1
 133 375 l 1
 119 366 l 1
 100 371 l 1
 93 380 l 1
 87 388 l 1
 81 396 l 1
 77 406 l 1
 75 415 l 1
 74 425 l 1
 73 434 l 1
 74 444 l 1
 75 452 l 1
 75 463 l 1
 83 463 l 1
 84 453 l 1
 87 447 l 1
 91 439 l 1
 96 433 l 1
 100 428 l 1
 106 424 l 1
 110 419 l 1
 116 416 l 1
 115 417 l 1
 121 418 l 1
 138 419 l 1
 158 420 l 1
 182 422 l 1
 209 425 l 1
 240 427 l 1
 274 428 l 1
 312 432 l 1
 357 434 l 1
 357 433 l 1
 365 435 l 1
 370 436 l 1
 376 442 l 1
 385 446 l 1
 397 445 l 1
 406 440 l 1
 415 433 l 1
 421 424 l 1
 428 414 l 1
 435 401 l 1
 434 383 l 1
 419 371 l 1
 419 372 l 1
 411 356 l 1
 401 338 l 1
 389 319 l 1
 374 300 l 1
 360 281 l 1
 344 262 l 1
 327 242 l 1
 309 222 l 1
 288 201 l 1
 283 206 l 1
EndSplineSet
Comment: "Kage: aj1-00333+AAoA-Alias: uf014d"
EndChar
StartChar: uF014E
Encoding: 983374 983374 7
Width: 1000
VWidth: 0
Flags: MW
LayerCount: 2
Fore
SplineSet
58 72 m 1
 92 106 l 1
 126 141 l 1
 158 179 l 1
 190 218 l 1
 218 260 l 1
 244 300 l 1
 268 341 l 1
 288 380 l 1
 305 417 l 1
 318 451 l 1
 374 430 l 1
 356 393 l 1
 336 354 l 1
 311 315 l 1
 283 274 l 1
 252 234 l 1
 219 194 l 1
 183 157 l 1
 145 122 l 1
 104 90 l 1
 63 64 l 1
 58 72 l 1
232 94 m 1
 232 127 l 1
 232 160 l 1
 232 192 l 1
 232 224 l 1
 292 224 l 1
 292 192 l 1
 292 160 l 1
 292 127 l 1
 292 94 l 1
 292 61 l 1
 292 28 l 1
 292 -6 l 1
 292 -40 l 1
 292 -74 l 1
 292 -109 l 1
 232 -109 l 1
 232 -74 l 1
 232 -40 l 1
 232 -6 l 1
 232 28 l 1
 232 61 l 1
 232 94 l 1
232 -109 m 1
 292 -109 l 1
 283 -130 l 1
 262 -139 l 1
 241 -130 l 1
 232 -109 l 1
238 203 m 1
 238 210 l 1
 238 215 l 1
 238 220 l 1
 238 225 l 1
 239 229 l 1
 240 233 l 1
 240 236 l 1
 240 240 l 1
 240 244 l 1
 238 244 l 1
 238 252 l 1
 242 252 l 1
 247 254 l 1
 253 254 l 1
 259 253 l 1
 265 250 l 1
 271 247 l 1
 277 242 l 1
 282 238 l 1
 288 232 l 1
 294 226 l 1
 238 203 l 1
238 203 m 1
 294 226 l 1
 293 202 l 1
 277 186 l 1
 254 187 l 1
 238 203 l 1
315 492 m 1
 315 500 l 1
 320 500 l 1
 327 502 l 1
 334 500 l 1
 342 497 l 1
 348 492 l 1
 355 486 l 1
 361 478 l 1
 366 470 l 1
 372 460 l 1
 377 449 l 1
 318 436 l 1
 318 446 l 1
 318 454 l 1
 318 462 l 1
 319 468 l 1
 319 474 l 1
 319 478 l 1
 319 483 l 1
 319 487 l 1
 318 491 l 1
 315 492 l 1
318 436 m 1
 377 449 l 1
 372 426 l 1
 354 414 l 1
 331 418 l 1
 318 436 l 1
EndSplineSet
Comment: "Kage: aj1-00334+AAoA-Alias: uf014e"
Colour: ffff00
EndChar
StartChar: uF014F
Encoding: 983375 983375 8
Width: 500
VWidth: 0
Flags: MW
LayerCount: 2
Fore
SplineSet
148 304 m 1
 150 311 l 1
 145 309 l 1
 148 304 l 1
208 500 m 1
 206 510 l 1
 214 508 l 1
 221 509 l 1
 229 508 l 1
 235 504 l 1
 244 500 l 1
 250 494 l 1
 257 487 l 1
 265 479 l 1
 272 470 l 1
 278 458 l 1
 278 440 l 1
 274 436 l 1
 273 345 l 1
 295 345 l 1
 326 348 l 1
 335 348 l 1
 338 349 l 1
 344 351 l 1
 348 355 l 1
 356 361 l 1
 366 362 l 1
 377 360 l 1
 387 355 l 1
 395 347 l 1
 401 336 l 1
 406 325 l 1
 410 310 l 1
 408 293 l 1
 400 287 l 1
 394 249 l 1
 394 248 l 1
 393 243 l 1
 379 181 l 1
 362 124 l 1
 339 72 l 1
 314 25 l 1
 285 -16 l 1
 252 -52 l 1
 216 -82 l 1
 175 -106 l 1
 135 -121 l 1
 132 -123 l 1
 131 -123 l 1
 127 -117 l 1
 167 -85 l 1
 201 -52 l 1
 231 -16 l 1
 260 22 l 1
 285 64 l 1
 306 107 l 1
 323 154 l 1
 338 205 l 1
 348 259 l 1
 356 309 l 1
 354 310 l 1
 355 313 l 1
 354 312 l 1
 349 313 l 1
 340 315 l 1
 328 317 l 1
 315 318 l 1
 300 317 l 1
 282 316 l 1
 262 313 l 1
 238 310 l 1
 238 311 l 1
 226 309 l 1
 209 305 l 1
 193 301 l 1
 182 299 l 1
 174 294 l 1
 165 292 l 1
 163 298 l 1
 152 296 l 1
 151 298 l 1
 152 292 l 1
 152 276 l 1
 152 258 l 1
 152 240 l 1
 152 222 l 1
 152 204 l 1
 152 186 l 1
 152 166 l 1
 152 146 l 1
 152 125 l 1
 145 109 l 1
 128 102 l 1
 111 109 l 1
 104 125 l 1
 104 146 l 1
 104 166 l 1
 104 186 l 1
 104 204 l 1
 104 222 l 1
 104 240 l 1
 104 258 l 1
 104 276 l 1
 104 292 l 1
 104 307 l 1
 104 308 l 1
 104 320 l 1
 104 330 l 1
 103 340 l 1
 103 350 l 1
 103 358 l 1
 102 364 l 1
 102 370 l 1
 102 374 l 1
 101 378 l 1
 99 380 l 1
 100 390 l 1
 106 385 l 1
 113 383 l 1
 118 379 l 1
 124 373 l 1
 129 368 l 1
 135 359 l 1
 139 349 l 1
 142 343 l 1
 143 343 l 1
 149 342 l 1
 151 340 l 1
 154 340 l 1
 158 340 l 1
 160 340 l 1
 162 340 l 1
 165 342 l 1
 169 342 l 1
 172 340 l 1
 176 340 l 1
 188 339 l 1
 203 341 l 1
 222 341 l 1
 227 341 l 1
 227 464 l 1
 228 464 l 1
 226 469 l 1
 223 476 l 1
 222 482 l 1
 220 487 l 1
 218 492 l 1
 215 496 l 1
 213 499 l 1
 208 500 l 1
EndSplineSet
Comment: "Kage: aj1-00335+AAoA-Alias: uf014f"
EndChar
StartChar: uF0150
Encoding: 983376 983376 9
Width: 1000
VWidth: 0
Flags: MW
LayerCount: 2
Fore
SplineSet
57 51 m 1
 58 61 l 1
 59 71 l 1
 62 81 l 1
 62 92 l 1
 72 91 l 1
 72 82 l 1
 76 73 l 1
 80 66 l 1
 85 60 l 1
 90 55 l 1
 94 52 l 1
 100 48 l 1
 104 47 l 1
 108 46 l 1
 114 46 l 1
 82 -6 l 1
 74 3 l 1
 68 12 l 1
 63 21 l 1
 60 31 l 1
 58 41 l 1
 57 51 l 1
82 -6 m 1
 114 46 l 1
 126 27 l 1
 124 4 l 1
 104 -9 l 1
 82 -6 l 1
94 54 m 1
 108 53 l 1
 125 52 l 1
 146 52 l 1
 172 52 l 1
 200 52 l 1
 232 53 l 1
 268 54 l 1
 306 56 l 1
 350 56 l 1
 396 56 l 1
 396 48 l 1
 352 38 l 1
 310 29 l 1
 271 22 l 1
 236 16 l 1
 204 10 l 1
 175 6 l 1
 150 2 l 1
 128 -2 l 1
 110 -4 l 1
 94 -6 l 1
 94 54 l 1
108 344 m 1
 109 353 l 1
 110 362 l 1
 113 370 l 1
 114 379 l 1
 122 379 l 1
 123 371 l 1
 127 364 l 1
 132 358 l 1
 136 353 l 1
 140 349 l 1
 145 346 l 1
 149 344 l 1
 154 342 l 1
 158 342 l 1
 162 342 l 1
 126 293 l 1
 120 301 l 1
 116 309 l 1
 112 318 l 1
 110 326 l 1
 108 336 l 1
 108 344 l 1
126 293 m 1
 162 342 l 1
 174 322 l 1
 168 300 l 1
 148 288 l 1
 126 293 l 1
138 346 m 1
 146 345 l 1
 157 345 l 1
 170 345 l 1
 186 345 l 1
 204 346 l 1
 225 347 l 1
 248 348 l 1
 274 350 l 1
 302 350 l 1
 333 352 l 1
 334 344 l 1
 305 336 l 1
 278 326 l 1
 254 319 l 1
 231 312 l 1
 211 306 l 1
 194 302 l 1
 178 297 l 1
 165 293 l 1
 154 290 l 1
 145 286 l 1
 138 346 l 1
213 322 m 1
 237 328 l 1
 258 336 l 1
 277 344 l 1
 294 350 l 1
 308 355 l 1
 321 360 l 1
 332 364 l 1
 340 367 l 1
 348 370 l 1
 360 370 l 1
 341 312 l 1
 348 314 l 1
 344 316 l 1
 338 317 l 1
 328 318 l 1
 315 318 l 1
 300 318 l 1
 282 318 l 1
 262 317 l 1
 240 316 l 1
 215 313 l 1
 213 322 l 1
218 307 m 1
 220 316 l 1
 224 315 l 1
 231 316 l 1
 238 316 l 1
 245 314 l 1
 252 310 l 1
 258 306 l 1
 265 300 l 1
 270 294 l 1
 276 286 l 1
 280 278 l 1
 222 264 l 1
 223 270 l 1
 224 276 l 1
 224 280 l 1
 225 285 l 1
 226 289 l 1
 226 293 l 1
 225 298 l 1
 224 302 l 1
 222 306 l 1
 218 307 l 1
220 38 m 1
 220 282 l 1
 280 282 l 1
 280 38 l 1
 220 38 l 1
222 264 m 1
 280 278 l 1
 276 255 l 1
 258 242 l 1
 236 246 l 1
 222 264 l 1
244 30 m 1
 246 20 l 1
 274 22 l 1
 300 22 l 1
 323 22 l 1
 344 22 l 1
 361 21 l 1
 376 20 l 1
 387 18 l 1
 396 16 l 1
 399 13 l 1
 396 12 l 1
 423 66 l 1
 410 68 l 1
 398 68 l 1
 386 66 l 1
 373 63 l 1
 358 60 l 1
 340 55 l 1
 320 50 l 1
 297 44 l 1
 272 36 l 1
 244 30 l 1
316 343 m 1
 321 350 l 1
 324 358 l 1
 328 365 l 1
 335 371 l 1
 344 374 l 1
 355 375 l 1
 366 372 l 1
 376 367 l 1
 384 360 l 1
 392 352 l 1
 341 322 l 1
 340 328 l 1
 340 332 l 1
 340 336 l 1
 341 338 l 1
 342 340 l 1
 342 344 l 1
 340 346 l 1
 334 346 l 1
 328 344 l 1
 324 338 l 1
 316 343 l 1
341 312 m 1
 360 370 l 1
 378 354 l 1
 379 332 l 1
 364 314 l 1
 341 312 l 1
341 322 m 1
 392 352 l 1
 396 330 l 1
 382 312 l 1
 360 308 l 1
 341 322 l 1
382 55 m 1
 386 59 l 1
 390 65 l 1
 395 70 l 1
 402 72 l 1
 412 73 l 1
 420 70 l 1
 428 67 l 1
 436 62 l 1
 444 56 l 1
 451 48 l 1
 398 19 l 1
 398 26 l 1
 396 32 l 1
 396 36 l 1
 396 40 l 1
 397 42 l 1
 398 45 l 1
 398 48 l 1
 396 50 l 1
 392 52 l 1
 388 49 l 1
 382 55 l 1
396 12 m 1
 423 66 l 1
 438 48 l 1
 436 26 l 1
 418 11 l 1
 396 12 l 1
398 19 m 1
 451 48 l 1
 454 25 l 1
 440 7 l 1
 416 5 l 1
 398 19 l 1
EndSplineSet
Comment: "Kage: aj1-00336+AAoA-Alias: uf0150"
Colour: ffff00
EndChar
StartChar: uF0151
Encoding: 983377 983377 10
Width: 1000
VWidth: 0
Flags: MW
LayerCount: 2
Fore
SplineSet
45 -64 m 1
 69 -32 l 1
 92 1 l 1
 115 34 l 1
 136 68 l 1
 156 102 l 1
 175 138 l 1
 192 174 l 1
 208 212 l 1
 222 250 l 1
 236 290 l 1
 292 270 l 1
 276 230 l 1
 257 190 l 1
 237 152 l 1
 216 116 l 1
 192 80 l 1
 168 46 l 1
 141 14 l 1
 113 -16 l 1
 83 -44 l 1
 52 -71 l 1
 45 -64 l 1
57 303 m 1
 58 313 l 1
 59 323 l 1
 62 333 l 1
 62 344 l 1
 72 343 l 1
 72 334 l 1
 76 325 l 1
 80 318 l 1
 85 312 l 1
 90 307 l 1
 94 304 l 1
 100 300 l 1
 104 299 l 1
 108 298 l 1
 114 298 l 1
 82 246 l 1
 74 255 l 1
 68 264 l 1
 63 273 l 1
 60 283 l 1
 58 293 l 1
 57 303 l 1
82 246 m 1
 114 298 l 1
 126 279 l 1
 124 256 l 1
 104 243 l 1
 82 246 l 1
94 246 m 1
 94 306 l 1
 108 305 l 1
 125 304 l 1
 146 304 l 1
 172 304 l 1
 200 304 l 1
 232 305 l 1
 268 306 l 1
 306 308 l 1
 350 308 l 1
 396 308 l 1
 396 300 l 1
 352 290 l 1
 310 281 l 1
 271 274 l 1
 236 268 l 1
 204 262 l 1
 175 258 l 1
 150 254 l 1
 128 250 l 1
 110 248 l 1
 94 246 l 1
182 -10 m 1
 198 -23 l 1
 212 -36 l 1
 223 -48 l 1
 233 -59 l 1
 242 -68 l 1
 248 -76 l 1
 254 -83 l 1
 256 -88 l 1
 258 -92 l 1
 252 -90 l 1
 301 -54 l 1
 293 -49 l 1
 288 -48 l 1
 281 -46 l 1
 272 -42 l 1
 262 -38 l 1
 251 -34 l 1
 238 -28 l 1
 222 -21 l 1
 204 -14 l 1
 187 -3 l 1
 182 -10 l 1
244 282 m 1
 246 272 l 1
 274 274 l 1
 300 274 l 1
 323 274 l 1
 344 274 l 1
 361 273 l 1
 376 272 l 1
 387 270 l 1
 396 268 l 1
 399 265 l 1
 396 264 l 1
 423 318 l 1
 410 320 l 1
 398 320 l 1
 386 318 l 1
 373 315 l 1
 358 312 l 1
 340 307 l 1
 320 302 l 1
 297 296 l 1
 272 288 l 1
 244 282 l 1
244 502 m 1
 250 502 l 1
 256 504 l 1
 264 504 l 1
 272 503 l 1
 280 500 l 1
 288 496 l 1
 295 490 l 1
 302 482 l 1
 308 474 l 1
 315 466 l 1
 260 443 l 1
 258 452 l 1
 258 458 l 1
 257 465 l 1
 256 471 l 1
 256 476 l 1
 254 480 l 1
 254 484 l 1
 252 488 l 1
 250 492 l 1
 246 492 l 1
 244 502 l 1
253 -90 m 1
 301 -54 l 1
 306 -76 l 1
 295 -96 l 1
 272 -101 l 1
 253 -90 l 1
254 325 m 1
 254 392 l 1
 254 460 l 1
 314 460 l 1
 314 392 l 1
 314 326 l 1
 314 262 l 1
 314 202 l 1
 314 145 l 1
 315 91 l 1
 316 40 l 1
 316 -8 l 1
 317 -54 l 1
 318 -96 l 1
 258 -98 l 1
 257 -55 l 1
 256 -10 l 1
 256 39 l 1
 255 90 l 1
 254 145 l 1
 254 202 l 1
 254 262 l 1
 254 325 l 1
258 -98 m 1
 318 -96 l 1
 310 -118 l 1
 288 -126 l 1
 268 -118 l 1
 258 -98 l 1
260 443 m 1
 315 466 l 1
 314 442 l 1
 298 426 l 1
 276 427 l 1
 260 443 l 1
382 307 m 1
 386 311 l 1
 390 317 l 1
 395 322 l 1
 402 324 l 1
 412 325 l 1
 420 322 l 1
 428 319 l 1
 436 314 l 1
 444 308 l 1
 451 300 l 1
 398 271 l 1
 398 278 l 1
 396 284 l 1
 396 288 l 1
 396 292 l 1
 397 294 l 1
 398 297 l 1
 398 300 l 1
 396 302 l 1
 392 304 l 1
 388 301 l 1
 382 307 l 1
396 264 m 1
 423 318 l 1
 438 300 l 1
 436 278 l 1
 418 263 l 1
 396 264 l 1
398 271 m 1
 451 300 l 1
 454 277 l 1
 440 259 l 1
 416 257 l 1
 398 271 l 1
EndSplineSet
Comment: "Kage: aj1-00337+AAoA-Alias: uf0151"
Colour: ffff00
EndChar
StartChar: uF0152
Encoding: 983378 983378 11
Width: 500
VWidth: 0
Flags: MW
LayerCount: 2
Fore
SplineSet
301 118 m 1
 313 144 l 1
 325 171 l 1
 334 195 l 1
 344 217 l 1
 352 239 l 1
 360 260 l 1
 367 279 l 1
 374 298 l 1
 378 315 l 1
 380 318 l 1
 374 318 l 1
 363 316 l 1
 349 312 l 1
 333 307 l 1
 315 301 l 1
 293 294 l 1
 269 283 l 1
 269 284 l 1
 265 282 l 1
 244 270 l 1
 250 226 l 1
 256 168 l 1
 264 109 l 1
 272 43 l 1
 280 -24 l 1
 289 -96 l 1
 285 -113 l 1
 269 -123 l 1
 250 -118 l 1
 242 -101 l 1
 233 -31 l 1
 224 37 l 1
 216 102 l 1
 209 164 l 1
 202 220 l 1
 199 249 l 1
 178 239 l 1
 155 229 l 1
 138 219 l 1
 128 215 l 1
 128 214 l 1
 116 202 l 1
 97 202 l 1
 88 207 l 1
 80 215 l 1
 76 221 l 1
 71 230 l 1
 70 239 l 1
 66 248 l 1
 64 258 l 1
 65 268 l 1
 63 278 l 1
 61 290 l 1
 68 291 l 1
 72 280 l 1
 77 273 l 1
 82 265 l 1
 88 259 l 1
 94 254 l 1
 98 250 l 1
 97 252 l 1
 105 254 l 1
 121 259 l 1
 141 265 l 1
 164 273 l 1
 190 284 l 1
 193 285 l 1
 188 327 l 1
 182 374 l 1
 176 419 l 1
 170 464 l 1
 169 466 l 1
 166 469 l 1
 164 473 l 1
 162 475 l 1
 157 476 l 1
 152 474 l 1
 149 480 l 1
 155 484 l 1
 159 487 l 1
 167 490 l 1
 174 492 l 1
 183 491 l 1
 191 487 l 1
 200 483 l 1
 208 477 l 1
 215 471 l 1
 217 471 l 1
 218 468 l 1
 224 462 l 1
 228 443 l 1
 222 437 l 1
 224 426 l 1
 230 381 l 1
 236 332 l 1
 239 301 l 1
 255 306 l 1
 291 319 l 1
 333 334 l 1
 339 336 l 1
 352 343 l 1
 363 350 l 1
 372 356 l 1
 375 358 l 1
 379 362 l 1
 389 367 l 1
 400 367 l 1
 410 363 l 1
 420 358 l 1
 428 350 l 1
 435 340 l 1
 436 321 l 1
 424 308 l 1
 425 308 l 1
 422 300 l 1
 413 282 l 1
 404 265 l 1
 394 245 l 1
 382 225 l 1
 370 205 l 1
 356 183 l 1
 341 161 l 1
 325 137 l 1
 308 113 l 1
 301 118 l 1
EndSplineSet
Comment: "Kage: aj1-00338+AAoA-Alias: uf0152"
EndChar
StartChar: uF0153
Encoding: 983379 983379 12
Width: 500
VWidth: 0
Flags: MW
LayerCount: 2
Fore
SplineSet
298 360 m 1
 308 365 l 1
 310 372 l 1
 317 375 l 1
 326 375 l 1
 334 372 l 1
 341 366 l 1
 347 360 l 1
 354 353 l 1
 359 343 l 1
 365 333 l 1
 362 314 l 1
 354 307 l 1
 299 53 l 1
 307 53 l 1
 350 56 l 1
 368 57 l 1
 375 58 l 1
 384 59 l 1
 383 59 l 1
 387 64 l 1
 393 69 l 1
 402 71 l 1
 411 71 l 1
 419 68 l 1
 427 64 l 1
 434 57 l 1
 441 50 l 1
 449 40 l 1
 450 23 l 1
 439 8 l 1
 421 6 l 1
 410 15 l 1
 401 16 l 1
 400 17 l 1
 397 18 l 1
 387 20 l 1
 376 23 l 1
 360 23 l 1
 342 23 l 1
 322 23 l 1
 298 24 l 1
 272 19 l 1
 240 18 l 1
 240 19 l 1
 235 20 l 1
 203 14 l 1
 174 11 l 1
 150 7 l 1
 128 4 l 1
 122 4 l 1
 123 4 l 1
 107 -7 l 1
 90 -4 l 1
 81 5 l 1
 73 13 l 1
 68 22 l 1
 64 33 l 1
 62 42 l 1
 60 53 l 1
 60 62 l 1
 61 73 l 1
 63 83 l 1
 63 95 l 1
 71 95 l 1
 71 84 l 1
 75 74 l 1
 79 67 l 1
 83 60 l 1
 88 55 l 1
 92 50 l 1
 97 48 l 1
 108 49 l 1
 126 47 l 1
 147 47 l 1
 172 47 l 1
 200 49 l 1
 232 50 l 1
 253 51 l 1
 309 319 l 1
 306 321 l 1
 298 321 l 1
 290 321 l 1
 280 322 l 1
 268 320 l 1
 254 319 l 1
 241 315 l 1
 222 311 l 1
 221 317 l 1
 213 314 l 1
 200 309 l 1
 188 304 l 1
 183 301 l 1
 183 299 l 1
 167 290 l 1
 159 291 l 1
 156 292 l 1
 155 293 l 1
 149 294 l 1
 141 302 l 1
 134 309 l 1
 130 319 l 1
 127 329 l 1
 124 339 l 1
 124 349 l 1
 123 358 l 1
 125 369 l 1
 125 379 l 1
 126 391 l 1
 134 391 l 1
 135 380 l 1
 138 370 l 1
 141 363 l 1
 146 356 l 1
 150 350 l 1
 156 346 l 1
 160 341 l 1
 163 340 l 1
 169 341 l 1
 180 341 l 1
 193 342 l 1
 207 342 l 1
 222 345 l 1
 238 347 l 1
 256 348 l 1
 275 350 l 1
 289 353 l 1
 293 355 l 1
 301 357 l 1
 302 358 l 1
 298 360 l 1
EndSplineSet
Comment: "Kage: aj1-00339+AAoA-Alias: uf0153"
EndChar
StartChar: uF0154
Encoding: 983380 983380 13
Width: 1000
VWidth: 0
Flags: MW
LayerCount: 2
Fore
SplineSet
94 -4 m 1
 95 4 l 1
 96 12 l 1
 99 20 l 1
 99 27 l 1
 108 27 l 1
 108 21 l 1
 112 16 l 1
 117 10 l 1
 122 7 l 1
 126 4 l 1
 130 2 l 1
 134 0 l 1
 139 -1 l 1
 144 -2 l 1
 149 -2 l 1
 115 -52 l 1
 109 -44 l 1
 104 -36 l 1
 100 -28 l 1
 97 -20 l 1
 95 -12 l 1
 94 -4 l 1
112 396 m 1
 112 404 l 1
 114 411 l 1
 116 419 l 1
 116 427 l 1
 125 428 l 1
 126 420 l 1
 130 414 l 1
 134 409 l 1
 139 405 l 1
 143 402 l 1
 148 400 l 1
 151 400 l 1
 154 400 l 1
 158 400 l 1
 160 402 l 1
 131 350 l 1
 124 356 l 1
 120 364 l 1
 116 372 l 1
 114 380 l 1
 112 388 l 1
 112 396 l 1
115 -52 m 1
 149 -2 l 1
 161 -22 l 1
 156 -44 l 1
 137 -56 l 1
 115 -52 l 1
116 196 m 1
 116 204 l 1
 118 211 l 1
 120 219 l 1
 118 227 l 1
 128 228 l 1
 128 220 l 1
 134 214 l 1
 138 210 l 1
 142 206 l 1
 146 204 l 1
 150 203 l 1
 153 204 l 1
 156 205 l 1
 156 207 l 1
 157 210 l 1
 136 153 l 1
 130 159 l 1
 124 166 l 1
 120 174 l 1
 118 181 l 1
 116 188 l 1
 116 196 l 1
130 2 m 1
 136 1 l 1
 144 0 l 1
 155 0 l 1
 168 0 l 1
 183 0 l 1
 200 0 l 1
 220 2 l 1
 242 2 l 1
 266 2 l 1
 292 4 l 1
 294 -4 l 1
 268 -11 l 1
 246 -19 l 1
 224 -26 l 1
 206 -32 l 1
 190 -38 l 1
 175 -42 l 1
 163 -47 l 1
 153 -51 l 1
 145 -54 l 1
 140 -58 l 1
 130 2 l 1
131 350 m 1
 160 402 l 1
 174 384 l 1
 172 361 l 1
 154 347 l 1
 131 350 l 1
136 153 m 1
 157 210 l 1
 174 194 l 1
 175 171 l 1
 160 154 l 1
 136 153 l 1
140 406 m 1
 148 405 l 1
 158 404 l 1
 169 404 l 1
 183 404 l 1
 200 406 l 1
 218 406 l 1
 238 408 l 1
 260 408 l 1
 285 410 l 1
 311 412 l 1
 313 404 l 1
 288 396 l 1
 264 388 l 1
 244 380 l 1
 224 373 l 1
 206 367 l 1
 191 362 l 1
 178 357 l 1
 166 353 l 1
 156 350 l 1
 148 346 l 1
 140 406 l 1
149 206 m 1
 154 205 l 1
 162 204 l 1
 172 204 l 1
 184 204 l 1
 198 205 l 1
 214 206 l 1
 232 207 l 1
 253 208 l 1
 275 210 l 1
 299 212 l 1
 301 204 l 1
 278 196 l 1
 258 188 l 1
 238 180 l 1
 222 174 l 1
 206 168 l 1
 193 162 l 1
 182 158 l 1
 172 154 l 1
 164 150 l 1
 158 146 l 1
 149 206 l 1
184 -26 m 1
 186 -35 l 1
 208 -32 l 1
 228 -32 l 1
 247 -32 l 1
 262 -32 l 1
 276 -33 l 1
 288 -34 l 1
 296 -36 l 1
 302 -38 l 1
 303 -40 l 1
 294 -38 l 1
 323 14 l 1
 308 16 l 1
 300 14 l 1
 292 11 l 1
 282 8 l 1
 271 4 l 1
 258 -1 l 1
 242 -6 l 1
 225 -13 l 1
 206 -20 l 1
 184 -26 l 1
203 378 m 1
 228 386 l 1
 249 394 l 1
 268 402 l 1
 286 408 l 1
 300 414 l 1
 314 418 l 1
 324 422 l 1
 334 424 l 1
 344 426 l 1
 361 422 l 1
 326 373 l 1
 336 370 l 1
 335 372 l 1
 329 374 l 1
 320 376 l 1
 307 376 l 1
 292 376 l 1
 274 376 l 1
 254 374 l 1
 230 373 l 1
 206 369 l 1
 203 378 l 1
206 178 m 1
 226 184 l 1
 243 192 l 1
 258 199 l 1
 272 205 l 1
 285 210 l 1
 296 214 l 1
 306 218 l 1
 314 222 l 1
 322 224 l 1
 336 222 l 1
 310 168 l 1
 317 168 l 1
 316 170 l 1
 310 172 l 1
 302 174 l 1
 292 174 l 1
 279 174 l 1
 264 174 l 1
 247 174 l 1
 228 173 l 1
 208 169 l 1
 206 178 l 1
294 -38 m 1
 323 14 l 1
 337 -4 l 1
 335 -27 l 1
 317 -41 l 1
 294 -38 l 1
300 -52 m 1
 302 -6 l 1
 304 40 l 1
 306 84 l 1
 309 128 l 1
 311 172 l 1
 314 214 l 1
 316 258 l 1
 318 300 l 1
 320 341 l 1
 323 382 l 1
 383 378 l 1
 380 338 l 1
 378 296 l 1
 376 254 l 1
 374 212 l 1
 371 168 l 1
 369 125 l 1
 366 81 l 1
 364 36 l 1
 362 -8 l 1
 360 -54 l 1
 300 -52 l 1
300 -52 m 1
 360 -54 l 1
 350 -75 l 1
 328 -82 l 1
 308 -72 l 1
 300 -52 l 1
310 168 m 1
 336 222 l 1
 351 204 l 1
 350 182 l 1
 332 167 l 1
 310 168 l 1
316 411 m 1
 322 416 l 1
 326 422 l 1
 334 426 l 1
 342 429 l 1
 352 428 l 1
 362 424 l 1
 370 418 l 1
 377 410 l 1
 383 400 l 1
 388 390 l 1
 330 376 l 1
 330 384 l 1
 331 390 l 1
 332 394 l 1
 333 397 l 1
 335 399 l 1
 336 402 l 1
 336 404 l 1
 332 407 l 1
 326 408 l 1
 322 404 l 1
 316 411 l 1
326 373 m 1
 361 422 l 1
 372 402 l 1
 368 380 l 1
 348 368 l 1
 326 373 l 1
330 376 m 1
 388 390 l 1
 384 367 l 1
 366 354 l 1
 344 358 l 1
 330 376 l 1
EndSplineSet
Comment: "Kage: aj1-00340+AAoA-Alias: uf0154"
Colour: ffff00
EndChar
StartChar: uF0155
Encoding: 983381 983381 14
Width: 500
VWidth: 0
Flags: MW
LayerCount: 2
Fore
SplineSet
75 404 m 1
 81 409 l 1
 93 398 l 1
 104 387 l 1
 115 373 l 1
 124 359 l 1
 134 345 l 1
 143 328 l 1
 150 311 l 1
 157 293 l 1
 163 275 l 1
 168 254 l 1
 164 237 l 1
 149 226 l 1
 132 231 l 1
 122 245 l 1
 118 266 l 1
 117 283 l 1
 113 299 l 1
 109 316 l 1
 105 332 l 1
 100 347 l 1
 95 363 l 1
 89 377 l 1
 83 392 l 1
 75 404 l 1
188 456 m 1
 194 461 l 1
 205 450 l 1
 217 439 l 1
 228 426 l 1
 238 412 l 1
 246 397 l 1
 255 381 l 1
 263 365 l 1
 269 348 l 1
 275 329 l 1
 281 310 l 1
 277 293 l 1
 262 282 l 1
 244 287 l 1
 235 301 l 1
 232 319 l 1
 229 337 l 1
 226 353 l 1
 222 369 l 1
 217 385 l 1
 214 400 l 1
 208 415 l 1
 203 429 l 1
 196 444 l 1
 188 456 l 1
361 434 m 1
 359 442 l 1
 368 440 l 1
 376 440 l 1
 383 438 l 1
 391 434 l 1
 398 428 l 1
 404 420 l 1
 412 412 l 1
 417 402 l 1
 423 389 l 1
 429 375 l 1
 425 358 l 1
 420 353 l 1
 407 307 l 1
 386 241 l 1
 363 179 l 1
 336 121 l 1
 307 69 l 1
 277 22 l 1
 242 -18 l 1
 206 -54 l 1
 166 -83 l 1
 124 -107 l 1
 119 -102 l 1
 120 -101 l 2
 121 -100 l 1
 158 -63 l 1
 193 -24 l 1
 226 18 l 1
 255 62 l 1
 283 110 l 1
 308 159 l 1
 331 211 l 1
 350 267 l 1
 366 324 l 1
 379 383 l 1
 378 387 l 1
 378 397 l 1
 376 405 l 1
 374 413 l 1
 372 419 l 1
 370 423 l 1
 369 427 l 1
 367 431 l 1
 361 434 l 1
EndSplineSet
Comment: "Kage: aj1-00341+AAoA-Alias: uf0155"
EndChar
StartChar: uF0156
Encoding: 983382 983382 15
Width: 500
VWidth: 0
Flags: MW
LayerCount: 2
Fore
SplineSet
11 371 m 1
 13 391 l 1
 15 414 l 1
 19 418 l 1
 23 414 l 1
 25 392 l 1
 31 374 l 1
 36 360 l 1
 42 347 l 1
 49 337 l 1
 55 328 l 1
 60 324 l 1
 65 322 l 1
 69 321 l 1
 73 321 l 1
 74 321 l 1
 86 320 l 1
 128 321 l 1
 170 322 l 1
 212 322 l 1
 254 323 l 1
 298 324 l 1
 341 324 l 1
 385 324 l 1
 408 324 l 1
 415 326 l 1
 425 328 l 1
 434 333 l 1
 443 335 l 1
 454 337 l 1
 467 335 l 1
 479 328 l 1
 490 318 l 1
 489 318 l 1
 491 317 l 1
 495 311 l 1
 499 305 l 1
 500 286 l 1
 487 271 l 1
 469 272 l 1
 464 276 l 1
 429 275 l 1
 385 276 l 1
 342 276 l 1
 298 276 l 1
 255 275 l 1
 212 274 l 1
 170 274 l 1
 128 273 l 1
 89 272 l 1
 80 262 l 1
 62 259 l 1
 47 268 l 1
 36 278 l 1
 26 290 l 1
 19 303 l 1
 15 319 l 1
 12 336 l 1
 12 352 l 1
 11 371 l 1
EndSplineSet
Comment: "Kage: aj1-00342+AAoA-Alias: uf0156"
EndChar
StartChar: uF0157
Encoding: 983383 983383 16
Width: 1000
VWidth: 0
Flags: MW
LayerCount: 2
Fore
SplineSet
28 592 m 1
 30 602 l 1
 32 614 l 1
 32 625 l 1
 41 625 l 1
 42 615 l 1
 48 606 l 1
 52 598 l 1
 58 590 l 1
 64 584 l 1
 70 578 l 1
 76 574 l 1
 82 570 l 1
 89 566 l 1
 96 564 l 1
 61 515 l 1
 52 525 l 1
 45 535 l 1
 39 546 l 1
 34 557 l 1
 31 568 l 1
 30 580 l 1
 28 592 l 1
37 -86 m 1
 76 -46 l 1
 110 -5 l 1
 142 39 l 1
 168 86 l 1
 191 134 l 1
 209 185 l 1
 222 239 l 1
 231 294 l 1
 234 353 l 1
 232 414 l 1
 292 417 l 1
 291 351 l 1
 284 288 l 1
 272 228 l 1
 253 170 l 1
 230 116 l 1
 202 66 l 1
 168 20 l 1
 130 -22 l 1
 88 -60 l 1
 42 -94 l 1
 37 -86 l 1
38 -86 m 1
 79 -52 l 1
 116 -14 l 1
 147 27 l 1
 174 73 l 1
 196 122 l 1
 212 175 l 1
 224 231 l 1
 232 290 l 1
 234 351 l 1
 232 414 l 1
 292 417 l 1
 291 350 l 1
 285 284 l 1
 274 221 l 1
 257 162 l 1
 234 106 l 1
 206 54 l 1
 174 8 l 1
 134 -33 l 1
 90 -67 l 1
 42 -94 l 1
 38 -86 l 1
61 515 m 1
 96 564 l 1
 108 544 l 1
 103 522 l 1
 83 510 l 1
 61 515 l 1
62 570 m 1
 74 570 l 1
 90 572 l 1
 110 574 l 1
 135 575 l 1
 164 578 l 1
 198 580 l 1
 237 583 l 1
 280 586 l 1
 328 588 l 1
 381 590 l 1
 382 581 l 1
 330 569 l 1
 284 559 l 1
 241 550 l 1
 204 542 l 1
 170 536 l 1
 142 530 l 1
 118 524 l 1
 100 519 l 1
 86 514 l 1
 77 511 l 1
 62 570 l 1
210 456 m 1
 210 464 l 1
 218 464 l 1
 226 466 l 1
 236 465 l 1
 245 462 l 1
 254 457 l 1
 263 450 l 1
 272 442 l 1
 280 433 l 1
 288 422 l 1
 296 410 l 1
 240 388 l 1
 238 399 l 1
 236 409 l 1
 234 418 l 1
 231 426 l 1
 228 433 l 1
 226 439 l 1
 223 444 l 1
 220 450 l 1
 216 454 l 1
 210 456 l 1
230 556 m 1
 232 546 l 1
 268 550 l 1
 300 551 l 1
 330 552 l 1
 355 552 l 1
 376 552 l 1
 394 550 l 1
 408 548 l 1
 417 546 l 1
 419 544 l 1
 412 546 l 1
 457 586 l 1
 440 596 l 1
 426 598 l 1
 410 598 l 1
 394 596 l 1
 374 592 l 1
 351 588 l 1
 326 582 l 1
 297 574 l 1
 265 566 l 1
 230 556 l 1
240 388 m 1
 296 410 l 1
 296 388 l 1
 280 372 l 1
 256 372 l 1
 240 388 l 1
291 308 m 1
 308 338 l 1
 326 368 l 1
 342 396 l 1
 356 422 l 1
 370 448 l 1
 383 472 l 1
 394 496 l 1
 404 519 l 1
 412 540 l 1
 420 562 l 1
 476 539 l 1
 464 517 l 1
 452 495 l 1
 438 472 l 1
 423 449 l 1
 406 426 l 1
 388 401 l 1
 368 376 l 1
 347 352 l 1
 324 327 l 1
 298 302 l 1
 291 308 l 1
392 577 m 1
 399 586 l 1
 404 594 l 1
 410 602 l 1
 422 606 l 1
 434 605 l 1
 445 600 l 1
 455 592 l 1
 464 582 l 1
 472 569 l 1
 480 554 l 1
 424 535 l 1
 422 548 l 1
 420 558 l 1
 418 566 l 1
 417 572 l 1
 418 574 l 1
 418 578 l 1
 418 580 l 1
 414 581 l 1
 406 579 l 1
 400 572 l 1
 392 577 l 1
412 546 m 1
 457 586 l 1
 464 565 l 1
 455 544 l 1
 433 536 l 1
 412 546 l 1
424 535 m 1
 480 554 l 1
 478 531 l 1
 462 516 l 1
 438 518 l 1
 424 535 l 1
EndSplineSet
Comment: "Kage: aj1-00343+AAoA-Alias: uf0157"
Colour: ffff00
EndChar
StartChar: uF0158
Encoding: 983384 983384 17
Width: 1000
VWidth: 0
Flags: MW
LayerCount: 2
Fore
SplineSet
10 139 m 1
 54 180 l 1
 98 224 l 1
 139 271 l 1
 178 320 l 1
 214 371 l 1
 248 422 l 1
 278 472 l 1
 304 522 l 1
 325 568 l 1
 342 611 l 1
 398 590 l 1
 377 544 l 1
 351 496 l 1
 321 447 l 1
 287 396 l 1
 249 346 l 1
 208 296 l 1
 163 249 l 1
 116 204 l 1
 67 165 l 1
 16 132 l 1
 10 139 l 1
234 356 m 1
 234 364 l 1
 238 364 l 1
 245 366 l 1
 252 366 l 1
 259 363 l 1
 266 360 l 1
 273 355 l 1
 280 349 l 1
 286 342 l 1
 292 334 l 1
 299 326 l 1
 244 303 l 1
 242 312 l 1
 242 320 l 1
 240 326 l 1
 240 332 l 1
 240 338 l 1
 239 342 l 1
 238 347 l 1
 238 351 l 1
 236 355 l 1
 234 356 l 1
234 208 m 1
 235 250 l 1
 235 290 l 1
 235 330 l 1
 295 330 l 1
 295 290 l 1
 295 250 l 1
 294 208 l 1
 295 167 l 1
 295 125 l 1
 295 83 l 1
 295 40 l 1
 295 -2 l 1
 295 -46 l 1
 295 -90 l 1
 235 -90 l 1
 235 -46 l 1
 235 -2 l 1
 235 40 l 1
 235 83 l 1
 235 125 l 1
 235 167 l 1
 234 208 l 1
235 -90 m 1
 295 -90 l 1
 286 -111 l 1
 265 -120 l 1
 244 -111 l 1
 235 -90 l 1
244 303 m 1
 299 326 l 1
 298 302 l 1
 282 286 l 1
 260 287 l 1
 244 303 l 1
330 666 m 1
 330 674 l 1
 336 674 l 1
 344 675 l 1
 353 673 l 1
 362 668 l 1
 370 662 l 1
 377 654 l 1
 384 644 l 1
 390 633 l 1
 396 620 l 1
 402 606 l 1
 344 594 l 1
 342 606 l 1
 342 618 l 1
 341 628 l 1
 340 636 l 1
 340 644 l 1
 338 650 l 1
 338 655 l 1
 336 660 l 1
 334 664 l 1
 330 666 l 1
344 594 m 1
 402 606 l 1
 398 584 l 1
 379 570 l 1
 356 575 l 1
 344 594 l 1
EndSplineSet
Comment: "Kage: aj1-00344+AAoA-Alias: uf0158"
Colour: ffff00
EndChar
StartChar: uF0159
Encoding: 983385 983385 18
Width: 500
VWidth: 0
Flags: MW
LayerCount: 2
Fore
SplineSet
197 676 m 1
 195 686 l 1
 205 684 l 1
 213 684 l 1
 222 682 l 1
 231 678 l 1
 240 672 l 1
 248 664 l 1
 257 656 l 1
 264 645 l 1
 273 632 l 1
 280 618 l 1
 280 600 l 1
 274 594 l 1
 273 479 l 1
 306 481 l 1
 345 483 l 1
 367 485 l 1
 366 485 l 1
 373 494 l 1
 384 498 l 1
 395 500 l 1
 408 496 l 1
 418 489 l 1
 427 479 l 1
 434 466 l 1
 440 452 l 1
 446 434 l 1
 442 416 l 1
 432 409 l 1
 423 354 l 1
 406 277 l 1
 384 207 l 1
 358 142 l 1
 327 84 l 1
 291 32 l 1
 250 -13 l 1
 205 -50 l 1
 155 -81 l 1
 105 -101 l 1
 102 -103 l 1
 101 -103 l 1
 97 -97 l 1
 147 -59 l 1
 190 -17 l 1
 230 28 l 1
 266 75 l 1
 297 127 l 1
 325 182 l 1
 346 241 l 1
 364 304 l 1
 378 372 l 1
 388 440 l 1
 386 441 l 1
 382 444 l 1
 374 446 l 1
 363 448 l 1
 348 449 l 1
 331 448 l 1
 312 447 l 1
 290 445 l 1
 264 442 l 1
 236 439 l 1
 235 442 l 1
 219 439 l 1
 197 435 l 1
 179 431 l 1
 164 426 l 1
 153 424 l 1
 144 422 l 1
 142 427 l 1
 134 426 l 1
 127 430 l 1
 123 434 l 1
 121 436 l 1
 121 434 l 1
 121 415 l 1
 121 394 l 1
 120 372 l 1
 121 350 l 1
 121 328 l 1
 121 304 l 1
 121 280 l 1
 121 256 l 1
 121 231 l 1
 121 204 l 1
 114 188 l 1
 97 181 l 1
 79 188 l 1
 73 204 l 1
 73 231 l 1
 73 256 l 1
 73 280 l 1
 73 304 l 1
 73 328 l 1
 73 350 l 1
 72 372 l 1
 73 394 l 1
 73 415 l 1
 74 438 l 1
 75 438 l 1
 73 448 l 1
 72 462 l 1
 71 476 l 1
 70 487 l 1
 70 497 l 1
 68 505 l 1
 66 512 l 1
 65 519 l 1
 64 524 l 1
 61 526 l 1
 62 536 l 1
 70 531 l 1
 77 527 l 1
 83 523 l 1
 90 515 l 1
 96 507 l 1
 102 496 l 1
 107 484 l 1
 113 480 l 1
 117 477 l 1
 121 475 l 1
 125 472 l 1
 130 471 l 1
 134 470 l 1
 137 469 l 1
 140 470 l 1
 143 471 l 1
 149 472 l 1
 152 469 l 1
 158 470 l 1
 173 470 l 1
 192 471 l 1
 215 473 l 1
 227 474 l 1
 227 628 l 1
 224 637 l 1
 220 646 l 1
 218 654 l 1
 214 661 l 1
 211 667 l 1
 207 671 l 1
 204 675 l 1
 197 676 l 1
EndSplineSet
Comment: "Kage: aj1-00345+AAoA-Alias: uf0159"
EndChar
StartChar: uF015A
Encoding: 983386 983386 19
Width: 500
VWidth: 0
Flags: MW
LayerCount: 2
Fore
SplineSet
78 494 m 1
 79 505 l 1
 81 516 l 1
 81 529 l 1
 89 529 l 1
 89 517 l 1
 93 508 l 1
 98 499 l 1
 102 491 l 1
 108 484 l 1
 113 478 l 1
 118 472 l 1
 124 470 l 1
 136 470 l 1
 152 471 l 1
 172 473 l 1
 195 475 l 1
 220 477 l 1
 250 481 l 1
 281 484 l 1
 316 487 l 1
 339 489 l 1
 340 495 l 1
 348 502 l 1
 357 508 l 1
 369 511 l 1
 381 508 l 1
 392 504 l 1
 403 498 l 1
 411 488 l 1
 422 476 l 1
 424 458 l 1
 413 442 l 1
 395 440 l 1
 382 451 l 1
 375 451 l 1
 375 453 l 1
 370 452 l 1
 360 453 l 1
 347 454 l 1
 330 454 l 1
 310 453 l 1
 288 450 l 1
 262 447 l 1
 234 445 l 1
 217 443 l 1
 222 442 l 1
 231 441 l 1
 239 437 l 1
 247 432 l 1
 254 425 l 1
 261 417 l 1
 267 408 l 1
 271 399 l 1
 273 398 l 1
 274 392 l 1
 277 384 l 1
 274 370 l 1
 273 111 l 1
 322 115 l 1
 375 118 l 1
 416 121 l 1
 417 123 l 1
 421 129 l 1
 431 133 l 1
 440 135 l 1
 449 135 l 1
 459 130 l 1
 469 124 l 1
 477 117 l 1
 485 107 l 1
 494 96 l 1
 496 77 l 1
 484 62 l 1
 467 61 l 1
 453 71 l 1
 452 73 l 1
 447 73 l 1
 443 75 l 1
 435 78 l 1
 424 80 l 1
 408 82 l 1
 388 83 l 1
 366 82 l 1
 339 81 l 1
 310 79 l 1
 277 77 l 1
 237 75 l 1
 237 78 l 1
 231 77 l 1
 191 72 l 1
 156 67 l 1
 124 63 l 1
 97 60 l 1
 88 60 l 1
 88 58 l 1
 73 47 l 1
 55 50 l 1
 43 59 l 1
 34 69 l 1
 27 80 l 1
 22 92 l 1
 18 103 l 1
 16 116 l 1
 14 129 l 1
 15 142 l 1
 17 154 l 1
 17 169 l 1
 25 169 l 1
 27 155 l 1
 29 143 l 1
 34 133 l 1
 40 124 l 1
 44 116 l 1
 50 110 l 1
 57 104 l 1
 59 104 l 1
 72 105 l 1
 95 104 l 1
 122 103 l 1
 153 105 l 1
 188 106 l 1
 228 109 l 1
 227 109 l 1
 227 398 l 1
 228 398 l 1
 227 401 l 1
 225 408 l 1
 224 415 l 1
 222 420 l 1
 220 425 l 1
 216 430 l 1
 212 435 l 1
 206 437 l 1
 207 441 l 1
 200 440 l 1
 200 441 l 1
 178 436 l 1
 159 431 l 1
 143 428 l 1
 144 428 l 1
 145 427 l 1
 129 417 l 1
 111 421 l 1
 102 431 l 1
 95 440 l 1
 89 451 l 1
 85 461 l 1
 82 471 l 1
 80 483 l 1
 78 494 l 1
EndSplineSet
Comment: "Kage: aj1-00346+AAoA-Alias: uf015a"
EndChar
StartChar: uF015B
Encoding: 983387 983387 20
Width: 1000
VWidth: 0
Flags: MW
LayerCount: 2
Fore
SplineSet
-6 -32 m 1
 26 8 l 1
 56 49 l 1
 84 90 l 1
 112 132 l 1
 137 175 l 1
 161 220 l 1
 183 266 l 1
 204 312 l 1
 222 360 l 1
 240 410 l 1
 296 390 l 1
 276 340 l 1
 252 290 l 1
 228 242 l 1
 202 197 l 1
 174 153 l 1
 143 110 l 1
 111 70 l 1
 76 32 l 1
 40 -4 l 1
 1 -38 l 1
 -6 -32 l 1
12 442 m 1
 13 454 l 1
 16 468 l 1
 17 480 l 1
 26 480 l 1
 27 468 l 1
 32 457 l 1
 36 447 l 1
 42 439 l 1
 47 432 l 1
 52 426 l 1
 59 422 l 1
 65 418 l 1
 72 416 l 1
 78 414 l 1
 48 362 l 1
 38 372 l 1
 29 382 l 1
 22 394 l 1
 18 406 l 1
 14 418 l 1
 12 430 l 1
 12 442 l 1
48 362 m 1
 78 414 l 1
 92 395 l 1
 88 372 l 1
 70 359 l 1
 48 362 l 1
55 365 m 1
 55 425 l 1
 72 424 l 1
 94 424 l 1
 121 424 l 1
 152 424 l 1
 188 425 l 1
 228 426 l 1
 272 428 l 1
 321 431 l 1
 374 433 l 1
 432 434 l 1
 434 426 l 1
 376 414 l 1
 324 404 l 1
 276 396 l 1
 232 389 l 1
 192 383 l 1
 156 378 l 1
 124 374 l 1
 98 370 l 1
 74 367 l 1
 55 365 l 1
164 38 m 1
 184 22 l 1
 202 6 l 1
 218 -8 l 1
 230 -22 l 1
 242 -33 l 1
 251 -42 l 1
 258 -50 l 1
 263 -57 l 1
 265 -62 l 1
 262 -61 l 1
 310 -24 l 1
 302 -20 l 1
 295 -16 l 1
 287 -13 l 1
 276 -8 l 1
 264 -2 l 1
 250 5 l 1
 232 14 l 1
 214 23 l 1
 192 33 l 1
 170 46 l 1
 164 38 l 1
242 400 m 1
 276 410 l 1
 308 418 l 1
 337 425 l 1
 363 430 l 1
 386 435 l 1
 406 438 l 1
 423 440 l 1
 438 442 l 1
 452 442 l 1
 466 439 l 1
 438 386 l 1
 440 386 l 1
 434 390 l 1
 422 392 l 1
 408 394 l 1
 388 394 l 1
 366 395 l 1
 340 394 l 1
 312 394 l 1
 279 394 l 1
 244 392 l 1
 242 400 l 1
242 676 m 1
 249 676 l 1
 258 678 l 1
 266 678 l 1
 276 676 l 1
 284 671 l 1
 294 665 l 1
 302 657 l 1
 310 648 l 1
 318 638 l 1
 326 626 l 1
 270 603 l 1
 268 614 l 1
 266 624 l 1
 264 632 l 1
 262 640 l 1
 260 646 l 1
 258 652 l 1
 255 657 l 1
 252 662 l 1
 248 666 l 1
 244 666 l 1
 242 676 l 1
262 456 m 1
 262 539 l 1
 262 625 l 1
 322 625 l 1
 322 539 l 1
 322 456 l 1
 322 378 l 1
 322 302 l 1
 323 230 l 1
 324 162 l 1
 324 98 l 1
 326 37 l 1
 326 -20 l 1
 328 -74 l 1
 268 -76 l 1
 266 -22 l 1
 266 36 l 1
 264 97 l 1
 264 162 l 1
 263 230 l 1
 262 302 l 1
 262 378 l 1
 262 456 l 1
262 -61 m 1
 310 -24 l 1
 315 -47 l 1
 304 -66 l 1
 282 -72 l 1
 262 -61 l 1
268 -76 m 1
 328 -74 l 1
 319 -96 l 1
 298 -104 l 1
 277 -96 l 1
 268 -76 l 1
270 603 m 1
 326 626 l 1
 326 602 l 1
 310 586 l 1
 286 587 l 1
 270 603 l 1
415 432 m 1
 420 437 l 1
 424 444 l 1
 432 449 l 1
 440 452 l 1
 450 451 l 1
 460 448 l 1
 470 443 l 1
 479 436 l 1
 488 428 l 1
 496 418 l 1
 444 389 l 1
 442 398 l 1
 440 406 l 1
 438 412 l 1
 436 416 l 1
 436 420 l 1
 435 424 l 1
 434 426 l 1
 431 429 l 1
 426 430 l 1
 422 426 l 1
 415 432 l 1
438 386 m 1
 466 439 l 1
 480 421 l 1
 479 398 l 1
 462 384 l 1
 438 386 l 1
444 389 m 1
 496 418 l 1
 499 395 l 1
 485 377 l 1
 462 375 l 1
 444 389 l 1
EndSplineSet
Comment: "Kage: aj1-00347+AAoA-Alias: uf015b"
Colour: ffff00
EndChar
StartChar: uF015C
Encoding: 983388 983388 21
Width: 500
VWidth: 0
Flags: MW
LayerCount: 2
Fore
SplineSet
217 124 m 1
 222 128 l 1
 243 108 l 1
 261 90 l 1
 278 73 l 1
 294 59 l 1
 306 45 l 1
 318 32 l 1
 328 21 l 1
 328 18 l 1
 336 47 l 1
 348 85 l 1
 358 131 l 1
 369 180 l 1
 379 234 l 1
 388 290 l 1
 394 348 l 1
 401 401 l 1
 395 401 l 1
 394 403 l 1
 392 404 l 1
 383 406 l 1
 372 408 l 1
 356 409 l 1
 338 408 l 1
 316 407 l 1
 292 405 l 1
 264 403 l 1
 254 402 l 1
 243 335 l 1
 222 253 l 1
 196 179 l 1
 167 112 l 1
 133 55 l 1
 94 4 l 1
 50 -39 l 1
 -0 -78 l 1
 -5 -72 l 1
 36 -21 l 1
 74 30 l 1
 106 84 l 1
 135 141 l 1
 160 203 l 1
 181 273 l 1
 200 352 l 1
 210 399 l 1
 185 393 l 1
 156 387 l 1
 132 383 l 1
 113 377 l 1
 114 378 l 1
 99 368 l 1
 81 370 l 1
 71 380 l 1
 63 390 l 1
 57 402 l 1
 53 413 l 1
 50 424 l 1
 48 437 l 1
 47 449 l 1
 48 462 l 1
 50 474 l 1
 51 489 l 1
 59 489 l 1
 59 474 l 1
 63 463 l 1
 67 453 l 1
 72 443 l 1
 76 435 l 1
 82 429 l 1
 88 423 l 1
 93 420 l 1
 106 420 l 1
 126 421 l 1
 150 424 l 1
 180 427 l 1
 214 432 l 1
 215 431 l 1
 216 441 l 1
 230 540 l 1
 241 649 l 1
 240 654 l 1
 236 660 l 1
 232 665 l 1
 229 669 l 1
 223 673 l 1
 218 677 l 1
 209 677 l 1
 209 685 l 1
 218 685 l 1
 226 687 l 1
 236 688 l 1
 245 685 l 1
 254 681 l 1
 264 676 l 1
 273 669 l 1
 281 661 l 1
 288 650 l 1
 296 638 l 1
 295 620 l 1
 284 609 l 1
 276 533 l 1
 260 436 l 1
 296 441 l 1
 346 446 l 1
 379 450 l 1
 381 454 l 1
 391 458 l 1
 402 458 l 1
 412 454 l 1
 421 447 l 1
 429 439 l 1
 437 427 l 1
 446 414 l 1
 454 398 l 1
 454 380 l 1
 445 370 l 1
 442 344 l 1
 435 283 l 1
 426 225 l 1
 416 171 l 1
 406 119 l 1
 394 73 l 1
 382 33 l 1
 370 -4 l 1
 358 -31 l 1
 343 -53 l 1
 327 -61 l 1
 309 -55 l 1
 302 -39 l 1
 306 -22 l 1
 310 -20 l 1
 304 -24 l 1
 301 -17 l 1
 298 -10 l 1
 295 1 l 1
 289 13 l 1
 282 27 l 1
 272 42 l 1
 260 59 l 1
 248 79 l 1
 233 100 l 1
 217 124 l 1
EndSplineSet
Comment: "Kage: aj1-00348+AAoA-Alias: uf015c"
EndChar
StartChar: uF015D
Encoding: 983389 983389 22
Width: 1000
VWidth: 0
Flags: MW
LayerCount: 2
Fore
SplineSet
26 179 m 1
 27 190 l 1
 29 200 l 1
 30 210 l 1
 38 210 l 1
 40 201 l 1
 44 193 l 1
 49 186 l 1
 54 180 l 1
 60 176 l 1
 66 172 l 1
 72 170 l 1
 78 167 l 1
 84 166 l 1
 92 164 l 1
 64 110 l 1
 54 119 l 1
 46 128 l 1
 39 138 l 1
 34 148 l 1
 30 158 l 1
 27 168 l 1
 26 179 l 1
40 424 m 1
 40 434 l 1
 42 445 l 1
 42 455 l 1
 50 456 l 1
 52 446 l 1
 57 438 l 1
 62 432 l 1
 68 426 l 1
 73 422 l 1
 78 420 l 1
 84 417 l 1
 90 416 l 1
 96 414 l 1
 102 414 l 1
 76 360 l 1
 68 367 l 1
 59 375 l 1
 52 384 l 1
 47 394 l 1
 44 404 l 1
 41 414 l 1
 40 424 l 1
64 110 m 1
 92 164 l 1
 106 146 l 1
 104 124 l 1
 86 109 l 1
 64 110 l 1
67 170 m 1
 72 170 l 1
 85 171 l 1
 105 174 l 1
 131 181 l 1
 162 189 l 1
 200 200 l 1
 242 212 l 1
 290 226 l 1
 344 242 l 1
 404 260 l 1
 408 251 l 1
 351 224 l 1
 300 202 l 1
 254 181 l 1
 212 164 l 1
 176 149 l 1
 146 136 l 1
 120 126 l 1
 98 119 l 1
 82 114 l 1
 67 110 l 1
 67 170 l 1
76 360 m 1
 102 414 l 1
 117 397 l 1
 116 374 l 1
 100 358 l 1
 76 360 l 1
80 415 m 1
 86 414 l 1
 97 416 l 1
 113 420 l 1
 133 424 l 1
 158 430 l 1
 186 438 l 1
 218 447 l 1
 255 457 l 1
 296 468 l 1
 341 480 l 1
 344 471 l 1
 302 450 l 1
 264 432 l 1
 230 416 l 1
 198 402 l 1
 171 390 l 1
 148 380 l 1
 128 372 l 1
 112 365 l 1
 100 360 l 1
 90 356 l 1
 80 415 l 1
151 396 m 1
 187 414 l 1
 220 431 l 1
 250 445 l 1
 277 457 l 1
 302 468 l 1
 322 477 l 1
 340 484 l 1
 355 490 l 1
 368 495 l 1
 378 498 l 1
 385 439 l 1
 380 440 l 1
 369 438 l 1
 354 436 l 1
 336 433 l 1
 314 428 l 1
 290 422 l 1
 261 414 l 1
 229 406 l 1
 193 398 l 1
 154 388 l 1
 151 396 l 1
160 156 m 1
 204 178 l 1
 244 198 l 1
 281 215 l 1
 314 230 l 1
 344 242 l 1
 370 252 l 1
 392 261 l 1
 411 268 l 1
 427 272 l 1
 442 275 l 1
 442 215 l 1
 436 216 l 1
 423 216 l 1
 406 212 l 1
 384 208 l 1
 358 202 l 1
 327 194 l 1
 292 184 l 1
 254 173 l 1
 210 161 l 1
 163 148 l 1
 160 156 l 1
164 652 m 1
 171 655 l 1
 178 660 l 1
 186 664 l 1
 195 664 l 1
 205 663 l 1
 215 660 l 1
 224 654 l 1
 234 647 l 1
 244 638 l 1
 253 628 l 1
 202 598 l 1
 198 607 l 1
 195 616 l 1
 192 622 l 1
 190 628 l 1
 188 633 l 1
 186 637 l 1
 183 640 l 1
 180 644 l 1
 174 646 l 1
 170 644 l 1
 164 652 l 1
190 628 m 1
 250 632 l 1
 254 579 l 1
 259 521 l 1
 264 459 l 1
 270 393 l 1
 277 323 l 1
 284 249 l 1
 292 171 l 1
 300 89 l 1
 308 3 l 1
 317 -87 l 1
 258 -93 l 1
 248 -3 l 1
 240 84 l 1
 232 166 l 1
 224 244 l 1
 218 318 l 1
 211 388 l 1
 205 454 l 1
 200 516 l 1
 194 574 l 1
 190 628 l 1
202 598 m 1
 253 628 l 1
 256 606 l 1
 242 588 l 1
 220 584 l 1
 202 598 l 1
258 -93 m 1
 317 -87 l 1
 310 -108 l 1
 290 -120 l 1
 268 -113 l 1
 258 -93 l 1
346 462 m 1
 350 470 l 1
 351 479 l 1
 354 488 l 1
 358 496 l 1
 366 502 l 1
 376 506 l 1
 388 506 l 1
 398 502 l 1
 409 498 l 1
 418 491 l 1
 374 452 l 1
 372 458 l 1
 371 461 l 1
 372 464 l 1
 373 466 l 1
 374 469 l 1
 373 472 l 1
 370 472 l 1
 364 470 l 1
 358 466 l 1
 354 458 l 1
 346 462 l 1
374 452 m 1
 418 491 l 1
 426 470 l 1
 416 449 l 1
 394 442 l 1
 374 452 l 1
378 498 m 1
 400 492 l 1
 412 472 l 1
 405 450 l 1
 385 439 l 1
 378 498 l 1
389 222 m 1
 396 235 l 1
 400 248 l 1
 404 260 l 1
 410 270 l 1
 418 278 l 1
 430 284 l 1
 444 285 l 1
 458 281 l 1
 470 274 l 1
 480 264 l 1
 430 232 l 1
 428 236 l 1
 429 240 l 1
 431 242 l 1
 433 244 l 1
 432 246 l 1
 428 247 l 1
 422 244 l 1
 413 238 l 1
 404 230 l 1
 397 218 l 1
 389 222 l 1
430 232 m 1
 480 264 l 1
 484 242 l 1
 471 222 l 1
 448 218 l 1
 430 232 l 1
442 215 m 1
 442 275 l 1
 463 266 l 1
 472 245 l 1
 463 224 l 1
 442 215 l 1
EndSplineSet
Comment: "Kage: aj1-00349+AAoA-Alias: uf015d"
Colour: ffff00
EndChar
StartChar: uF015E
Encoding: 983390 983390 23
Width: 500
VWidth: 0
Flags: MW
LayerCount: 2
Fore
SplineSet
191 666 m 1
 189 676 l 1
 199 674 l 1
 206 674 l 1
 215 673 l 1
 223 669 l 1
 232 663 l 1
 239 656 l 1
 247 647 l 1
 253 637 l 1
 260 626 l 1
 260 625 l 1
 264 623 l 1
 263 619 l 1
 267 612 l 1
 266 594 l 1
 254 585 l 1
 251 571 l 1
 238 531 l 1
 240 530 l 1
 242 528 l 1
 242 527 l 1
 244 526 l 1
 247 526 l 1
 254 524 l 1
 264 523 l 1
 276 524 l 1
 290 525 l 1
 306 527 l 1
 324 528 l 1
 342 531 l 1
 365 536 l 1
 365 535 l 1
 373 542 l 1
 383 547 l 1
 396 546 l 1
 407 542 l 1
 417 533 l 1
 426 522 l 1
 435 509 l 1
 443 493 l 1
 442 474 l 1
 429 462 l 1
 427 463 l 1
 417 419 l 1
 395 343 l 1
 367 267 l 1
 338 192 l 1
 302 123 l 1
 262 58 l 1
 217 1 l 1
 167 -48 l 1
 111 -88 l 1
 50 -113 l 1
 46 -107 l 1
 99 -64 l 1
 147 -18 l 1
 191 36 l 1
 231 93 l 1
 268 156 l 1
 299 222 l 1
 329 289 l 1
 352 361 l 1
 372 433 l 1
 387 494 l 1
 385 494 l 1
 384 496 l 1
 382 496 l 1
 377 498 l 1
 370 500 l 1
 360 501 l 1
 348 500 l 1
 334 500 l 1
 318 498 l 1
 301 496 l 1
 281 490 l 1
 280 494 l 1
 270 490 l 1
 259 487 l 1
 253 485 l 1
 252 484 l 1
 233 480 l 1
 230 482 l 1
 227 483 l 1
 226 485 l 1
 221 488 l 1
 219 477 l 1
 201 435 l 1
 180 393 l 1
 160 355 l 1
 137 317 l 1
 112 283 l 1
 86 251 l 1
 57 223 l 1
 51 227 l 1
 74 261 l 1
 94 295 l 1
 114 331 l 1
 133 368 l 1
 150 407 l 1
 167 448 l 1
 181 491 l 1
 194 535 l 1
 206 582 l 1
 216 622 l 1
 217 621 l 1
 214 630 l 1
 211 639 l 1
 209 645 l 1
 206 651 l 1
 203 657 l 1
 201 661 l 1
 198 665 l 1
 191 666 l 1
EndSplineSet
Comment: "Kage: aj1-00350+AAoA-Alias: uf015e"
EndChar
StartChar: uF015F
Encoding: 983391 983391 24
Width: 500
VWidth: 0
Flags: MW
LayerCount: 2
Fore
SplineSet
137 666 m 1
 137 674 l 1
 146 674 l 1
 154 673 l 1
 163 672 l 1
 172 668 l 1
 182 661 l 1
 190 652 l 1
 199 642 l 1
 206 631 l 1
 214 618 l 1
 222 603 l 1
 220 584 l 1
 206 572 l 1
 206 573 l 1
 202 551 l 1
 188 499 l 1
 173 449 l 1
 166 427 l 1
 168 426 l 1
 173 419 l 1
 176 413 l 1
 182 414 l 1
 197 414 l 1
 216 413 l 1
 237 414 l 1
 262 416 l 1
 290 419 l 1
 320 421 l 1
 354 425 l 1
 392 428 l 1
 418 431 l 1
 419 432 l 1
 423 437 l 1
 429 443 l 1
 438 444 l 1
 448 442 l 1
 457 438 l 1
 463 431 l 1
 470 425 l 1
 475 414 l 1
 483 403 l 1
 482 384 l 1
 470 372 l 1
 450 372 l 1
 439 386 l 1
 433 387 l 1
 432 389 l 1
 431 389 l 1
 425 391 l 1
 416 393 l 1
 402 394 l 1
 386 393 l 1
 368 393 l 1
 348 391 l 1
 325 389 l 1
 304 386 l 1
 306 385 l 1
 312 381 l 1
 318 377 l 1
 324 371 l 1
 330 363 l 1
 336 355 l 1
 337 337 l 1
 331 329 l 1
 325 287 l 1
 312 223 l 1
 296 163 l 1
 275 107 l 1
 249 54 l 1
 221 8 l 1
 188 -34 l 1
 151 -68 l 1
 109 -96 l 1
 68 -111 l 1
 66 -113 l 1
 65 -113 l 1
 61 -107 l 1
 99 -75 l 1
 132 -40 l 1
 163 -2 l 1
 191 38 l 1
 215 82 l 1
 237 129 l 1
 254 181 l 1
 268 236 l 1
 279 295 l 1
 287 357 l 1
 285 361 l 1
 283 366 l 1
 283 371 l 1
 282 374 l 1
 281 377 l 1
 280 381 l 1
 273 379 l 1
 274 384 l 1
 267 382 l 1
 241 377 l 1
 218 374 l 1
 201 370 l 1
 196 370 l 1
 195 365 l 1
 178 358 l 1
 161 363 l 1
 153 374 l 1
 148 382 l 1
 139 355 l 1
 118 312 l 1
 98 271 l 1
 73 232 l 1
 49 196 l 1
 21 163 l 1
 15 167 l 1
 37 205 l 1
 55 243 l 1
 74 283 l 1
 92 324 l 1
 107 367 l 1
 120 413 l 1
 135 461 l 1
 146 510 l 1
 157 561 l 1
 167 618 l 1
 165 625 l 1
 161 635 l 1
 158 643 l 1
 155 650 l 1
 152 656 l 1
 148 661 l 1
 144 665 l 1
 137 666 l 1
EndSplineSet
Comment: "Kage: aj1-00351+AAoA-Alias: uf015f"
EndChar
StartChar: uF0160
Encoding: 983392 983392 25
Width: 1000
VWidth: 0
Flags: MW
LayerCount: 2
Fore
SplineSet
49 112 m 1
 50 124 l 1
 52 137 l 1
 54 150 l 1
 62 150 l 1
 64 138 l 1
 68 127 l 1
 74 117 l 1
 78 108 l 1
 84 100 l 1
 90 94 l 1
 96 89 l 1
 102 84 l 1
 109 81 l 1
 116 78 l 1
 78 31 l 1
 70 41 l 1
 64 52 l 1
 58 63 l 1
 54 75 l 1
 51 87 l 1
 50 100 l 1
 49 112 l 1
62 497 m 1
 62 509 l 1
 62 521 l 1
 64 533 l 1
 66 545 l 1
 74 545 l 1
 76 534 l 1
 80 524 l 1
 85 514 l 1
 90 506 l 1
 96 500 l 1
 102 494 l 1
 108 488 l 1
 114 484 l 1
 120 481 l 1
 128 478 l 1
 90 431 l 1
 82 441 l 1
 76 452 l 1
 70 462 l 1
 66 474 l 1
 63 486 l 1
 62 497 l 1
78 31 m 1
 116 78 l 1
 126 58 l 1
 120 36 l 1
 100 25 l 1
 78 31 l 1
88 90 m 1
 106 90 l 1
 126 92 l 1
 149 92 l 1
 174 93 l 1
 200 94 l 1
 228 94 l 1
 260 96 l 1
 292 96 l 1
 326 96 l 1
 364 94 l 1
 364 86 l 1
 328 77 l 1
 295 70 l 1
 263 63 l 1
 233 57 l 1
 205 52 l 1
 178 47 l 1
 154 42 l 1
 132 38 l 1
 112 34 l 1
 94 30 l 1
 88 90 l 1
90 431 m 1
 128 478 l 1
 138 458 l 1
 132 436 l 1
 112 425 l 1
 90 431 l 1
90 495 m 1
 102 495 l 1
 118 495 l 1
 137 496 l 1
 160 496 l 1
 187 498 l 1
 218 499 l 1
 253 501 l 1
 292 502 l 1
 334 504 l 1
 381 504 l 1
 382 496 l 1
 337 485 l 1
 295 476 l 1
 257 468 l 1
 223 462 l 1
 192 456 l 1
 166 450 l 1
 143 446 l 1
 124 442 l 1
 108 438 l 1
 97 436 l 1
 90 495 l 1
212 470 m 1
 242 479 l 1
 270 488 l 1
 295 494 l 1
 318 500 l 1
 337 506 l 1
 354 510 l 1
 368 512 l 1
 380 515 l 1
 392 516 l 1
 406 514 l 1
 379 460 l 1
 384 460 l 1
 380 462 l 1
 370 464 l 1
 358 466 l 1
 342 466 l 1
 322 466 l 1
 300 466 l 1
 274 465 l 1
 245 464 l 1
 214 462 l 1
 212 470 l 1
230 66 m 1
 232 56 l 1
 258 59 l 1
 282 59 l 1
 304 59 l 1
 323 58 l 1
 340 58 l 1
 354 56 l 1
 364 55 l 1
 372 52 l 1
 376 50 l 1
 374 49 l 1
 398 104 l 1
 386 106 l 1
 375 104 l 1
 364 102 l 1
 350 100 l 1
 336 96 l 1
 319 92 l 1
 300 86 l 1
 279 80 l 1
 256 72 l 1
 230 66 l 1
340 90 m 1
 378 460 l 1
 439 460 l 1
 400 90 l 1
 340 90 l 1
352 492 m 1
 360 502 l 1
 366 512 l 1
 375 519 l 1
 386 524 l 1
 400 524 l 1
 412 518 l 1
 424 510 l 1
 434 498 l 1
 442 484 l 1
 451 468 l 1
 394 450 l 1
 392 464 l 1
 389 475 l 1
 387 482 l 1
 386 488 l 1
 386 492 l 1
 385 494 l 1
 382 497 l 1
 376 497 l 1
 366 494 l 1
 358 486 l 1
 352 492 l 1
374 49 m 1
 398 104 l 1
 414 87 l 1
 414 64 l 1
 396 48 l 1
 374 49 l 1
379 460 m 1
 406 514 l 1
 420 496 l 1
 419 474 l 1
 402 459 l 1
 379 460 l 1
394 450 m 1
 451 468 l 1
 448 446 l 1
 432 431 l 1
 408 433 l 1
 394 450 l 1
EndSplineSet
Comment: "Kage: aj1-00352+AAoA-Alias: uf0160"
Colour: ffff00
EndChar
StartChar: uF0161
Encoding: 983393 983393 26
Width: 1000
VWidth: 0
Flags: MW
LayerCount: 2
Fore
SplineSet
12 437 m 1
 13 450 l 1
 16 462 l 1
 17 476 l 1
 26 475 l 1
 27 463 l 1
 32 452 l 1
 36 442 l 1
 42 434 l 1
 47 427 l 1
 52 422 l 1
 59 417 l 1
 65 414 l 1
 72 411 l 1
 78 408 l 1
 48 358 l 1
 38 367 l 1
 29 378 l 1
 22 388 l 1
 18 400 l 1
 14 412 l 1
 12 424 l 1
 12 437 l 1
48 358 m 1
 78 408 l 1
 92 390 l 1
 88 368 l 1
 70 354 l 1
 48 358 l 1
55 360 m 1
 55 420 l 1
 72 419 l 1
 94 418 l 1
 121 418 l 1
 152 419 l 1
 188 420 l 1
 228 422 l 1
 272 424 l 1
 321 426 l 1
 374 428 l 1
 432 430 l 1
 434 421 l 1
 376 409 l 1
 324 400 l 1
 276 391 l 1
 232 384 l 1
 192 378 l 1
 156 372 l 1
 124 368 l 1
 98 365 l 1
 74 362 l 1
 55 360 l 1
110 -86 m 1
 145 -62 l 1
 178 -37 l 1
 207 -10 l 1
 234 20 l 1
 257 52 l 1
 276 88 l 1
 292 126 l 1
 302 170 l 1
 308 218 l 1
 310 270 l 1
 370 270 l 1
 365 212 l 1
 354 158 l 1
 338 109 l 1
 317 66 l 1
 292 28 l 1
 262 -6 l 1
 228 -35 l 1
 192 -59 l 1
 154 -78 l 1
 114 -94 l 1
 110 -86 l 1
110 -86 m 1
 147 -67 l 1
 180 -45 l 1
 210 -20 l 1
 237 8 l 1
 260 40 l 1
 279 76 l 1
 294 118 l 1
 304 163 l 1
 310 214 l 1
 310 270 l 1
 370 270 l 1
 366 209 l 1
 356 152 l 1
 341 102 l 1
 320 56 l 1
 295 16 l 1
 265 -18 l 1
 232 -46 l 1
 194 -68 l 1
 155 -84 l 1
 113 -94 l 1
 110 -86 l 1
116 630 m 1
 118 639 l 1
 125 638 l 1
 134 638 l 1
 144 636 l 1
 153 630 l 1
 162 624 l 1
 170 616 l 1
 178 606 l 1
 186 594 l 1
 193 582 l 1
 200 568 l 1
 142 552 l 1
 140 564 l 1
 138 576 l 1
 136 586 l 1
 135 596 l 1
 133 604 l 1
 130 610 l 1
 128 616 l 1
 126 622 l 1
 122 628 l 1
 116 630 l 1
133 166 m 1
 134 236 l 1
 134 299 l 1
 134 357 l 1
 134 408 l 1
 134 454 l 1
 134 494 l 1
 134 526 l 1
 134 554 l 1
 134 574 l 1
 133 589 l 1
 192 592 l 1
 194 576 l 1
 194 554 l 1
 194 527 l 1
 194 494 l 1
 194 454 l 1
 194 408 l 1
 194 356 l 1
 194 299 l 1
 194 235 l 1
 193 165 l 1
 133 166 l 1
133 166 m 1
 193 165 l 1
 184 144 l 1
 162 136 l 1
 142 144 l 1
 133 166 l 1
142 552 m 1
 200 568 l 1
 196 545 l 1
 179 531 l 1
 156 534 l 1
 142 552 l 1
242 396 m 1
 276 404 l 1
 308 413 l 1
 337 420 l 1
 363 426 l 1
 386 430 l 1
 406 434 l 1
 423 436 l 1
 438 437 l 1
 452 437 l 1
 466 434 l 1
 438 380 l 1
 440 382 l 1
 434 384 l 1
 422 386 l 1
 408 388 l 1
 388 390 l 1
 366 390 l 1
 340 390 l 1
 312 389 l 1
 279 388 l 1
 244 386 l 1
 242 396 l 1
290 660 m 1
 291 669 l 1
 300 668 l 1
 309 668 l 1
 318 666 l 1
 328 661 l 1
 337 654 l 1
 346 646 l 1
 354 636 l 1
 361 624 l 1
 368 612 l 1
 374 597 l 1
 316 582 l 1
 315 595 l 1
 314 606 l 1
 312 616 l 1
 310 626 l 1
 308 634 l 1
 306 640 l 1
 304 646 l 1
 300 652 l 1
 296 658 l 1
 290 660 l 1
310 260 m 1
 310 615 l 1
 370 615 l 1
 370 260 l 1
 310 260 l 1
316 582 m 1
 374 597 l 1
 370 574 l 1
 352 560 l 1
 330 564 l 1
 316 582 l 1
415 427 m 1
 420 432 l 1
 424 439 l 1
 432 444 l 1
 440 446 l 1
 450 446 l 1
 460 443 l 1
 470 438 l 1
 479 431 l 1
 488 423 l 1
 496 413 l 1
 444 384 l 1
 442 393 l 1
 440 401 l 1
 438 407 l 1
 436 412 l 1
 436 416 l 1
 435 418 l 1
 434 422 l 1
 431 424 l 1
 426 424 l 1
 422 421 l 1
 415 427 l 1
438 380 m 1
 466 434 l 1
 480 416 l 1
 479 394 l 1
 462 379 l 1
 438 380 l 1
444 384 m 1
 496 413 l 1
 499 390 l 1
 485 372 l 1
 462 370 l 1
 444 384 l 1
EndSplineSet
Comment: "Kage: aj1-00353+AAoA-Alias: uf0161"
Colour: ffff00
EndChar
StartChar: uF0162
Encoding: 983394 983394 27
Width: 1000
VWidth: 0
Flags: MW
LayerCount: 2
Fore
SplineSet
48 424 m 1
 52 432 l 1
 68 424 l 1
 85 418 l 1
 100 408 l 1
 116 398 l 1
 130 386 l 1
 144 372 l 1
 156 358 l 1
 168 342 l 1
 180 324 l 1
 190 306 l 1
 136 282 l 1
 130 300 l 1
 123 316 l 1
 116 332 l 1
 108 346 l 1
 100 360 l 1
 92 374 l 1
 82 388 l 1
 72 400 l 1
 60 413 l 1
 48 424 l 1
68 29 m 1
 69 44 l 1
 68 60 l 1
 78 60 l 1
 80 46 l 1
 86 32 l 1
 92 22 l 1
 98 12 l 1
 104 5 l 1
 111 -0 l 1
 118 -4 l 1
 123 -6 l 1
 128 -6 l 1
 134 -6 l 1
 115 -64 l 1
 103 -56 l 1
 92 -46 l 1
 84 -36 l 1
 78 -24 l 1
 73 -12 l 1
 70 1 l 1
 68 14 l 1
 68 29 l 1
104 -4 m 1
 148 24 l 1
 190 58 l 1
 230 96 l 1
 268 138 l 1
 306 185 l 1
 342 236 l 1
 376 291 l 1
 408 350 l 1
 440 414 l 1
 470 482 l 1
 479 479 l 1
 458 407 l 1
 432 339 l 1
 404 276 l 1
 374 216 l 1
 340 160 l 1
 305 110 l 1
 267 62 l 1
 226 19 l 1
 183 -20 l 1
 137 -55 l 1
 104 -4 l 1
115 -64 m 1
 134 -6 l 1
 151 -22 l 1
 153 -44 l 1
 138 -62 l 1
 115 -64 l 1
116 628 m 1
 122 636 l 1
 137 628 l 1
 154 620 l 1
 169 610 l 1
 184 599 l 1
 198 586 l 1
 211 573 l 1
 224 558 l 1
 236 542 l 1
 248 524 l 1
 259 506 l 1
 204 482 l 1
 198 499 l 1
 191 516 l 1
 184 532 l 1
 176 547 l 1
 168 562 l 1
 158 576 l 1
 149 590 l 1
 139 604 l 1
 128 617 l 1
 116 628 l 1
136 282 m 1
 190 306 l 1
 190 283 l 1
 174 266 l 1
 152 266 l 1
 136 282 l 1
204 482 m 1
 259 506 l 1
 260 484 l 1
 244 466 l 1
 221 466 l 1
 204 482 l 1
EndSplineSet
Comment: "Kage: aj1-00354+AAoA-Alias: uf0162"
Colour: ffff00
EndChar
StartChar: uF0163
Encoding: 983395 983395 28
Width: 1000
VWidth: 0
Flags: MW
LayerCount: 2
Fore
SplineSet
7 -71 m 1
 50 -30 l 1
 90 14 l 1
 129 63 l 1
 166 116 l 1
 200 174 l 1
 232 236 l 1
 263 303 l 1
 291 375 l 1
 317 452 l 1
 341 534 l 1
 398 517 l 1
 371 434 l 1
 341 356 l 1
 308 282 l 1
 274 214 l 1
 236 152 l 1
 196 94 l 1
 154 42 l 1
 110 -4 l 1
 62 -44 l 1
 12 -78 l 1
 7 -71 l 1
7 -72 m 1
 49 -26 l 1
 89 22 l 1
 128 74 l 1
 164 128 l 1
 198 186 l 1
 231 248 l 1
 262 314 l 1
 290 384 l 1
 316 457 l 1
 341 534 l 1
 398 516 l 1
 370 438 l 1
 340 363 l 1
 307 292 l 1
 272 226 l 1
 235 164 l 1
 196 106 l 1
 154 53 l 1
 109 4 l 1
 62 -40 l 1
 12 -78 l 1
 7 -72 l 1
94 550 m 1
 94 562 l 1
 96 573 l 1
 98 584 l 1
 98 595 l 1
 108 595 l 1
 108 585 l 1
 113 576 l 1
 118 567 l 1
 123 560 l 1
 128 554 l 1
 134 548 l 1
 140 543 l 1
 146 539 l 1
 152 536 l 1
 158 533 l 1
 120 487 l 1
 112 496 l 1
 106 507 l 1
 102 518 l 1
 98 528 l 1
 96 540 l 1
 94 550 l 1
120 487 m 1
 158 533 l 1
 169 512 l 1
 162 490 l 1
 142 480 l 1
 120 487 l 1
130 540 m 1
 139 540 l 1
 152 540 l 1
 167 540 l 1
 185 542 l 1
 206 544 l 1
 230 546 l 1
 256 550 l 1
 284 553 l 1
 316 556 l 1
 350 560 l 1
 353 551 l 1
 320 539 l 1
 290 528 l 1
 262 519 l 1
 237 511 l 1
 214 504 l 1
 194 498 l 1
 176 492 l 1
 160 488 l 1
 147 484 l 1
 136 480 l 1
 130 540 l 1
211 511 m 1
 236 521 l 1
 258 532 l 1
 278 541 l 1
 295 549 l 1
 310 556 l 1
 323 561 l 1
 334 566 l 1
 344 568 l 1
 356 570 l 1
 376 562 l 1
 332 522 l 1
 346 515 l 1
 347 517 l 1
 341 518 l 1
 332 519 l 1
 319 519 l 1
 304 518 l 1
 285 516 l 1
 264 512 l 1
 240 509 l 1
 214 502 l 1
 211 511 l 1
274 238 m 1
 280 245 l 1
 306 226 l 1
 330 206 l 1
 352 182 l 1
 374 158 l 1
 394 132 l 1
 413 104 l 1
 431 75 l 1
 448 45 l 1
 464 13 l 1
 480 -20 l 1
 424 -42 l 1
 412 -10 l 1
 400 22 l 1
 387 52 l 1
 373 81 l 1
 358 109 l 1
 342 136 l 1
 326 162 l 1
 310 188 l 1
 292 214 l 1
 274 238 l 1
316 547 m 1
 323 554 l 1
 328 563 l 1
 337 570 l 1
 348 572 l 1
 360 571 l 1
 371 565 l 1
 380 556 l 1
 389 546 l 1
 397 532 l 1
 404 518 l 1
 346 502 l 1
 344 515 l 1
 344 525 l 1
 342 532 l 1
 342 538 l 1
 342 542 l 1
 342 544 l 1
 342 547 l 1
 336 548 l 1
 329 548 l 1
 322 541 l 1
 316 547 l 1
332 522 m 1
 376 562 l 1
 384 540 l 1
 374 519 l 1
 352 512 l 1
 332 522 l 1
346 502 m 1
 404 518 l 1
 400 495 l 1
 382 481 l 1
 360 484 l 1
 346 502 l 1
424 -42 m 1
 480 -20 l 1
 478 -43 l 1
 462 -59 l 1
 440 -58 l 1
 424 -42 l 1
EndSplineSet
Comment: "Kage: aj1-00355+AAoA-Alias: uf0163"
Colour: ffff00
EndChar
StartChar: uF0164
Encoding: 983396 983396 29
Width: 500
VWidth: 0
Flags: MW
LayerCount: 2
Fore
SplineSet
285 142 m 1
 303 175 l 1
 320 205 l 1
 336 233 l 1
 352 260 l 1
 367 286 l 1
 379 311 l 1
 391 336 l 1
 403 357 l 1
 412 379 l 1
 414 383 l 1
 412 384 l 1
 404 384 l 1
 392 385 l 1
 379 381 l 1
 361 377 l 1
 341 372 l 1
 317 364 l 1
 291 354 l 1
 261 341 l 1
 260 343 l 1
 224 325 l 1
 205 315 l 1
 205 75 l 1
 205 67 l 1
 206 60 l 1
 208 53 l 1
 210 45 l 1
 212 39 l 1
 213 31 l 1
 216 24 l 1
 223 20 l 1
 228 14 l 1
 230 11 l 1
 241 6 l 1
 254 -0 l 1
 271 -4 l 1
 288 -6 l 1
 310 -8 l 1
 334 -8 l 1
 360 -6 l 1
 387 -2 l 1
 420 2 l 1
 436 -3 l 1
 446 -17 l 1
 442 -35 l 1
 427 -45 l 1
 395 -50 l 1
 364 -54 l 1
 335 -56 l 1
 308 -56 l 1
 284 -54 l 1
 261 -51 l 1
 240 -46 l 1
 220 -39 l 1
 204 -29 l 1
 202 -28 l 1
 201 -28 l 1
 198 -25 l 1
 187 -14 l 1
 188 -13 l 1
 184 -11 l 1
 183 -7 l 1
 180 1 l 1
 175 11 l 1
 168 21 l 1
 164 31 l 1
 160 41 l 1
 158 52 l 1
 157 64 l 1
 157 75 l 1
 159 295 l 1
 153 291 l 1
 124 279 l 1
 99 268 l 1
 95 266 l 1
 96 262 l 1
 84 246 l 1
 66 244 l 1
 53 250 l 1
 41 258 l 1
 33 267 l 1
 25 278 l 1
 21 291 l 1
 17 303 l 1
 15 318 l 1
 15 332 l 1
 15 346 l 1
 15 363 l 1
 23 364 l 1
 25 348 l 1
 29 334 l 1
 35 323 l 1
 40 313 l 1
 46 306 l 1
 52 300 l 1
 54 298 l 1
 65 302 l 1
 85 307 l 1
 110 315 l 1
 139 326 l 1
 158 333 l 1
 158 590 l 1
 155 594 l 1
 152 602 l 1
 146 609 l 1
 142 616 l 1
 137 621 l 1
 132 626 l 1
 127 630 l 1
 119 631 l 1
 119 639 l 1
 128 639 l 1
 136 639 l 1
 146 639 l 1
 156 636 l 1
 165 631 l 1
 175 624 l 1
 184 617 l 1
 194 609 l 1
 203 599 l 1
 204 598 l 1
 205 596 l 1
 212 585 l 1
 214 567 l 1
 205 556 l 1
 203 349 l 1
 212 352 l 1
 255 369 l 1
 301 388 l 1
 353 409 l 1
 391 425 l 1
 402 432 l 1
 413 436 l 1
 424 437 l 1
 438 434 l 1
 449 427 l 1
 458 419 l 1
 467 406 l 1
 474 392 l 1
 472 374 l 1
 458 362 l 1
 453 363 l 1
 452 360 l 1
 440 338 l 1
 427 316 l 1
 412 292 l 1
 395 268 l 1
 378 245 l 1
 359 219 l 1
 338 192 l 1
 316 165 l 1
 291 137 l 1
 285 142 l 1
414 384 m 1
 414 383 l 1
 414 384 l 1
EndSplineSet
Comment: "Kage: aj1-00356+AAoA-Alias: uf0164"
EndChar
StartChar: uF0165
Encoding: 983397 983397 30
Width: 1000
VWidth: 0
Flags: MW
LayerCount: 2
Fore
SplineSet
66 584 m 1
 74 589 l 1
 90 572 l 1
 107 554 l 1
 122 534 l 1
 135 513 l 1
 148 492 l 1
 159 469 l 1
 170 446 l 1
 179 422 l 1
 188 396 l 1
 195 371 l 1
 136 358 l 1
 132 382 l 1
 128 406 l 1
 122 430 l 1
 116 452 l 1
 109 474 l 1
 102 496 l 1
 93 518 l 1
 84 540 l 1
 76 562 l 1
 66 584 l 1
68 -71 m 1
 116 -29 l 1
 160 17 l 1
 202 66 l 1
 240 121 l 1
 274 180 l 1
 304 243 l 1
 330 311 l 1
 353 384 l 1
 372 462 l 1
 388 546 l 1
 448 535 l 1
 428 449 l 1
 404 368 l 1
 377 294 l 1
 346 224 l 1
 310 158 l 1
 270 100 l 1
 227 46 l 1
 180 -2 l 1
 128 -44 l 1
 72 -78 l 1
 68 -71 l 1
68 -70 m 1
 116 -38 l 1
 160 2 l 1
 200 46 l 1
 236 97 l 1
 270 154 l 1
 300 218 l 1
 328 290 l 1
 351 368 l 1
 372 453 l 1
 388 546 l 1
 448 535 l 1
 427 440 l 1
 402 353 l 1
 374 272 l 1
 343 200 l 1
 307 134 l 1
 268 75 l 1
 224 24 l 1
 177 -18 l 1
 126 -53 l 1
 72 -79 l 1
 68 -70 l 1
136 358 m 1
 195 371 l 1
 190 349 l 1
 172 336 l 1
 150 340 l 1
 136 358 l 1
369 596 m 1
 369 604 l 1
 376 604 l 1
 385 605 l 1
 394 602 l 1
 404 597 l 1
 412 590 l 1
 420 580 l 1
 428 570 l 1
 436 557 l 1
 442 543 l 1
 449 527 l 1
 391 512 l 1
 390 527 l 1
 388 540 l 1
 386 552 l 1
 384 562 l 1
 382 570 l 1
 380 578 l 1
 378 584 l 1
 376 589 l 1
 374 594 l 1
 369 596 l 1
391 512 m 1
 449 527 l 1
 446 504 l 1
 428 490 l 1
 405 494 l 1
 391 512 l 1
EndSplineSet
Comment: "Kage: aj1-00357+AAoA-Alias: uf0165"
Colour: ffff00
EndChar
StartChar: uF0167
Encoding: 983399 983399 32
Width: 1000
VWidth: 0
Flags: MW
LayerCount: 2
Fore
SplineSet
12 342 m 1
 13 354 l 1
 16 368 l 1
 17 380 l 1
 26 380 l 1
 27 368 l 1
 32 357 l 1
 36 347 l 1
 42 339 l 1
 47 332 l 1
 52 326 l 1
 59 322 l 1
 65 318 l 1
 72 316 l 1
 78 314 l 1
 48 262 l 1
 38 272 l 1
 29 282 l 1
 22 294 l 1
 18 306 l 1
 14 318 l 1
 12 330 l 1
 12 342 l 1
48 262 m 1
 78 314 l 1
 92 295 l 1
 88 272 l 1
 70 259 l 1
 48 262 l 1
48 470 m 1
 84 480 l 1
 117 490 l 1
 150 501 l 1
 181 514 l 1
 211 528 l 1
 240 542 l 1
 268 559 l 1
 294 578 l 1
 320 597 l 1
 344 618 l 1
 383 572 l 1
 354 551 l 1
 324 532 l 1
 292 516 l 1
 260 500 l 1
 227 488 l 1
 193 478 l 1
 158 470 l 1
 123 464 l 1
 86 461 l 1
 49 461 l 1
 48 470 l 1
55 265 m 1
 55 325 l 1
 72 324 l 1
 94 324 l 1
 121 324 l 1
 152 324 l 1
 188 325 l 1
 228 326 l 1
 272 328 l 1
 321 331 l 1
 374 333 l 1
 432 334 l 1
 434 326 l 1
 376 314 l 1
 324 304 l 1
 276 296 l 1
 232 289 l 1
 192 283 l 1
 156 278 l 1
 124 274 l 1
 98 270 l 1
 74 267 l 1
 55 265 l 1
88 -122 m 1
 123 -79 l 1
 154 -37 l 1
 181 6 l 1
 204 52 l 1
 222 102 l 1
 236 158 l 1
 246 222 l 1
 251 294 l 1
 252 378 l 1
 250 474 l 1
 310 476 l 1
 310 378 l 1
 304 291 l 1
 295 214 l 1
 281 147 l 1
 262 88 l 1
 238 35 l 1
 208 -12 l 1
 175 -54 l 1
 137 -92 l 1
 94 -128 l 1
 88 -122 l 1
88 -121 m 1
 128 -88 l 1
 160 -52 l 1
 188 -13 l 1
 210 30 l 1
 227 80 l 1
 240 138 l 1
 248 206 l 1
 252 283 l 1
 253 372 l 1
 250 474 l 1
 310 476 l 1
 310 372 l 1
 306 280 l 1
 298 200 l 1
 285 129 l 1
 268 68 l 1
 244 14 l 1
 215 -32 l 1
 180 -70 l 1
 140 -102 l 1
 93 -128 l 1
 88 -121 l 1
242 300 m 1
 276 310 l 1
 308 318 l 1
 337 325 l 1
 363 330 l 1
 386 335 l 1
 406 338 l 1
 423 340 l 1
 438 342 l 1
 452 342 l 1
 466 339 l 1
 438 286 l 1
 440 286 l 1
 434 290 l 1
 422 292 l 1
 408 294 l 1
 388 294 l 1
 366 295 l 1
 340 294 l 1
 312 294 l 1
 279 294 l 1
 244 292 l 1
 242 300 l 1
242 505 m 1
 244 514 l 1
 249 512 l 1
 256 514 l 1
 262 514 l 1
 270 512 l 1
 277 509 l 1
 284 505 l 1
 291 500 l 1
 297 494 l 1
 303 487 l 1
 309 480 l 1
 252 459 l 1
 252 466 l 1
 253 471 l 1
 253 476 l 1
 252 481 l 1
 252 486 l 1
 252 490 l 1
 250 494 l 1
 249 499 l 1
 246 504 l 1
 242 505 l 1
252 459 m 1
 309 480 l 1
 308 456 l 1
 291 441 l 1
 268 442 l 1
 252 459 l 1
330 588 m 1
 336 598 l 1
 340 608 l 1
 342 616 l 1
 345 624 l 1
 346 630 l 1
 347 637 l 1
 347 644 l 1
 346 651 l 1
 342 658 l 1
 336 664 l 1
 340 672 l 1
 349 667 l 1
 358 663 l 1
 368 657 l 1
 375 648 l 1
 381 638 l 1
 386 627 l 1
 388 614 l 1
 390 601 l 1
 390 586 l 1
 388 571 l 1
 330 588 l 1
330 588 m 1
 388 571 l 1
 373 554 l 1
 350 551 l 1
 333 566 l 1
 330 588 l 1
415 332 m 1
 420 337 l 1
 424 344 l 1
 432 349 l 1
 440 352 l 1
 450 351 l 1
 460 348 l 1
 470 343 l 1
 479 336 l 1
 488 328 l 1
 496 318 l 1
 444 289 l 1
 442 298 l 1
 440 306 l 1
 438 312 l 1
 436 316 l 1
 436 320 l 1
 435 324 l 1
 434 326 l 1
 431 329 l 1
 426 330 l 1
 422 326 l 1
 415 332 l 1
438 286 m 1
 466 339 l 1
 480 321 l 1
 479 298 l 1
 462 284 l 1
 438 286 l 1
444 289 m 1
 496 318 l 1
 499 295 l 1
 485 277 l 1
 462 275 l 1
 444 289 l 1
EndSplineSet
Comment: "Kage: aj1-00359+AAoA-Alias: uf0167"
Colour: ffff00
EndChar
StartChar: uF0168
Encoding: 983400 983400 33
Width: 1000
VWidth: 0
Flags: MW
LayerCount: 2
Fore
SplineSet
34 554 m 1
 40 560 l 1
 55 546 l 1
 70 532 l 1
 82 516 l 1
 94 500 l 1
 106 481 l 1
 116 461 l 1
 125 440 l 1
 134 418 l 1
 141 394 l 1
 148 370 l 1
 88 360 l 1
 86 382 l 1
 82 404 l 1
 78 426 l 1
 74 446 l 1
 68 465 l 1
 62 484 l 1
 56 502 l 1
 49 520 l 1
 42 537 l 1
 34 554 l 1
88 -76 m 1
 136 -30 l 1
 180 20 l 1
 220 72 l 1
 258 127 l 1
 292 186 l 1
 323 248 l 1
 350 314 l 1
 374 385 l 1
 395 458 l 1
 412 536 l 1
 471 524 l 1
 450 444 l 1
 426 368 l 1
 397 296 l 1
 364 228 l 1
 329 164 l 1
 290 106 l 1
 246 51 l 1
 199 1 l 1
 148 -44 l 1
 94 -84 l 1
 88 -76 l 1
88 360 m 1
 148 370 l 1
 142 348 l 1
 124 336 l 1
 101 340 l 1
 88 360 l 1
88 -76 m 1
 134 -39 l 1
 175 2 l 1
 214 48 l 1
 251 100 l 1
 284 158 l 1
 316 222 l 1
 344 292 l 1
 370 367 l 1
 392 449 l 1
 412 536 l 1
 471 524 l 1
 448 434 l 1
 420 350 l 1
 390 273 l 1
 358 202 l 1
 322 137 l 1
 282 79 l 1
 240 28 l 1
 194 -17 l 1
 145 -54 l 1
 93 -84 l 1
 88 -76 l 1
174 618 m 1
 182 624 l 1
 196 612 l 1
 210 598 l 1
 224 582 l 1
 236 566 l 1
 246 548 l 1
 257 528 l 1
 266 508 l 1
 274 486 l 1
 282 464 l 1
 288 440 l 1
 230 430 l 1
 227 452 l 1
 224 472 l 1
 220 492 l 1
 215 512 l 1
 210 531 l 1
 204 550 l 1
 198 568 l 1
 190 584 l 1
 183 602 l 1
 174 618 l 1
230 430 m 1
 288 440 l 1
 284 418 l 1
 264 406 l 1
 242 410 l 1
 230 430 l 1
393 590 m 1
 393 600 l 1
 400 600 l 1
 409 600 l 1
 418 597 l 1
 428 592 l 1
 436 584 l 1
 444 576 l 1
 452 564 l 1
 460 552 l 1
 466 538 l 1
 473 522 l 1
 415 508 l 1
 414 522 l 1
 412 536 l 1
 410 547 l 1
 408 557 l 1
 406 566 l 1
 404 572 l 1
 402 579 l 1
 400 584 l 1
 398 590 l 1
 393 590 l 1
415 508 m 1
 473 522 l 1
 470 500 l 1
 452 486 l 1
 429 490 l 1
 415 508 l 1
EndSplineSet
Comment: "Kage: aj1-00360+AAoA-Alias: uf0168"
Colour: ffff00
EndChar
StartChar: uF0169
Encoding: 983401 983401 34
Width: 1000
VWidth: 0
Flags: MW
LayerCount: 2
Fore
SplineSet
12 417 m 1
 13 430 l 1
 16 442 l 1
 17 456 l 1
 26 455 l 1
 27 443 l 1
 32 432 l 1
 36 422 l 1
 42 414 l 1
 47 407 l 1
 52 402 l 1
 59 397 l 1
 65 394 l 1
 72 391 l 1
 78 388 l 1
 48 338 l 1
 38 347 l 1
 29 358 l 1
 22 368 l 1
 18 380 l 1
 14 392 l 1
 12 404 l 1
 12 417 l 1
48 338 m 1
 78 388 l 1
 92 370 l 1
 88 348 l 1
 70 334 l 1
 48 338 l 1
55 340 m 1
 55 400 l 1
 72 399 l 1
 94 398 l 1
 121 398 l 1
 152 399 l 1
 188 400 l 1
 228 402 l 1
 272 404 l 1
 321 406 l 1
 374 408 l 1
 432 410 l 1
 434 401 l 1
 376 389 l 1
 324 380 l 1
 276 371 l 1
 232 364 l 1
 192 358 l 1
 156 352 l 1
 124 348 l 1
 98 345 l 1
 74 342 l 1
 55 340 l 1
70 -112 m 1
 100 -75 l 1
 128 -37 l 1
 152 2 l 1
 174 43 l 1
 193 86 l 1
 208 132 l 1
 221 180 l 1
 230 230 l 1
 238 282 l 1
 241 337 l 1
 300 334 l 1
 294 275 l 1
 284 220 l 1
 270 166 l 1
 252 116 l 1
 232 69 l 1
 208 25 l 1
 180 -16 l 1
 149 -54 l 1
 114 -88 l 1
 76 -118 l 1
 70 -112 l 1
70 -111 m 1
 102 -82 l 1
 130 -50 l 1
 154 -14 l 1
 176 24 l 1
 194 66 l 1
 210 112 l 1
 222 162 l 1
 232 216 l 1
 238 274 l 1
 241 336 l 1
 300 334 l 1
 294 268 l 1
 284 207 l 1
 271 150 l 1
 254 98 l 1
 233 49 l 1
 209 6 l 1
 180 -34 l 1
 149 -68 l 1
 114 -96 l 1
 75 -118 l 1
 70 -111 l 1
88 617 m 1
 90 628 l 1
 92 639 l 1
 92 650 l 1
 101 650 l 1
 102 640 l 1
 107 630 l 1
 112 622 l 1
 116 616 l 1
 122 610 l 1
 128 604 l 1
 133 601 l 1
 138 598 l 1
 144 595 l 1
 150 594 l 1
 115 545 l 1
 108 554 l 1
 101 564 l 1
 96 574 l 1
 92 584 l 1
 90 596 l 1
 88 606 l 1
 88 617 l 1
115 545 m 1
 150 594 l 1
 162 574 l 1
 157 552 l 1
 137 540 l 1
 115 545 l 1
124 600 m 1
 133 600 l 1
 146 600 l 1
 161 600 l 1
 179 602 l 1
 200 603 l 1
 222 605 l 1
 248 607 l 1
 277 610 l 1
 308 612 l 1
 342 614 l 1
 344 606 l 1
 312 595 l 1
 282 586 l 1
 254 576 l 1
 230 569 l 1
 207 562 l 1
 187 556 l 1
 169 552 l 1
 154 547 l 1
 141 544 l 1
 130 540 l 1
 124 600 l 1
214 576 m 1
 240 584 l 1
 263 594 l 1
 284 602 l 1
 302 608 l 1
 318 614 l 1
 332 619 l 1
 344 623 l 1
 354 626 l 1
 364 628 l 1
 377 628 l 1
 358 572 l 1
 362 572 l 1
 358 574 l 1
 350 576 l 1
 339 576 l 1
 325 576 l 1
 308 576 l 1
 290 575 l 1
 268 573 l 1
 243 572 l 1
 216 567 l 1
 214 576 l 1
238 360 m 1
 240 368 l 1
 246 368 l 1
 252 368 l 1
 258 366 l 1
 266 364 l 1
 272 360 l 1
 278 354 l 1
 285 348 l 1
 291 342 l 1
 297 333 l 1
 303 324 l 1
 246 304 l 1
 246 313 l 1
 246 321 l 1
 245 328 l 1
 244 334 l 1
 244 340 l 1
 244 345 l 1
 243 350 l 1
 242 354 l 1
 242 358 l 1
 238 360 l 1
242 376 m 1
 276 384 l 1
 308 393 l 1
 337 400 l 1
 363 406 l 1
 386 410 l 1
 406 414 l 1
 423 416 l 1
 438 417 l 1
 452 417 l 1
 466 414 l 1
 438 360 l 1
 440 362 l 1
 434 364 l 1
 422 366 l 1
 408 368 l 1
 388 370 l 1
 366 370 l 1
 340 370 l 1
 312 369 l 1
 279 368 l 1
 244 366 l 1
 242 376 l 1
246 304 m 1
 303 324 l 1
 302 302 l 1
 284 286 l 1
 262 288 l 1
 246 304 l 1
320 602 m 1
 327 610 l 1
 331 620 l 1
 338 628 l 1
 346 634 l 1
 357 638 l 1
 369 638 l 1
 380 634 l 1
 392 628 l 1
 402 619 l 1
 412 608 l 1
 360 578 l 1
 358 586 l 1
 356 592 l 1
 354 598 l 1
 354 601 l 1
 354 604 l 1
 352 606 l 1
 348 608 l 1
 342 608 l 1
 334 604 l 1
 328 597 l 1
 320 602 l 1
358 572 m 1
 377 628 l 1
 394 614 l 1
 396 590 l 1
 381 574 l 1
 358 572 l 1
360 578 m 1
 412 608 l 1
 415 586 l 1
 402 568 l 1
 379 564 l 1
 360 578 l 1
415 407 m 1
 420 412 l 1
 424 419 l 1
 432 424 l 1
 440 426 l 1
 450 426 l 1
 460 423 l 1
 470 418 l 1
 479 411 l 1
 488 403 l 1
 496 393 l 1
 444 364 l 1
 442 373 l 1
 440 381 l 1
 438 387 l 1
 436 392 l 1
 436 396 l 1
 435 398 l 1
 434 402 l 1
 431 404 l 1
 426 404 l 1
 422 401 l 1
 415 407 l 1
438 360 m 1
 466 414 l 1
 480 396 l 1
 479 374 l 1
 462 359 l 1
 438 360 l 1
444 364 m 1
 496 393 l 1
 499 370 l 1
 485 352 l 1
 462 350 l 1
 444 364 l 1
EndSplineSet
Comment: "Kage: aj1-00361+AAoA-Alias: uf0169"
Colour: ffff00
EndChar
StartChar: uF016A
Encoding: 983402 983402 35
Width: 1000
VWidth: 0
Flags: MW
LayerCount: 2
Fore
SplineSet
150 676 m 1
 150 684 l 1
 157 684 l 1
 165 686 l 1
 174 685 l 1
 183 682 l 1
 192 677 l 1
 201 670 l 1
 210 662 l 1
 218 653 l 1
 226 642 l 1
 233 630 l 1
 178 608 l 1
 175 620 l 1
 173 630 l 1
 170 638 l 1
 168 646 l 1
 166 653 l 1
 164 659 l 1
 162 664 l 1
 158 670 l 1
 155 674 l 1
 150 676 l 1
166 482 m 1
 166 540 l 1
 166 592 l 1
 166 640 l 1
 226 640 l 1
 226 592 l 1
 226 540 l 1
 226 482 l 1
 226 418 l 1
 226 349 l 1
 226 275 l 1
 226 196 l 1
 226 110 l 1
 226 20 l 1
 226 -75 l 1
 166 -75 l 1
 166 20 l 1
 166 110 l 1
 166 196 l 1
 166 275 l 1
 166 349 l 1
 166 418 l 1
 166 482 l 1
166 -75 m 1
 226 -75 l 1
 217 -96 l 1
 196 -105 l 1
 175 -96 l 1
 166 -75 l 1
178 608 m 1
 233 630 l 1
 232 608 l 1
 216 592 l 1
 194 592 l 1
 178 608 l 1
208 354 m 1
 211 363 l 1
 232 359 l 1
 254 354 l 1
 275 345 l 1
 296 334 l 1
 316 321 l 1
 335 306 l 1
 354 290 l 1
 372 271 l 1
 388 251 l 1
 406 229 l 1
 354 197 l 1
 342 218 l 1
 330 238 l 1
 316 257 l 1
 303 274 l 1
 289 290 l 1
 274 304 l 1
 258 318 l 1
 242 331 l 1
 226 344 l 1
 208 354 l 1
354 197 m 1
 406 229 l 1
 408 206 l 1
 396 188 l 1
 373 184 l 1
 354 197 l 1
EndSplineSet
Comment: "Kage: aj1-00362+AAoA-Alias: uf016a"
Colour: ffff00
EndChar
StartChar: uF016B
Encoding: 983403 983403 36
Width: 1000
VWidth: 0
Flags: MW
LayerCount: 2
Fore
SplineSet
12 427 m 1
 13 440 l 1
 16 452 l 1
 17 466 l 1
 26 465 l 1
 27 453 l 1
 32 442 l 1
 36 432 l 1
 42 424 l 1
 47 417 l 1
 52 412 l 1
 59 407 l 1
 65 404 l 1
 72 401 l 1
 78 398 l 1
 48 348 l 1
 38 357 l 1
 29 368 l 1
 22 378 l 1
 18 390 l 1
 14 402 l 1
 12 414 l 1
 12 427 l 1
48 348 m 1
 78 398 l 1
 92 380 l 1
 88 358 l 1
 70 344 l 1
 48 348 l 1
55 350 m 1
 55 410 l 1
 72 409 l 1
 94 408 l 1
 121 408 l 1
 152 409 l 1
 188 410 l 1
 228 412 l 1
 272 414 l 1
 321 416 l 1
 374 418 l 1
 432 420 l 1
 434 411 l 1
 376 399 l 1
 324 390 l 1
 276 381 l 1
 232 374 l 1
 192 368 l 1
 156 362 l 1
 124 358 l 1
 98 355 l 1
 74 352 l 1
 55 350 l 1
78 -116 m 1
 120 -66 l 1
 154 -18 l 1
 182 31 l 1
 204 84 l 1
 220 142 l 1
 232 211 l 1
 240 291 l 1
 244 386 l 1
 245 498 l 1
 244 630 l 1
 304 630 l 1
 302 498 l 1
 298 384 l 1
 290 287 l 1
 278 204 l 1
 262 132 l 1
 239 70 l 1
 211 15 l 1
 176 -34 l 1
 134 -79 l 1
 85 -123 l 1
 78 -116 l 1
80 -116 m 1
 124 -77 l 1
 160 -36 l 1
 188 8 l 1
 210 58 l 1
 226 118 l 1
 236 188 l 1
 244 274 l 1
 246 374 l 1
 246 492 l 1
 244 630 l 1
 304 630 l 1
 303 492 l 1
 300 372 l 1
 294 270 l 1
 283 182 l 1
 267 108 l 1
 245 44 l 1
 216 -9 l 1
 180 -54 l 1
 136 -92 l 1
 84 -124 l 1
 80 -116 l 1
219 670 m 1
 219 680 l 1
 226 680 l 1
 234 681 l 1
 244 680 l 1
 252 677 l 1
 262 672 l 1
 271 666 l 1
 280 658 l 1
 289 649 l 1
 298 638 l 1
 306 627 l 1
 252 601 l 1
 249 612 l 1
 246 623 l 1
 242 632 l 1
 240 640 l 1
 237 648 l 1
 234 654 l 1
 231 660 l 1
 228 664 l 1
 224 670 l 1
 219 670 l 1
242 386 m 1
 276 394 l 1
 308 403 l 1
 337 410 l 1
 363 416 l 1
 386 420 l 1
 406 424 l 1
 423 426 l 1
 438 427 l 1
 452 427 l 1
 466 424 l 1
 438 370 l 1
 440 372 l 1
 434 374 l 1
 422 376 l 1
 408 378 l 1
 388 380 l 1
 366 380 l 1
 340 380 l 1
 312 379 l 1
 279 378 l 1
 244 376 l 1
 242 386 l 1
252 601 m 1
 306 627 l 1
 308 604 l 1
 292 586 l 1
 270 586 l 1
 252 601 l 1
415 417 m 1
 420 422 l 1
 424 429 l 1
 432 434 l 1
 440 436 l 1
 450 436 l 1
 460 433 l 1
 470 428 l 1
 479 421 l 1
 488 413 l 1
 496 403 l 1
 444 374 l 1
 442 383 l 1
 440 391 l 1
 438 397 l 1
 436 402 l 1
 436 406 l 1
 435 408 l 1
 434 412 l 1
 431 414 l 1
 426 414 l 1
 422 411 l 1
 415 417 l 1
438 370 m 1
 466 424 l 1
 480 406 l 1
 479 384 l 1
 462 369 l 1
 438 370 l 1
444 374 m 1
 496 403 l 1
 499 380 l 1
 485 362 l 1
 462 360 l 1
 444 374 l 1
EndSplineSet
Comment: "Kage: aj1-00363+AAoA-Alias: uf016b"
Colour: ffff00
EndChar
StartChar: uF016C
Encoding: 983404 983404 37
Width: 500
VWidth: 0
Flags: MW
LayerCount: 2
Fore
SplineSet
15 156 m 1
 17 170 l 1
 17 184 l 1
 25 183 l 1
 27 170 l 1
 29 158 l 1
 34 149 l 1
 40 139 l 1
 44 131 l 1
 50 124 l 1
 57 119 l 1
 58 118 l 1
 72 119 l 1
 95 118 l 1
 122 118 l 1
 153 119 l 1
 188 121 l 1
 228 122 l 1
 273 127 l 1
 322 129 l 1
 375 133 l 1
 417 136 l 1
 416 137 l 1
 421 144 l 1
 430 148 l 1
 440 151 l 1
 449 149 l 1
 459 145 l 1
 469 140 l 1
 477 131 l 1
 485 123 l 1
 494 110 l 1
 497 93 l 1
 484 78 l 1
 467 76 l 1
 453 88 l 1
 446 88 l 1
 443 90 l 1
 435 91 l 1
 423 93 l 1
 408 97 l 1
 388 97 l 1
 366 97 l 1
 339 96 l 1
 310 95 l 1
 277 93 l 1
 237 89 l 1
 238 95 l 1
 231 94 l 1
 191 87 l 1
 156 83 l 1
 124 79 l 1
 97 75 l 1
 88 74 l 1
 88 73 l 1
 73 61 l 1
 55 64 l 1
 43 74 l 1
 35 83 l 1
 27 95 l 1
 22 107 l 1
 18 119 l 1
 16 132 l 1
 14 144 l 1
 15 156 l 1
90 479 m 1
 91 490 l 1
 93 502 l 1
 93 513 l 1
 101 513 l 1
 101 502 l 1
 105 492 l 1
 110 483 l 1
 114 475 l 1
 120 470 l 1
 125 463 l 1
 130 458 l 1
 136 454 l 1
 147 455 l 1
 162 455 l 1
 180 457 l 1
 201 459 l 1
 224 462 l 1
 250 465 l 1
 278 469 l 1
 308 472 l 1
 327 474 l 1
 328 479 l 1
 336 488 l 1
 345 492 l 1
 357 495 l 1
 369 495 l 1
 380 490 l 1
 391 482 l 1
 399 473 l 1
 410 461 l 1
 413 443 l 1
 401 428 l 1
 383 426 l 1
 369 435 l 1
 369 437 l 1
 365 435 l 1
 359 437 l 1
 351 438 l 1
 339 439 l 1
 324 439 l 1
 308 438 l 1
 288 435 l 1
 266 433 l 1
 241 430 l 1
 212 425 l 1
 211 429 l 1
 207 427 l 1
 187 421 l 1
 169 417 l 1
 157 413 l 1
 157 411 l 1
 141 401 l 1
 123 406 l 1
 113 415 l 1
 107 426 l 1
 101 435 l 1
 97 446 l 1
 94 457 l 1
 92 468 l 1
 90 479 l 1
EndSplineSet
Comment: "Kage: aj1-00364+AAoA-Alias: uf016c"
EndChar
StartChar: uF016D
Encoding: 983405 983405 38
Width: 500
VWidth: 0
Flags: MW
LayerCount: 2
Fore
SplineSet
129 386 m 1
 134 393 l 1
 169 372 l 1
 201 348 l 1
 233 322 l 1
 264 293 l 1
 279 276 l 1
 292 312 l 1
 320 385 l 1
 345 463 l 1
 367 540 l 1
 366 541 l 1
 365 540 l 1
 357 542 l 1
 345 543 l 1
 330 543 l 1
 314 541 l 1
 294 539 l 1
 275 535 l 1
 248 530 l 1
 247 536 l 1
 240 534 l 1
 215 526 l 1
 193 520 l 1
 175 515 l 1
 165 511 l 1
 162 501 l 1
 145 492 l 1
 127 498 l 1
 118 508 l 1
 110 519 l 1
 104 530 l 1
 99 541 l 1
 96 553 l 1
 92 563 l 1
 91 575 l 1
 91 586 l 1
 93 597 l 1
 93 609 l 1
 101 609 l 1
 102 598 l 1
 105 589 l 1
 111 581 l 1
 116 573 l 1
 121 565 l 1
 127 559 l 1
 134 552 l 1
 138 550 l 1
 149 553 l 1
 166 553 l 1
 186 556 l 1
 208 559 l 1
 234 562 l 1
 262 567 l 1
 294 572 l 1
 328 577 l 1
 352 581 l 1
 358 589 l 1
 369 596 l 1
 381 596 l 1
 393 590 l 1
 401 581 l 1
 410 570 l 1
 416 558 l 1
 424 541 l 1
 422 524 l 1
 407 511 l 1
 407 512 l 1
 390 445 l 1
 364 361 l 1
 334 282 l 1
 313 238 l 1
 323 226 l 1
 349 188 l 1
 375 148 l 1
 399 105 l 1
 424 59 l 1
 424 40 l 1
 412 27 l 1
 392 26 l 1
 381 39 l 1
 360 84 l 1
 338 126 l 1
 315 166 l 1
 294 201 l 1
 265 144 l 1
 225 84 l 1
 182 30 l 1
 137 -18 l 1
 87 -59 l 1
 36 -93 l 1
 31 -88 l 1
 76 -42 l 1
 118 8 l 1
 157 60 l 1
 195 116 l 1
 231 176 l 1
 262 242 l 1
 263 243 l 1
 242 272 l 1
 215 304 l 1
 188 333 l 1
 159 360 l 1
 129 386 l 1
367 545 m 1
 368 546 l 1
 367 545 l 1
EndSplineSet
Comment: "Kage: aj1-00365+AAoA-Alias: uf016d"
EndChar
StartChar: uF016E
Encoding: 983406 983406 39
Width: 500
VWidth: 0
Flags: MW
LayerCount: 2
Fore
SplineSet
177 696 m 1
 182 703 l 1
 195 695 l 1
 207 687 l 1
 219 677 l 1
 231 666 l 1
 242 654 l 1
 252 639 l 1
 263 624 l 1
 273 606 l 1
 281 587 l 1
 290 567 l 1
 290 549 l 1
 275 536 l 1
 256 538 l 1
 244 552 l 1
 240 571 l 1
 235 589 l 1
 229 607 l 1
 222 623 l 1
 216 637 l 1
 209 651 l 1
 202 663 l 1
 195 675 l 1
 187 686 l 1
 177 696 l 1
293 262 m 1
 294 269 l 1
 312 266 l 1
 331 261 l 1
 349 254 l 1
 367 245 l 1
 384 233 l 1
 400 218 l 1
 416 202 l 1
 432 184 l 1
 447 163 l 1
 462 139 l 1
 463 122 l 1
 452 108 l 1
 433 106 l 1
 419 118 l 1
 409 140 l 1
 397 160 l 1
 385 178 l 1
 374 194 l 1
 362 210 l 1
 349 222 l 1
 337 235 l 1
 323 245 l 1
 308 254 l 1
 293 262 l 1
320 509 m 1
 330 515 l 1
 334 522 l 1
 343 524 l 1
 352 523 l 1
 361 518 l 1
 369 511 l 1
 376 503 l 1
 384 493 l 1
 390 481 l 1
 396 467 l 1
 394 448 l 1
 379 436 l 1
 375 437 l 1
 357 411 l 1
 323 367 l 1
 288 325 l 1
 252 285 l 1
 238 272 l 1
 240 271 l 1
 248 269 l 1
 254 265 l 1
 261 259 l 1
 267 254 l 1
 270 249 l 1
 273 248 l 1
 274 243 l 1
 278 238 l 1
 277 220 l 1
 274 217 l 1
 274 213 l 1
 274 190 l 1
 274 164 l 1
 274 132 l 1
 274 98 l 1
 274 58 l 1
 274 15 l 1
 274 -33 l 1
 274 -86 l 1
 267 -102 l 1
 250 -109 l 1
 233 -102 l 1
 226 -86 l 1
 226 -33 l 1
 226 15 l 1
 226 58 l 1
 226 98 l 1
 226 132 l 1
 226 164 l 1
 226 190 l 1
 226 213 l 1
 226 231 l 1
 227 248 l 1
 228 247 l 1
 228 248 l 1
 226 253 l 1
 222 257 l 1
 222 256 l 1
 214 247 l 1
 177 212 l 1
 137 178 l 1
 98 147 l 1
 57 118 l 1
 14 92 l 1
 10 98 l 1
 47 130 l 1
 85 163 l 1
 121 198 l 1
 156 234 l 1
 190 271 l 1
 224 310 l 1
 256 350 l 1
 289 393 l 1
 319 437 l 1
 340 468 l 1
 337 468 l 1
 330 470 l 1
 318 470 l 1
 304 470 l 1
 288 465 l 1
 269 462 l 1
 247 457 l 1
 223 453 l 1
 221 458 l 1
 201 452 l 1
 179 447 l 1
 160 442 l 1
 156 440 l 1
 153 431 l 1
 136 423 l 1
 120 428 l 1
 109 439 l 1
 101 450 l 1
 95 460 l 1
 89 473 l 1
 85 483 l 1
 84 496 l 1
 82 508 l 1
 83 520 l 1
 83 531 l 1
 84 543 l 1
 92 543 l 1
 93 532 l 1
 97 522 l 1
 102 513 l 1
 107 505 l 1
 112 496 l 1
 118 490 l 1
 125 482 l 1
 129 480 l 1
 138 480 l 1
 153 481 l 1
 172 483 l 1
 194 486 l 1
 220 488 l 1
 250 493 l 1
 284 497 l 1
 314 500 l 1
 325 504 l 1
 326 504 l 1
 320 509 l 1
337 506 m 2
 338 504 l 1
 337 506 l 2
335 507 m 1
 333 507 l 1
 331 506 l 1
 335 507 l 1
EndSplineSet
Comment: "Kage: aj1-00366+AAoA-Alias: uf016e"
EndChar
StartChar: uF016F
Encoding: 983407 983407 40
Width: 500
VWidth: 0
Flags: MW
LayerCount: 2
Fore
SplineSet
339 621 m 1
 339 629 l 1
 348 629 l 1
 357 629 l 1
 367 626 l 1
 377 620 l 1
 386 613 l 1
 394 604 l 1
 403 592 l 1
 410 578 l 1
 414 569 l 1
 416 568 l 1
 416 565 l 1
 418 563 l 1
 424 545 l 1
 421 528 l 1
 406 516 l 1
 402 518 l 1
 392 475 l 1
 365 390 l 1
 334 311 l 1
 300 236 l 1
 263 168 l 1
 225 105 l 1
 182 48 l 1
 136 -4 l 1
 87 -49 l 1
 36 -88 l 1
 31 -82 l 1
 78 -29 l 1
 122 28 l 1
 163 86 l 1
 201 146 l 1
 237 210 l 1
 270 278 l 1
 300 347 l 1
 326 420 l 1
 350 497 l 1
 370 572 l 1
 369 576 l 1
 365 587 l 1
 362 596 l 1
 358 603 l 1
 355 610 l 1
 351 615 l 1
 346 620 l 1
 339 621 l 1
EndSplineSet
Comment: "Kage: aj1-00367+AAoA-Alias: uf016f"
EndChar
StartChar: uF0170
Encoding: 983408 983408 41
Width: 500
VWidth: 0
Flags: MW
LayerCount: 2
Fore
SplineSet
136 512 m 1
 139 519 l 1
 148 515 l 1
 159 512 l 1
 168 507 l 1
 178 500 l 1
 186 492 l 1
 192 480 l 1
 200 468 l 1
 205 455 l 1
 209 444 l 1
 215 442 l 1
 213 432 l 1
 216 423 l 1
 210 406 l 1
 203 402 l 1
 200 392 l 1
 183 347 l 1
 165 303 l 1
 147 261 l 1
 125 221 l 1
 103 181 l 1
 80 144 l 1
 53 108 l 1
 27 74 l 1
 -3 43 l 1
 -9 47 l 1
 15 83 l 1
 36 120 l 1
 56 157 l 1
 76 195 l 1
 95 235 l 1
 112 276 l 1
 129 318 l 1
 144 361 l 1
 158 405 l 1
 167 438 l 1
 167 446 l 1
 165 457 l 1
 162 467 l 1
 160 477 l 1
 157 485 l 1
 153 493 l 1
 149 500 l 1
 144 507 l 1
 136 512 l 1
297 492 m 1
 302 497 l 1
 327 475 l 1
 349 451 l 1
 372 421 l 1
 392 389 l 1
 413 354 l 1
 431 315 l 1
 447 274 l 1
 463 229 l 1
 478 181 l 1
 493 130 l 1
 489 112 l 1
 475 103 l 1
 457 105 l 1
 447 118 l 1
 435 169 l 1
 423 217 l 1
 410 261 l 1
 396 302 l 1
 381 341 l 1
 366 375 l 1
 350 408 l 1
 332 438 l 1
 315 465 l 1
 297 492 l 1
EndSplineSet
Comment: "Kage: aj1-00368+AAoA-Alias: uf0170"
EndChar
StartChar: uF0171
Encoding: 983409 983409 42
Width: 500
VWidth: 0
Flags: MW
LayerCount: 2
Fore
SplineSet
349 502 m 1
 352 508 l 1
 362 505 l 1
 373 501 l 1
 383 496 l 1
 393 490 l 1
 401 480 l 1
 408 471 l 1
 415 459 l 1
 422 446 l 1
 426 433 l 1
 429 416 l 1
 423 399 l 1
 406 392 l 1
 393 396 l 1
 384 389 l 1
 360 373 l 1
 334 357 l 1
 307 343 l 1
 279 330 l 1
 251 316 l 1
 222 304 l 1
 192 294 l 1
 160 285 l 1
 150 280 l 1
 151 85 l 1
 151 77 l 1
 152 70 l 1
 154 63 l 1
 156 55 l 1
 158 49 l 1
 161 42 l 1
 165 36 l 1
 169 30 l 1
 174 24 l 1
 176 21 l 1
 188 16 l 1
 203 10 l 1
 223 6 l 1
 246 4 l 1
 273 2 l 1
 303 3 l 1
 337 4 l 1
 374 8 l 1
 414 12 l 1
 432 7 l 1
 440 -7 l 1
 435 -25 l 1
 421 -35 l 1
 378 -40 l 1
 340 -44 l 1
 304 -45 l 1
 272 -46 l 1
 242 -44 l 1
 215 -41 l 1
 191 -36 l 1
 169 -29 l 1
 151 -19 l 1
 149 -18 l 1
 147 -18 l 1
 142 -13 l 1
 133 -4 l 1
 134 -3 l 1
 130 -1 l 1
 129 3 l 1
 125 10 l 1
 118 20 l 1
 114 31 l 1
 110 41 l 1
 106 51 l 1
 104 62 l 1
 103 74 l 1
 103 85 l 1
 104 593 l 1
 108 592 l 1
 106 596 l 1
 102 603 l 1
 98 609 l 1
 92 614 l 1
 86 619 l 1
 77 621 l 1
 77 629 l 1
 88 628 l 1
 98 627 l 1
 109 626 l 1
 118 621 l 1
 128 615 l 1
 137 609 l 1
 145 598 l 1
 148 594 l 1
 150 593 l 1
 151 590 l 1
 152 588 l 1
 160 576 l 1
 166 561 l 1
 164 543 l 1
 150 533 l 1
 149 297 l 1
 154 299 l 1
 183 314 l 1
 211 328 l 1
 237 343 l 1
 264 358 l 1
 288 375 l 1
 312 391 l 1
 336 409 l 1
 358 426 l 1
 381 445 l 1
 381 448 l 1
 379 457 l 1
 376 465 l 1
 373 473 l 1
 368 481 l 1
 364 489 l 1
 357 496 l 1
 349 502 l 1
EndSplineSet
Comment: "Kage: aj1-00369+AAoA-Alias: uf0171"
EndChar
StartChar: uF0172
Encoding: 983410 983410 43
Width: 1000
VWidth: 0
Flags: MW
LayerCount: 2
Fore
SplineSet
58 544 m 1
 60 556 l 1
 62 568 l 1
 62 580 l 1
 72 580 l 1
 72 569 l 1
 78 559 l 1
 82 550 l 1
 88 542 l 1
 93 536 l 1
 99 531 l 1
 105 526 l 1
 112 524 l 1
 118 520 l 1
 124 518 l 1
 92 468 l 1
 83 478 l 1
 75 488 l 1
 69 498 l 1
 64 510 l 1
 61 521 l 1
 59 532 l 1
 58 544 l 1
85 -86 m 1
 130 -40 l 1
 172 9 l 1
 210 60 l 1
 245 116 l 1
 277 174 l 1
 306 236 l 1
 330 302 l 1
 352 371 l 1
 370 444 l 1
 386 521 l 1
 444 510 l 1
 426 430 l 1
 404 355 l 1
 378 284 l 1
 348 217 l 1
 314 154 l 1
 277 95 l 1
 236 41 l 1
 192 -9 l 1
 143 -54 l 1
 90 -93 l 1
 85 -86 l 1
86 -86 m 1
 130 -48 l 1
 172 -6 l 1
 210 40 l 1
 245 92 l 1
 277 149 l 1
 305 212 l 1
 330 280 l 1
 352 354 l 1
 370 434 l 1
 385 520 l 1
 444 510 l 1
 426 422 l 1
 404 340 l 1
 378 264 l 1
 348 193 l 1
 314 129 l 1
 277 71 l 1
 236 20 l 1
 191 -26 l 1
 142 -64 l 1
 90 -94 l 1
 86 -86 l 1
92 468 m 1
 124 518 l 1
 137 500 l 1
 134 477 l 1
 114 464 l 1
 92 468 l 1
96 524 m 1
 110 526 l 1
 128 528 l 1
 148 531 l 1
 172 534 l 1
 200 538 l 1
 230 541 l 1
 264 544 l 1
 302 548 l 1
 342 552 l 1
 387 554 l 1
 388 546 l 1
 346 533 l 1
 307 522 l 1
 270 512 l 1
 238 504 l 1
 208 496 l 1
 182 488 l 1
 158 482 l 1
 139 476 l 1
 122 471 l 1
 110 466 l 1
 96 524 l 1
232 511 m 1
 259 520 l 1
 283 530 l 1
 305 539 l 1
 324 546 l 1
 342 552 l 1
 358 556 l 1
 372 560 l 1
 384 562 l 1
 396 562 l 1
 412 558 l 1
 380 508 l 1
 384 508 l 1
 382 510 l 1
 374 512 l 1
 363 513 l 1
 348 514 l 1
 331 513 l 1
 311 512 l 1
 288 510 l 1
 262 507 l 1
 235 502 l 1
 232 511 l 1
361 547 m 1
 370 554 l 1
 376 563 l 1
 385 569 l 1
 396 572 l 1
 409 569 l 1
 420 562 l 1
 430 553 l 1
 438 541 l 1
 444 527 l 1
 450 510 l 1
 392 500 l 1
 391 513 l 1
 390 524 l 1
 390 532 l 1
 389 537 l 1
 390 540 l 1
 390 544 l 1
 388 546 l 1
 384 548 l 1
 375 547 l 1
 368 540 l 1
 361 547 l 1
380 508 m 1
 412 558 l 1
 425 540 l 1
 422 518 l 1
 403 504 l 1
 380 508 l 1
392 500 m 1
 450 510 l 1
 446 488 l 1
 426 476 l 1
 404 480 l 1
 392 500 l 1
EndSplineSet
Comment: "Kage: aj1-00370+AAoA-Alias: uf0172"
Colour: ffff00
EndChar
StartChar: uF0173
Encoding: 983411 983411 44
Width: 500
VWidth: 0
Flags: MW
LayerCount: 2
Fore
SplineSet
141 505 m 1
 168 519 l 1
 196 510 l 1
 224 488 l 1
 254 454 l 1
 285 412 l 1
 319 360 l 1
 355 300 l 1
 396 235 l 1
 441 165 l 1
 490 92 l 1
 493 73 l 1
 489 68 l 1
 491 58 l 1
 479 42 l 1
 461 40 l 1
 446 51 l 1
 400 128 l 1
 358 202 l 1
 321 269 l 1
 285 330 l 1
 253 383 l 1
 225 427 l 1
 201 460 l 1
 180 483 l 1
 177 486 l 1
 177 485 l 1
 166 490 l 1
 164 487 l 1
 158 479 l 1
 150 463 l 1
 140 439 l 1
 128 409 l 1
 114 373 l 1
 97 332 l 1
 79 286 l 1
 57 233 l 1
 53 235 l 1
 52 224 l 1
 36 214 l 1
 23 217 l 1
 10 222 l 1
 1 231 l 1
 -4 240 l 1
 -6 251 l 1
 -10 263 l 1
 -12 276 l 1
 -13 290 l 1
 -13 306 l 1
 -15 323 l 1
 -7 324 l 1
 -4 307 l 1
 1 293 l 1
 8 282 l 1
 13 272 l 1
 18 266 l 1
 20 263 l 1
 39 304 l 1
 59 348 l 1
 77 388 l 1
 93 423 l 1
 110 453 l 1
 124 477 l 1
 137 496 l 1
 143 501 l 1
 141 505 l 1
EndSplineSet
Comment: "Kage: aj1-00371+AAoA-Alias: uf0173"
EndChar
StartChar: uF0174
Encoding: 983412 983412 45
Width: 500
VWidth: 0
Flags: MW
LayerCount: 2
Fore
SplineSet
59 31 m 1
 42 24 l 1
 24 29 l 1
 16 46 l 1
 21 63 l 1
 36 78 l 1
 50 96 l 1
 63 116 l 1
 76 138 l 1
 89 162 l 1
 102 189 l 1
 114 217 l 1
 127 247 l 1
 140 279 l 1
 153 315 l 1
 160 313 l 1
 154 276 l 1
 148 241 l 1
 140 207 l 1
 130 177 l 1
 121 149 l 1
 110 122 l 1
 99 96 l 1
 86 73 l 1
 73 52 l 1
 59 31 l 1
226 211 m 1
 226 280 l 1
 226 349 l 1
 227 412 l 1
 192 407 l 1
 158 403 l 1
 126 399 l 1
 100 396 l 1
 91 394 l 1
 92 393 l 1
 76 382 l 1
 58 384 l 1
 47 395 l 1
 39 404 l 1
 31 415 l 1
 26 427 l 1
 23 439 l 1
 20 452 l 1
 19 464 l 1
 20 476 l 1
 21 490 l 1
 22 504 l 1
 30 503 l 1
 31 490 l 1
 34 478 l 1
 39 469 l 1
 44 459 l 1
 49 451 l 1
 54 444 l 1
 61 439 l 1
 62 438 l 1
 76 438 l 1
 98 438 l 1
 124 438 l 1
 154 439 l 1
 190 441 l 1
 227 444 l 1
 226 487 l 1
 226 556 l 1
 226 623 l 1
 223 633 l 1
 219 642 l 1
 215 649 l 1
 210 656 l 1
 207 661 l 1
 203 666 l 1
 198 670 l 1
 191 671 l 1
 191 679 l 1
 200 679 l 1
 208 679 l 1
 217 678 l 1
 226 674 l 1
 235 669 l 1
 244 662 l 1
 253 654 l 1
 262 644 l 1
 272 632 l 1
 280 619 l 1
 280 600 l 1
 274 594 l 1
 274 556 l 1
 274 487 l 1
 273 447 l 1
 272 447 l 1
 320 449 l 1
 372 453 l 1
 413 456 l 1
 413 457 l 1
 418 463 l 1
 426 468 l 1
 436 470 l 1
 445 468 l 1
 455 465 l 1
 465 459 l 1
 473 451 l 1
 481 442 l 1
 490 430 l 1
 492 413 l 1
 480 398 l 1
 462 396 l 1
 448 408 l 1
 443 408 l 1
 438 410 l 1
 432 412 l 1
 419 414 l 1
 405 417 l 1
 386 417 l 1
 364 417 l 1
 338 416 l 1
 308 415 l 1
 276 413 l 1
 273 412 l 1
 274 349 l 1
 274 280 l 1
 274 211 l 1
 274 142 l 1
 274 73 l 1
 274 4 l 1
 274 -66 l 1
 267 -82 l 1
 250 -89 l 1
 233 -82 l 1
 226 -66 l 1
 226 -58 l 1
 226 -56 l 1
 223 -52 l 1
 217 -45 l 1
 210 -35 l 1
 202 -24 l 1
 190 -11 l 1
 179 4 l 1
 163 20 l 1
 147 37 l 1
 129 56 l 1
 134 62 l 1
 155 46 l 1
 175 33 l 1
 193 21 l 1
 208 10 l 1
 222 0 l 1
 228 -6 l 1
 226 4 l 1
 226 73 l 1
 226 142 l 1
 226 211 l 1
317 302 m 1
 322 307 l 1
 343 288 l 1
 361 267 l 1
 378 245 l 1
 394 221 l 1
 409 195 l 1
 424 169 l 1
 437 141 l 1
 450 111 l 1
 463 79 l 1
 474 46 l 1
 472 28 l 1
 457 16 l 1
 440 18 l 1
 428 32 l 1
 419 65 l 1
 411 96 l 1
 401 126 l 1
 390 154 l 1
 379 181 l 1
 368 207 l 1
 356 231 l 1
 342 255 l 1
 331 278 l 1
 317 302 l 1
EndSplineSet
Comment: "Kage: aj1-00372+AAoA-Alias: uf0174"
EndChar
StartChar: uF0175
Encoding: 983413 983413 46
Width: 500
VWidth: 0
Flags: MW
LayerCount: 2
Fore
SplineSet
119 302 m 1
 124 307 l 1
 151 287 l 1
 175 266 l 1
 200 242 l 1
 222 217 l 1
 243 190 l 1
 248 182 l 1
 259 195 l 1
 281 225 l 1
 302 255 l 1
 324 285 l 1
 344 316 l 1
 361 345 l 1
 379 374 l 1
 395 404 l 1
 410 432 l 1
 425 462 l 1
 423 463 l 1
 413 466 l 1
 398 469 l 1
 378 469 l 1
 354 469 l 1
 325 468 l 1
 293 466 l 1
 256 463 l 1
 213 459 l 1
 214 465 l 1
 192 461 l 1
 157 455 l 1
 127 449 l 1
 101 444 l 1
 90 441 l 1
 87 431 l 1
 70 423 l 1
 53 428 l 1
 43 439 l 1
 35 452 l 1
 27 463 l 1
 21 475 l 1
 18 487 l 1
 15 500 l 1
 13 512 l 1
 13 524 l 1
 15 536 l 1
 15 549 l 1
 23 549 l 1
 24 536 l 1
 28 527 l 1
 34 518 l 1
 38 509 l 1
 44 500 l 1
 50 493 l 1
 58 486 l 1
 65 481 l 1
 74 482 l 1
 96 483 l 1
 122 485 l 1
 152 489 l 1
 188 492 l 1
 230 495 l 1
 276 499 l 1
 328 503 l 1
 386 506 l 1
 387 504 l 1
 398 505 l 1
 405 506 l 1
 407 509 l 1
 416 516 l 1
 427 518 l 1
 438 517 l 1
 449 511 l 1
 459 503 l 1
 468 492 l 1
 474 478 l 1
 482 462 l 1
 482 444 l 1
 467 432 l 1
 461 433 l 1
 449 410 l 1
 432 381 l 1
 413 352 l 1
 393 324 l 1
 370 295 l 1
 348 266 l 1
 324 238 l 1
 297 211 l 1
 270 184 l 1
 257 170 l 1
 264 160 l 1
 283 128 l 1
 301 96 l 1
 318 60 l 1
 335 23 l 1
 334 4 l 1
 322 -8 l 1
 302 -8 l 1
 291 6 l 1
 277 43 l 1
 263 77 l 1
 247 108 l 1
 231 141 l 1
 215 171 l 1
 198 199 l 1
 179 227 l 1
 161 252 l 1
 141 277 l 1
 119 302 l 1
426 464 m 1
 427 462 l 1
 437 455 l 1
 434 458 l 1
 426 464 l 1
EndSplineSet
Comment: "Kage: aj1-00373+AAoA-Alias: uf0175"
EndChar
StartChar: uF0176
Encoding: 983414 983414 47
Width: 1000
VWidth: 0
Flags: MW
LayerCount: 2
Fore
SplineSet
88 154 m 1
 91 162 l 1
 125 152 l 1
 158 140 l 1
 190 124 l 1
 220 106 l 1
 250 86 l 1
 279 63 l 1
 306 39 l 1
 333 13 l 1
 358 -15 l 1
 382 -45 l 1
 334 -80 l 1
 314 -50 l 1
 292 -22 l 1
 270 4 l 1
 248 29 l 1
 224 52 l 1
 198 75 l 1
 172 96 l 1
 145 116 l 1
 116 136 l 1
 88 154 l 1
136 400 m 1
 139 408 l 1
 164 402 l 1
 189 395 l 1
 212 384 l 1
 235 372 l 1
 256 358 l 1
 276 342 l 1
 296 323 l 1
 314 303 l 1
 331 282 l 1
 346 258 l 1
 294 229 l 1
 283 250 l 1
 271 272 l 1
 258 290 l 1
 244 309 l 1
 228 326 l 1
 212 342 l 1
 195 358 l 1
 176 372 l 1
 157 386 l 1
 136 400 l 1
164 630 m 1
 166 638 l 1
 192 636 l 1
 216 631 l 1
 240 624 l 1
 264 614 l 1
 286 601 l 1
 306 586 l 1
 326 570 l 1
 344 551 l 1
 362 530 l 1
 377 508 l 1
 324 479 l 1
 314 500 l 1
 302 518 l 1
 290 536 l 1
 276 552 l 1
 260 568 l 1
 244 582 l 1
 226 595 l 1
 207 608 l 1
 186 619 l 1
 164 630 l 1
294 229 m 1
 346 258 l 1
 349 235 l 1
 335 217 l 1
 312 215 l 1
 294 229 l 1
324 479 m 1
 377 508 l 1
 379 485 l 1
 365 467 l 1
 342 465 l 1
 324 479 l 1
334 -80 m 1
 382 -45 l 1
 388 -68 l 1
 376 -87 l 1
 353 -92 l 1
 334 -80 l 1
EndSplineSet
Comment: "Kage: aj1-00374+AAoA-Alias: uf0176"
Colour: ffff00
EndChar
StartChar: uF0177
Encoding: 983415 983415 48
Width: 500
VWidth: 0
Flags: MW
LayerCount: 2
Fore
SplineSet
299 312 m 1
 304 316 l 1
 331 282 l 1
 354 247 l 1
 376 213 l 1
 395 179 l 1
 413 144 l 1
 429 109 l 1
 443 74 l 1
 455 39 l 1
 466 5 l 1
 476 -31 l 1
 471 -48 l 1
 457 -58 l 1
 439 -55 l 1
 429 -40 l 1
 422 -7 l 1
 415 27 l 1
 405 61 l 1
 396 92 l 1
 365 81 l 1
 321 62 l 1
 278 46 l 1
 238 31 l 1
 201 17 l 1
 167 7 l 1
 135 -3 l 1
 105 -11 l 1
 81 -16 l 1
 81 -17 l 1
 67 -28 l 1
 48 -25 l 1
 39 -16 l 1
 32 -7 l 1
 26 2 l 1
 21 13 l 1
 18 23 l 1
 16 36 l 1
 14 46 l 1
 15 58 l 1
 15 70 l 1
 15 83 l 1
 23 84 l 1
 25 71 l 1
 29 60 l 1
 34 52 l 1
 38 43 l 1
 44 37 l 1
 49 30 l 1
 55 27 l 1
 58 24 l 1
 72 26 l 1
 96 29 l 1
 99 30 l 1
 113 65 l 1
 128 121 l 1
 146 176 l 1
 162 233 l 1
 176 290 l 1
 191 349 l 1
 205 409 l 1
 218 470 l 1
 232 532 l 1
 243 586 l 1
 241 593 l 1
 239 601 l 1
 236 609 l 1
 232 615 l 1
 229 621 l 1
 223 626 l 1
 218 630 l 1
 209 631 l 1
 209 639 l 1
 219 639 l 1
 228 639 l 1
 239 638 l 1
 248 634 l 1
 258 628 l 1
 266 620 l 1
 275 610 l 1
 281 598 l 1
 285 590 l 1
 291 588 l 1
 290 580 l 1
 294 570 l 1
 291 553 l 1
 282 546 l 1
 276 521 l 1
 262 459 l 1
 244 399 l 1
 227 339 l 1
 209 281 l 1
 190 223 l 1
 170 167 l 1
 150 113 l 1
 127 59 l 1
 114 31 l 1
 125 35 l 1
 156 42 l 1
 191 51 l 1
 229 61 l 1
 269 70 l 1
 314 82 l 1
 360 95 l 1
 391 105 l 1
 381 131 l 1
 368 165 l 1
 352 201 l 1
 336 237 l 1
 318 273 l 1
 299 312 l 1
EndSplineSet
Comment: "Kage: aj1-00375+AAoA-Alias: uf0177"
EndChar
StartChar: uF0178
Encoding: 983416 983416 49
Width: 500
VWidth: 0
Flags: MW
LayerCount: 2
Fore
SplineSet
335 647 m 1
 337 653 l 1
 346 651 l 1
 356 649 l 1
 365 646 l 1
 375 640 l 1
 384 631 l 1
 391 621 l 1
 399 609 l 1
 406 596 l 1
 408 589 l 1
 411 587 l 1
 410 582 l 1
 411 581 l 1
 416 564 l 1
 411 546 l 1
 397 536 l 1
 396 537 l 1
 383 488 l 1
 352 397 l 1
 320 313 l 1
 306 284 l 1
 310 280 l 1
 335 244 l 1
 357 208 l 1
 379 170 l 1
 400 129 l 1
 400 110 l 1
 388 97 l 1
 368 97 l 1
 357 110 l 1
 339 149 l 1
 321 187 l 1
 301 222 l 1
 287 246 l 1
 283 234 l 1
 245 162 l 1
 205 97 l 1
 160 38 l 1
 115 -14 l 1
 66 -59 l 1
 21 -93 l 1
 15 -98 l 1
 14 -98 l 1
 9 -97 l 1
 9 -92 l 1
 57 -41 l 1
 100 13 l 1
 142 72 l 1
 180 134 l 1
 217 200 l 1
 250 271 l 1
 257 285 l 1
 255 287 l 1
 232 319 l 1
 206 348 l 1
 179 375 l 1
 151 401 l 1
 121 426 l 1
 124 433 l 1
 160 413 l 1
 193 392 l 1
 224 368 l 1
 254 340 l 1
 273 319 l 1
 283 345 l 1
 312 425 l 1
 340 507 l 1
 364 594 l 1
 364 595 l 1
 361 606 l 1
 359 615 l 1
 356 623 l 1
 353 631 l 1
 347 637 l 1
 343 643 l 1
 335 647 l 1
EndSplineSet
Comment: "Kage: aj1-00376+AAoA-Alias: uf0178"
EndChar
StartChar: uF0179
Encoding: 983417 983417 50
Width: 500
VWidth: 0
Flags: MW
LayerCount: 2
Fore
SplineSet
73 585 m 1
 75 596 l 1
 77 608 l 1
 77 621 l 1
 85 621 l 1
 85 608 l 1
 89 598 l 1
 93 589 l 1
 96 581 l 1
 101 573 l 1
 106 568 l 1
 109 564 l 1
 118 565 l 1
 134 564 l 1
 154 564 l 1
 178 565 l 1
 204 568 l 1
 234 570 l 1
 266 571 l 1
 302 573 l 1
 342 576 l 1
 373 578 l 1
 372 579 l 1
 371 579 l 1
 375 585 l 1
 382 590 l 1
 391 593 l 1
 399 590 l 1
 408 587 l 1
 416 582 l 1
 423 575 l 1
 430 566 l 1
 436 555 l 1
 437 537 l 1
 424 524 l 1
 407 524 l 1
 395 533 l 1
 386 536 l 1
 387 538 l 1
 385 538 l 1
 377 540 l 1
 366 542 l 1
 352 543 l 1
 336 543 l 1
 316 542 l 1
 294 541 l 1
 270 539 l 1
 243 536 l 1
 243 317 l 1
 273 319 l 1
 322 321 l 1
 375 325 l 1
 417 328 l 1
 417 329 l 1
 421 335 l 1
 431 340 l 1
 440 342 l 1
 449 340 l 1
 459 337 l 1
 469 332 l 1
 477 323 l 1
 485 315 l 1
 494 304 l 1
 496 286 l 1
 484 270 l 1
 467 269 l 1
 453 280 l 1
 453 281 l 1
 447 280 l 1
 443 282 l 1
 435 285 l 1
 424 287 l 1
 408 289 l 1
 388 289 l 1
 366 289 l 1
 339 289 l 1
 310 287 l 1
 276 285 l 1
 243 283 l 1
 244 85 l 1
 244 77 l 1
 245 70 l 1
 246 63 l 1
 248 55 l 1
 251 49 l 1
 253 42 l 1
 257 36 l 1
 262 31 l 1
 267 24 l 1
 273 17 l 1
 278 15 l 1
 289 10 l 1
 302 6 l 1
 317 4 l 1
 335 2 l 1
 356 2 l 1
 378 4 l 1
 401 7 l 1
 428 12 l 1
 446 9 l 1
 457 -7 l 1
 452 -25 l 1
 438 -36 l 1
 409 -40 l 1
 382 -44 l 1
 357 -46 l 1
 334 -46 l 1
 312 -44 l 1
 291 -41 l 1
 273 -36 l 1
 256 -27 l 1
 240 -18 l 1
 225 -4 l 1
 226 -3 l 1
 223 -1 l 1
 222 3 l 1
 217 10 l 1
 211 20 l 1
 206 30 l 1
 202 41 l 1
 200 51 l 1
 198 62 l 1
 196 74 l 1
 196 85 l 1
 197 280 l 1
 191 279 l 1
 156 275 l 1
 124 271 l 1
 97 268 l 1
 88 268 l 1
 88 266 l 1
 73 256 l 1
 55 258 l 1
 44 267 l 1
 34 277 l 1
 28 288 l 1
 23 299 l 1
 18 310 l 1
 16 323 l 1
 14 335 l 1
 15 347 l 1
 17 360 l 1
 17 373 l 1
 25 373 l 1
 27 360 l 1
 29 348 l 1
 34 339 l 1
 39 331 l 1
 44 323 l 1
 50 317 l 1
 56 311 l 1
 57 312 l 1
 72 313 l 1
 95 312 l 1
 122 311 l 1
 153 312 l 1
 188 313 l 1
 197 314 l 1
 197 531 l 1
 180 528 l 1
 159 525 l 1
 138 520 l 1
 132 520 l 1
 133 519 l 1
 117 509 l 1
 99 514 l 1
 90 523 l 1
 84 532 l 1
 79 542 l 1
 77 553 l 1
 75 564 l 1
 74 574 l 1
 73 585 l 1
EndSplineSet
Comment: "Kage: aj1-00377+AAoA-Alias: uf0179"
EndChar
StartChar: uF017A
Encoding: 983418 983418 51
Width: 1000
VWidth: 0
Flags: MW
LayerCount: 2
Fore
SplineSet
16 410 m 1
 24 412 l 1
 28 399 l 1
 34 389 l 1
 42 380 l 1
 48 373 l 1
 54 367 l 1
 60 363 l 1
 66 360 l 1
 71 358 l 1
 76 358 l 1
 80 358 l 1
 56 304 l 1
 47 310 l 1
 39 319 l 1
 32 328 l 1
 28 338 l 1
 24 348 l 1
 20 360 l 1
 18 372 l 1
 18 384 l 1
 18 396 l 1
 16 410 l 1
53 364 m 1
 68 368 l 1
 89 374 l 1
 114 382 l 1
 142 392 l 1
 176 404 l 1
 214 417 l 1
 256 432 l 1
 302 448 l 1
 354 466 l 1
 410 484 l 1
 414 476 l 1
 361 448 l 1
 313 424 l 1
 268 402 l 1
 228 382 l 1
 192 364 l 1
 160 349 l 1
 132 336 l 1
 109 324 l 1
 90 314 l 1
 74 307 l 1
 53 364 l 1
56 304 m 1
 80 358 l 1
 96 342 l 1
 96 320 l 1
 79 304 l 1
 56 304 l 1
126 652 m 1
 132 656 l 1
 138 660 l 1
 147 664 l 1
 156 664 l 1
 166 663 l 1
 176 660 l 1
 186 654 l 1
 196 648 l 1
 206 639 l 1
 216 629 l 1
 166 596 l 1
 162 606 l 1
 158 614 l 1
 155 622 l 1
 152 628 l 1
 150 632 l 1
 147 637 l 1
 144 640 l 1
 140 644 l 1
 136 646 l 1
 130 644 l 1
 126 652 l 1
151 626 m 1
 210 634 l 1
 218 582 l 1
 224 526 l 1
 232 466 l 1
 240 402 l 1
 249 334 l 1
 258 262 l 1
 268 186 l 1
 278 106 l 1
 288 22 l 1
 298 -66 l 1
 239 -74 l 1
 228 14 l 1
 218 98 l 1
 208 178 l 1
 198 254 l 1
 190 326 l 1
 181 394 l 1
 173 458 l 1
 165 518 l 1
 158 574 l 1
 151 626 l 1
166 596 m 1
 216 629 l 1
 220 606 l 1
 207 588 l 1
 184 584 l 1
 166 596 l 1
239 -74 m 1
 298 -66 l 1
 292 -88 l 1
 272 -100 l 1
 250 -94 l 1
 239 -74 l 1
274 416 m 1
 300 432 l 1
 322 446 l 1
 343 460 l 1
 362 470 l 1
 377 480 l 1
 390 488 l 1
 402 494 l 1
 412 500 l 1
 421 504 l 1
 440 504 l 1
 416 448 l 1
 428 448 l 1
 426 450 l 1
 418 450 l 1
 406 448 l 1
 392 444 l 1
 375 440 l 1
 354 434 l 1
 332 427 l 1
 306 419 l 1
 277 408 l 1
 274 416 l 1
315 198 m 1
 328 232 l 1
 342 264 l 1
 354 294 l 1
 366 322 l 1
 378 350 l 1
 388 376 l 1
 396 400 l 1
 404 423 l 1
 411 444 l 1
 416 464 l 1
 473 446 l 1
 464 425 l 1
 454 403 l 1
 442 380 l 1
 430 356 l 1
 416 331 l 1
 400 305 l 1
 384 278 l 1
 366 250 l 1
 345 222 l 1
 322 193 l 1
 315 198 l 1
392 462 m 1
 398 472 l 1
 402 483 l 1
 407 492 l 1
 414 500 l 1
 424 506 l 1
 437 506 l 1
 450 504 l 1
 461 496 l 1
 471 488 l 1
 480 477 l 1
 426 450 l 1
 424 458 l 1
 424 464 l 1
 424 466 l 1
 426 469 l 1
 427 472 l 1
 426 474 l 1
 421 474 l 1
 414 472 l 1
 406 467 l 1
 400 458 l 1
 392 462 l 1
416 448 m 1
 440 504 l 1
 456 488 l 1
 456 464 l 1
 439 448 l 1
 416 448 l 1
426 450 m 1
 480 477 l 1
 481 454 l 1
 466 437 l 1
 444 436 l 1
 426 450 l 1
EndSplineSet
Comment: "Kage: aj1-00378+AAoA-Alias: uf017a"
Colour: ffff00
EndChar
StartChar: uF017B
Encoding: 983419 983419 52
Width: 500
VWidth: 0
Flags: MW
LayerCount: 2
Fore
SplineSet
315 499 m 1
 322 505 l 1
 326 512 l 1
 333 515 l 1
 344 515 l 1
 354 510 l 1
 361 505 l 1
 370 497 l 1
 376 486 l 1
 382 475 l 1
 389 461 l 1
 386 443 l 1
 373 432 l 2
 305 113 l 1
 322 115 l 1
 375 118 l 1
 416 121 l 1
 416 123 l 1
 421 129 l 1
 431 134 l 1
 440 135 l 1
 449 135 l 1
 459 130 l 1
 469 124 l 1
 477 117 l 1
 485 107 l 1
 494 96 l 1
 497 77 l 1
 484 62 l 1
 467 61 l 1
 453 71 l 1
 452 73 l 1
 446 73 l 1
 443 75 l 1
 435 77 l 1
 424 80 l 1
 408 82 l 1
 388 83 l 1
 366 82 l 1
 339 81 l 1
 310 79 l 1
 277 75 l 1
 237 74 l 1
 237 78 l 1
 231 77 l 1
 191 72 l 1
 156 67 l 1
 124 63 l 1
 97 60 l 1
 88 59 l 1
 88 58 l 1
 73 46 l 1
 55 50 l 1
 43 58 l 1
 34 69 l 1
 27 80 l 1
 22 92 l 1
 18 103 l 1
 16 116 l 1
 14 129 l 1
 15 142 l 1
 17 154 l 1
 17 169 l 1
 25 169 l 1
 27 155 l 1
 29 143 l 1
 34 133 l 1
 40 124 l 1
 44 116 l 1
 50 110 l 1
 57 104 l 1
 59 104 l 1
 72 105 l 1
 95 104 l 1
 122 103 l 1
 153 105 l 1
 188 106 l 1
 228 109 l 1
 258 110 l 1
 328 453 l 1
 327 454 l 1
 320 455 l 1
 310 455 l 1
 300 455 l 1
 286 453 l 1
 272 451 l 1
 255 449 l 1
 236 447 l 1
 217 442 l 1
 214 449 l 1
 219 451 l 1
 203 446 l 1
 187 439 l 1
 171 435 l 1
 164 431 l 1
 163 427 l 1
 147 417 l 1
 129 420 l 1
 118 430 l 1
 110 440 l 1
 105 452 l 1
 100 463 l 1
 98 474 l 1
 95 486 l 1
 94 499 l 1
 95 512 l 1
 95 524 l 1
 96 539 l 1
 104 539 l 1
 105 525 l 1
 109 513 l 1
 114 503 l 1
 118 494 l 1
 124 486 l 1
 129 480 l 1
 135 473 l 1
 141 470 l 1
 150 471 l 1
 164 472 l 1
 180 473 l 1
 196 476 l 1
 216 478 l 1
 236 480 l 1
 258 485 l 1
 281 487 l 1
 308 491 l 1
 308 489 l 1
 315 492 l 1
 320 494 l 1
 315 499 l 1
321 494 m 1
 325 496 l 1
 330 494 l 1
 332 492 l 1
 331 495 l 1
 330 497 l 1
 324 497 l 1
 321 494 l 1
EndSplineSet
Comment: "Kage: aj1-00379+AAoA-Alias: uf017b"
EndChar
StartChar: uF017C
Encoding: 983420 983420 53
Width: 1000
VWidth: 0
Flags: MW
LayerCount: 2
Fore
SplineSet
59 56 m 1
 60 66 l 1
 62 76 l 1
 62 85 l 1
 72 85 l 1
 72 77 l 1
 77 70 l 1
 82 64 l 1
 86 58 l 1
 92 53 l 1
 98 50 l 1
 103 46 l 1
 109 43 l 1
 116 40 l 1
 122 38 l 1
 88 -11 l 1
 80 -2 l 1
 74 7 l 1
 68 16 l 1
 64 26 l 1
 61 36 l 1
 59 46 l 1
 59 56 l 1
81 545 m 1
 81 555 l 1
 82 565 l 1
 84 575 l 1
 84 585 l 1
 92 586 l 1
 94 576 l 1
 98 568 l 1
 104 562 l 1
 108 556 l 1
 114 552 l 1
 118 548 l 1
 124 546 l 1
 128 544 l 1
 132 544 l 1
 137 544 l 1
 108 492 l 1
 100 499 l 1
 94 508 l 1
 89 516 l 1
 85 526 l 1
 82 536 l 1
 81 545 l 1
86 306 m 1
 86 315 l 1
 88 325 l 1
 87 335 l 1
 96 336 l 1
 98 326 l 1
 102 319 l 1
 108 312 l 1
 112 308 l 1
 118 304 l 1
 122 302 l 1
 126 300 l 1
 130 301 l 1
 132 302 l 1
 134 304 l 1
 114 247 l 1
 106 254 l 1
 99 261 l 1
 94 269 l 1
 90 278 l 1
 87 287 l 1
 86 296 l 1
 86 306 l 1
88 -11 m 1
 122 38 l 1
 134 19 l 1
 130 -3 l 1
 111 -16 l 1
 88 -11 l 1
101 45 m 1
 108 44 l 1
 119 44 l 1
 132 44 l 1
 148 45 l 1
 167 46 l 1
 188 48 l 1
 213 49 l 1
 240 51 l 1
 270 52 l 1
 303 54 l 1
 304 46 l 1
 273 36 l 1
 244 28 l 1
 218 20 l 1
 194 13 l 1
 174 6 l 1
 156 2 l 1
 140 -4 l 1
 128 -8 l 1
 118 -12 l 1
 110 -14 l 1
 101 45 l 1
108 492 m 1
 137 544 l 1
 151 526 l 1
 149 503 l 1
 131 489 l 1
 108 492 l 1
114 550 m 1
 124 550 l 1
 136 550 l 1
 150 550 l 1
 168 551 l 1
 188 553 l 1
 210 554 l 1
 236 557 l 1
 263 560 l 1
 294 562 l 1
 327 564 l 1
 328 556 l 1
 297 546 l 1
 268 536 l 1
 242 527 l 1
 217 520 l 1
 195 512 l 1
 176 507 l 1
 158 502 l 1
 144 498 l 1
 132 494 l 1
 122 490 l 1
 114 550 l 1
114 247 m 1
 134 304 l 1
 152 288 l 1
 153 265 l 1
 138 248 l 1
 114 247 l 1
125 300 m 1
 132 299 l 1
 142 299 l 1
 154 300 l 1
 169 300 l 1
 186 302 l 1
 206 304 l 1
 229 306 l 1
 254 308 l 1
 282 311 l 1
 312 314 l 1
 314 306 l 1
 285 296 l 1
 259 286 l 1
 235 278 l 1
 214 270 l 1
 194 264 l 1
 178 258 l 1
 164 252 l 1
 152 248 l 1
 142 244 l 1
 134 240 l 1
 125 300 l 1
167 16 m 1
 194 24 l 1
 218 32 l 1
 240 39 l 1
 260 45 l 1
 278 50 l 1
 292 54 l 1
 305 58 l 1
 316 60 l 1
 326 62 l 1
 341 59 l 1
 312 6 l 1
 318 6 l 1
 316 8 l 1
 308 10 l 1
 297 12 l 1
 282 12 l 1
 266 12 l 1
 245 12 l 1
 222 11 l 1
 196 10 l 1
 168 7 l 1
 167 16 l 1
190 521 m 1
 221 531 l 1
 248 541 l 1
 274 550 l 1
 296 556 l 1
 314 562 l 1
 332 567 l 1
 346 570 l 1
 358 573 l 1
 371 574 l 1
 388 568 l 1
 352 520 l 1
 360 518 l 1
 357 520 l 1
 349 522 l 1
 336 524 l 1
 320 524 l 1
 302 522 l 1
 279 521 l 1
 254 519 l 1
 224 516 l 1
 192 512 l 1
 190 521 l 1
194 271 m 1
 218 279 l 1
 241 288 l 1
 261 296 l 1
 280 303 l 1
 296 308 l 1
 310 313 l 1
 322 317 l 1
 333 320 l 1
 344 321 l 1
 358 319 l 1
 331 265 l 1
 336 266 l 1
 333 268 l 1
 326 270 l 1
 316 270 l 1
 302 271 l 1
 286 270 l 1
 267 270 l 1
 246 268 l 1
 222 266 l 1
 196 262 l 1
 194 271 l 1
312 6 m 1
 341 59 l 1
 355 40 l 1
 353 18 l 1
 335 4 l 1
 312 6 l 1
320 -18 m 1
 322 40 l 1
 326 96 l 1
 328 152 l 1
 331 208 l 1
 334 263 l 1
 337 318 l 1
 340 371 l 1
 343 424 l 1
 346 476 l 1
 349 527 l 1
 408 524 l 1
 406 472 l 1
 402 420 l 1
 400 368 l 1
 397 314 l 1
 394 260 l 1
 391 205 l 1
 388 150 l 1
 385 94 l 1
 382 36 l 1
 380 -21 l 1
 320 -18 l 1
320 -18 m 1
 380 -21 l 1
 370 -42 l 1
 348 -50 l 1
 328 -40 l 1
 320 -18 l 1
331 265 m 1
 358 319 l 1
 372 302 l 1
 371 278 l 1
 354 264 l 1
 331 265 l 1
332 562 m 1
 340 568 l 1
 346 575 l 1
 354 580 l 1
 365 582 l 1
 376 580 l 1
 386 575 l 1
 396 567 l 1
 404 557 l 1
 410 545 l 1
 416 532 l 1
 358 518 l 1
 358 529 l 1
 358 538 l 1
 357 544 l 1
 357 548 l 1
 358 552 l 1
 358 554 l 1
 356 558 l 1
 352 560 l 1
 344 560 l 1
 338 555 l 1
 332 562 l 1
352 520 m 1
 388 568 l 1
 399 548 l 1
 394 526 l 1
 374 515 l 1
 352 520 l 1
358 518 m 1
 416 532 l 1
 412 509 l 1
 394 496 l 1
 372 500 l 1
 358 518 l 1
EndSplineSet
Comment: "Kage: aj1-00380+AAoA-Alias: uf017c"
Colour: ffff00
EndChar
StartChar: uF017D
Encoding: 983421 983421 54
Width: 1000
VWidth: 0
Flags: MW
LayerCount: 2
Fore
SplineSet
58 414 m 1
 60 426 l 1
 62 438 l 1
 62 450 l 1
 72 450 l 1
 72 439 l 1
 78 429 l 1
 82 420 l 1
 88 412 l 1
 93 406 l 1
 99 401 l 1
 105 396 l 1
 112 394 l 1
 118 390 l 1
 124 388 l 1
 92 338 l 1
 83 348 l 1
 75 358 l 1
 69 368 l 1
 64 380 l 1
 61 391 l 1
 59 402 l 1
 58 414 l 1
86 -91 m 1
 131 -54 l 1
 172 -16 l 1
 211 24 l 1
 246 68 l 1
 278 114 l 1
 306 162 l 1
 331 214 l 1
 352 268 l 1
 371 326 l 1
 386 387 l 1
 444 374 l 1
 425 310 l 1
 402 249 l 1
 376 192 l 1
 346 139 l 1
 313 90 l 1
 276 44 l 1
 235 2 l 1
 190 -36 l 1
 142 -70 l 1
 90 -98 l 1
 86 -91 l 1
86 -90 m 1
 132 -64 l 1
 172 -33 l 1
 210 2 l 1
 245 42 l 1
 276 86 l 1
 304 136 l 1
 330 190 l 1
 352 250 l 1
 370 316 l 1
 386 386 l 1
 444 374 l 1
 425 300 l 1
 402 232 l 1
 376 170 l 1
 346 113 l 1
 312 62 l 1
 274 17 l 1
 233 -22 l 1
 188 -54 l 1
 140 -80 l 1
 90 -99 l 1
 86 -90 l 1
92 338 m 1
 124 388 l 1
 137 370 l 1
 134 347 l 1
 114 334 l 1
 92 338 l 1
96 394 m 1
 110 396 l 1
 128 398 l 1
 148 401 l 1
 172 404 l 1
 200 408 l 1
 230 411 l 1
 264 414 l 1
 302 418 l 1
 342 422 l 1
 387 424 l 1
 388 416 l 1
 346 403 l 1
 307 392 l 1
 270 382 l 1
 238 374 l 1
 208 366 l 1
 182 358 l 1
 158 352 l 1
 139 346 l 1
 122 341 l 1
 110 336 l 1
 96 394 l 1
105 624 m 1
 106 635 l 1
 109 646 l 1
 110 656 l 1
 119 655 l 1
 120 646 l 1
 124 638 l 1
 128 630 l 1
 134 624 l 1
 138 619 l 1
 144 615 l 1
 150 611 l 1
 156 608 l 1
 162 606 l 1
 170 604 l 1
 137 553 l 1
 128 562 l 1
 121 572 l 1
 114 582 l 1
 110 592 l 1
 107 603 l 1
 106 614 l 1
 105 624 l 1
137 553 m 1
 170 604 l 1
 182 584 l 1
 178 562 l 1
 160 550 l 1
 137 553 l 1
151 550 m 1
 151 610 l 1
 158 609 l 1
 168 608 l 1
 181 608 l 1
 197 608 l 1
 216 609 l 1
 238 610 l 1
 263 612 l 1
 290 614 l 1
 321 616 l 1
 354 620 l 1
 356 611 l 1
 324 600 l 1
 295 591 l 1
 268 582 l 1
 244 576 l 1
 223 569 l 1
 204 564 l 1
 188 559 l 1
 174 556 l 1
 162 552 l 1
 151 550 l 1
226 581 m 1
 250 588 l 1
 270 596 l 1
 290 604 l 1
 306 610 l 1
 320 616 l 1
 334 620 l 1
 344 624 l 1
 354 627 l 1
 362 629 l 1
 375 628 l 1
 354 572 l 1
 360 573 l 1
 356 576 l 1
 350 577 l 1
 340 578 l 1
 327 578 l 1
 312 578 l 1
 295 578 l 1
 275 576 l 1
 252 576 l 1
 228 572 l 1
 226 581 l 1
232 381 m 1
 259 390 l 1
 283 400 l 1
 305 409 l 1
 324 416 l 1
 342 422 l 1
 358 426 l 1
 372 430 l 1
 384 432 l 1
 396 432 l 1
 412 428 l 1
 380 378 l 1
 384 378 l 1
 382 380 l 1
 374 382 l 1
 363 383 l 1
 348 384 l 1
 331 383 l 1
 311 382 l 1
 288 380 l 1
 262 377 l 1
 235 372 l 1
 232 381 l 1
318 612 m 1
 325 620 l 1
 330 628 l 1
 337 636 l 1
 346 641 l 1
 358 642 l 1
 370 640 l 1
 380 635 l 1
 390 628 l 1
 400 618 l 1
 408 606 l 1
 354 581 l 1
 352 590 l 1
 350 598 l 1
 350 602 l 1
 349 606 l 1
 349 609 l 1
 348 612 l 1
 345 614 l 1
 340 615 l 1
 332 613 l 1
 326 606 l 1
 318 612 l 1
354 581 m 1
 408 606 l 1
 410 584 l 1
 394 566 l 1
 372 566 l 1
 354 581 l 1
354 572 m 1
 375 628 l 1
 392 613 l 1
 393 590 l 1
 377 574 l 1
 354 572 l 1
361 417 m 1
 370 424 l 1
 376 433 l 1
 385 439 l 1
 396 442 l 1
 409 439 l 1
 420 432 l 1
 430 423 l 1
 438 411 l 1
 444 397 l 1
 450 380 l 1
 392 370 l 1
 391 383 l 1
 390 394 l 1
 390 402 l 1
 389 407 l 1
 390 410 l 1
 390 414 l 1
 388 416 l 1
 384 418 l 1
 375 417 l 1
 368 410 l 1
 361 417 l 1
380 378 m 1
 412 428 l 1
 425 410 l 1
 422 388 l 1
 403 374 l 1
 380 378 l 1
392 370 m 1
 450 380 l 1
 446 358 l 1
 426 346 l 1
 404 350 l 1
 392 370 l 1
EndSplineSet
Comment: "Kage: aj1-00381+AAoA-Alias: uf017d"
Colour: ffff00
EndChar
StartChar: uF017E
Encoding: 983422 983422 55
Width: 500
VWidth: 0
Flags: MW
LayerCount: 2
Fore
SplineSet
95 616 m 1
 95 624 l 1
 104 624 l 1
 113 623 l 1
 123 622 l 1
 131 616 l 1
 141 610 l 1
 150 600 l 1
 158 590 l 1
 165 578 l 1
 167 574 l 1
 171 573 l 1
 172 566 l 1
 174 563 l 1
 180 547 l 1
 178 528 l 1
 172 523 l 1
 172 518 l 1
 172 490 l 1
 172 456 l 1
 172 417 l 1
 172 372 l 1
 172 322 l 1
 172 266 l 1
 172 204 l 1
 165 188 l 1
 148 181 l 1
 131 188 l 1
 124 204 l 1
 124 266 l 1
 124 322 l 1
 124 372 l 1
 124 417 l 1
 124 456 l 1
 124 490 l 1
 124 518 l 1
 124 541 l 1
 124 558 l 1
 125 573 l 1
 126 573 l 1
 125 573 l 1
 121 583 l 1
 118 592 l 1
 114 599 l 1
 110 605 l 1
 107 611 l 1
 102 615 l 1
 95 616 l 1
303 651 m 1
 301 661 l 1
 310 659 l 1
 319 659 l 1
 329 657 l 1
 337 652 l 1
 348 646 l 1
 356 638 l 1
 364 628 l 1
 374 616 l 1
 382 604 l 1
 392 589 l 1
 391 570 l 1
 382 561 l 1
 382 320 l 1
 381 312 l 1
 379 255 l 1
 370 193 l 1
 356 137 l 1
 338 84 l 1
 312 38 l 1
 283 -5 l 1
 248 -39 l 1
 208 -69 l 1
 164 -90 l 1
 116 -103 l 1
 113 -97 l 1
 155 -67 l 1
 191 -36 l 1
 224 -3 l 1
 253 34 l 1
 279 72 l 1
 298 114 l 1
 314 161 l 1
 326 210 l 1
 332 262 l 1
 334 320 l 1
 335 603 l 1
 337 602 l 1
 333 609 l 1
 329 619 l 1
 326 627 l 1
 321 635 l 1
 317 641 l 1
 313 645 l 1
 309 650 l 1
 303 651 l 1
EndSplineSet
Comment: "Kage: aj1-00382+AAoA-Alias: uf017e"
EndChar
StartChar: uF017F
Encoding: 983423 983423 56
Width: 1000
VWidth: 0
Flags: MW
LayerCount: 2
Fore
SplineSet
-12 -42 m 1
 11 -0 l 1
 32 42 l 1
 51 86 l 1
 68 132 l 1
 84 180 l 1
 96 231 l 1
 108 283 l 1
 116 338 l 1
 122 394 l 1
 127 452 l 1
 186 448 l 1
 179 387 l 1
 169 328 l 1
 156 272 l 1
 141 218 l 1
 124 168 l 1
 104 118 l 1
 80 72 l 1
 55 30 l 1
 27 -10 l 1
 -4 -48 l 1
 -12 -42 l 1
105 490 m 1
 105 500 l 1
 112 500 l 1
 122 501 l 1
 130 500 l 1
 140 496 l 1
 150 490 l 1
 158 483 l 1
 166 474 l 1
 174 464 l 1
 182 452 l 1
 190 439 l 1
 132 420 l 1
 130 432 l 1
 128 442 l 1
 126 452 l 1
 124 460 l 1
 122 468 l 1
 120 474 l 1
 118 480 l 1
 114 484 l 1
 110 490 l 1
 105 490 l 1
132 420 m 1
 190 439 l 1
 188 416 l 1
 170 401 l 1
 148 403 l 1
 132 420 l 1
219 606 m 1
 219 614 l 1
 226 614 l 1
 235 616 l 1
 244 614 l 1
 254 610 l 1
 263 605 l 1
 272 598 l 1
 280 588 l 1
 287 578 l 1
 294 566 l 1
 301 553 l 1
 244 536 l 1
 242 548 l 1
 240 558 l 1
 239 568 l 1
 238 576 l 1
 236 582 l 1
 234 589 l 1
 232 594 l 1
 228 600 l 1
 224 604 l 1
 219 606 l 1
230 72 m 1
 231 82 l 1
 234 92 l 1
 238 102 l 1
 242 110 l 1
 294 80 l 1
 292 77 l 1
 291 74 l 1
 290 72 l 1
 290 70 l 1
 290 68 l 1
 290 65 l 1
 292 62 l 1
 293 58 l 1
 295 54 l 1
 298 50 l 1
 250 14 l 1
 244 24 l 1
 239 32 l 1
 235 42 l 1
 232 52 l 1
 230 62 l 1
 230 72 l 1
238 402 m 1
 238 453 l 1
 238 504 l 1
 238 555 l 1
 298 555 l 1
 298 504 l 1
 298 453 l 1
 298 402 l 1
 298 351 l 1
 298 300 l 1
 298 249 l 1
 298 198 l 1
 298 147 l 1
 298 96 l 1
 298 45 l 1
 238 45 l 1
 238 96 l 1
 238 147 l 1
 238 198 l 1
 238 249 l 1
 238 300 l 1
 238 351 l 1
 238 402 l 1
238 45 m 1
 298 45 l 1
 289 24 l 1
 268 15 l 1
 247 24 l 1
 238 45 l 1
244 536 m 1
 301 553 l 1
 298 530 l 1
 281 516 l 1
 258 518 l 1
 244 536 l 1
250 14 m 1
 298 50 l 1
 303 28 l 1
 292 8 l 1
 270 3 l 1
 250 14 l 1
252 58 m 1
 280 82 l 1
 308 108 l 1
 335 136 l 1
 361 166 l 1
 386 200 l 1
 412 234 l 1
 436 272 l 1
 460 312 l 1
 483 353 l 1
 506 397 l 1
 515 394 l 1
 500 346 l 1
 484 300 l 1
 464 256 l 1
 444 215 l 1
 422 176 l 1
 398 139 l 1
 374 104 l 1
 347 72 l 1
 320 41 l 1
 290 12 l 1
 252 58 l 1
EndSplineSet
Comment: "Kage: aj1-00383+AAoA-Alias: uf017f"
Colour: ffff00
EndChar
StartChar: uF0180
Encoding: 983424 983424 57
Width: 1000
VWidth: 0
Flags: MW
LayerCount: 2
Fore
SplineSet
84 606 m 1
 92 609 l 1
 99 612 l 1
 108 614 l 1
 118 612 l 1
 128 608 l 1
 136 601 l 1
 144 593 l 1
 152 583 l 1
 160 572 l 1
 166 558 l 1
 108 541 l 1
 108 552 l 1
 106 562 l 1
 104 571 l 1
 104 578 l 1
 102 584 l 1
 102 588 l 1
 100 592 l 1
 98 596 l 1
 94 599 l 1
 88 598 l 1
 84 606 l 1
95 32 m 1
 96 44 l 1
 100 56 l 1
 104 68 l 1
 110 80 l 1
 162 51 l 1
 159 44 l 1
 157 39 l 1
 156 34 l 1
 155 28 l 1
 155 24 l 1
 156 20 l 1
 157 15 l 1
 159 10 l 1
 162 6 l 1
 165 0 l 1
 118 -36 l 1
 110 -26 l 1
 104 -16 l 1
 100 -4 l 1
 97 8 l 1
 96 20 l 1
 95 32 l 1
103 210 m 1
 103 269 l 1
 103 325 l 1
 103 379 l 1
 103 430 l 1
 103 480 l 1
 103 526 l 1
 103 570 l 1
 163 570 l 1
 163 526 l 1
 163 480 l 1
 163 430 l 1
 163 379 l 1
 163 325 l 1
 163 269 l 1
 163 210 l 1
 163 150 l 1
 163 86 l 1
 163 20 l 1
 103 20 l 1
 103 86 l 1
 103 150 l 1
 103 210 l 1
103 20 m 1
 163 20 l 1
 154 -1 l 1
 133 -10 l 1
 112 -1 l 1
 103 20 l 1
108 541 m 1
 166 558 l 1
 164 536 l 1
 146 521 l 1
 124 524 l 1
 108 541 l 1
118 -36 m 1
 165 0 l 1
 171 -22 l 1
 160 -42 l 1
 138 -48 l 1
 118 -36 l 1
120 6 m 1
 160 32 l 1
 199 62 l 1
 236 96 l 1
 274 134 l 1
 309 176 l 1
 344 221 l 1
 378 270 l 1
 410 324 l 1
 442 381 l 1
 474 442 l 1
 482 438 l 1
 459 373 l 1
 434 312 l 1
 406 254 l 1
 376 200 l 1
 344 150 l 1
 309 104 l 1
 272 61 l 1
 234 22 l 1
 194 -14 l 1
 152 -45 l 1
 120 6 l 1
EndSplineSet
Comment: "Kage: aj1-00384+AAoA-Alias: uf0180"
Colour: ffff00
EndChar
StartChar: uF0181
Encoding: 983425 983425 58
Width: 500
VWidth: 0
Flags: MW
LayerCount: 2
Fore
SplineSet
372 505 m 1
 375 512 l 1
 384 518 l 1
 395 521 l 1
 406 516 l 1
 415 510 l 1
 424 501 l 1
 432 488 l 1
 441 474 l 1
 450 457 l 1
 448 440 l 1
 436 427 l 1
 432 428 l 1
 393 113 l 1
 403 112 l 1
 416 98 l 1
 416 80 l 1
 403 67 l 1
 385 66 l 1
 382 69 l 1
 375 70 l 1
 366 73 l 1
 353 74 l 1
 336 74 l 1
 317 73 l 1
 296 73 l 1
 271 71 l 1
 244 69 l 1
 212 65 l 1
 211 70 l 1
 191 65 l 1
 168 60 l 1
 149 56 l 1
 133 53 l 1
 125 50 l 1
 126 15 l 1
 121 -1 l 1
 103 -9 l 1
 86 -3 l 1
 78 13 l 1
 75 82 l 1
 74 144 l 1
 72 202 l 1
 70 256 l 1
 68 306 l 1
 66 351 l 1
 65 392 l 1
 64 429 l 1
 61 461 l 1
 61 493 l 1
 64 493 l 1
 61 502 l 1
 57 511 l 1
 54 520 l 1
 50 527 l 1
 46 534 l 1
 43 539 l 1
 41 545 l 1
 38 549 l 1
 31 552 l 1
 34 559 l 1
 40 557 l 1
 47 558 l 1
 55 556 l 1
 63 552 l 1
 72 546 l 1
 80 539 l 1
 87 531 l 1
 95 522 l 1
 103 513 l 1
 112 499 l 1
 112 496 l 1
 113 495 l 1
 117 493 l 1
 122 490 l 1
 125 485 l 1
 130 483 l 1
 136 480 l 1
 138 479 l 1
 144 480 l 1
 160 482 l 1
 179 483 l 1
 201 485 l 1
 226 489 l 1
 254 491 l 1
 284 495 l 1
 318 499 l 1
 356 503 l 1
 372 505 l 1
367 112 m 1
 346 112 l 1
 388 459 l 1
 385 460 l 1
 377 462 l 1
 364 463 l 1
 348 463 l 1
 329 462 l 1
 307 460 l 1
 282 457 l 1
 254 455 l 1
 221 450 l 1
 220 453 l 1
 207 449 l 1
 186 444 l 1
 167 438 l 1
 153 435 l 1
 144 432 l 1
 142 432 l 1
 141 432 l 1
 137 432 l 1
 137 433 l 1
 124 434 l 1
 116 441 l 1
 111 449 l 1
 108 452 l 1
 112 430 l 1
 113 394 l 1
 114 352 l 1
 116 307 l 1
 118 258 l 1
 120 204 l 1
 122 146 l 1
 123 94 l 1
 128 95 l 1
 144 95 l 1
 162 97 l 1
 186 99 l 1
 212 101 l 1
 242 103 l 1
 274 106 l 1
 311 109 l 1
 355 111 l 1
 355 109 l 1
 366 111 l 1
 367 112 l 1
388 460 m 2
 388 460 l 2
EndSplineSet
Comment: "Kage: aj1-00385+AAoA-Alias: uf0181"
EndChar
StartChar: uF0182
Encoding: 983426 983426 59
Width: 500
VWidth: 0
Flags: MW
LayerCount: 2
Fore
SplineSet
72 441 m 1
 73 464 l 1
 73 485 l 1
 74 508 l 1
 75 508 l 1
 73 518 l 1
 72 532 l 1
 71 546 l 1
 70 557 l 1
 70 567 l 1
 68 575 l 1
 66 582 l 1
 65 589 l 1
 64 594 l 1
 61 596 l 1
 62 606 l 1
 70 601 l 1
 77 597 l 1
 83 593 l 1
 90 585 l 1
 96 577 l 1
 102 566 l 1
 107 554 l 1
 113 549 l 1
 117 547 l 1
 121 545 l 1
 125 542 l 1
 130 541 l 1
 134 540 l 1
 137 539 l 1
 140 540 l 1
 143 541 l 1
 149 542 l 1
 152 539 l 1
 158 540 l 1
 173 540 l 1
 192 541 l 1
 215 543 l 1
 242 545 l 1
 272 549 l 1
 306 551 l 1
 345 553 l 1
 367 555 l 1
 366 555 l 1
 373 563 l 1
 384 568 l 1
 395 570 l 1
 408 566 l 1
 418 559 l 1
 427 548 l 1
 434 536 l 1
 440 522 l 1
 446 504 l 1
 442 487 l 1
 431 479 l 1
 424 423 l 1
 408 341 l 1
 386 263 l 1
 360 192 l 1
 330 127 l 1
 293 68 l 1
 252 16 l 1
 207 -29 l 1
 157 -68 l 1
 101 -99 l 1
 97 -92 l 1
 145 -49 l 1
 188 -2 l 1
 227 48 l 1
 263 103 l 1
 293 161 l 1
 320 223 l 1
 344 290 l 1
 362 361 l 1
 378 438 l 1
 388 510 l 1
 386 512 l 1
 382 514 l 1
 374 516 l 1
 363 518 l 1
 348 519 l 1
 331 518 l 1
 312 517 l 1
 290 515 l 1
 264 513 l 1
 236 510 l 1
 235 513 l 1
 219 509 l 1
 197 505 l 1
 179 501 l 1
 164 496 l 1
 153 494 l 1
 144 492 l 1
 142 497 l 1
 134 496 l 1
 127 500 l 1
 123 504 l 1
 121 506 l 1
 121 504 l 1
 121 485 l 1
 121 464 l 1
 120 441 l 1
 121 418 l 1
 121 394 l 1
 121 369 l 1
 121 343 l 1
 121 316 l 1
 121 289 l 1
 121 259 l 1
 114 243 l 1
 97 236 l 1
 79 243 l 1
 73 259 l 1
 73 289 l 1
 73 316 l 1
 73 343 l 1
 73 369 l 1
 73 394 l 1
 73 418 l 1
 72 441 l 1
EndSplineSet
Comment: "Kage: aj1-00386+AAoA-Alias: uf0182"
EndChar
StartChar: uF0183
Encoding: 983427 983427 60
Width: 1000
VWidth: 0
Flags: MW
LayerCount: 2
Fore
SplineSet
59 34 m 1
 60 49 l 1
 60 65 l 1
 68 66 l 1
 71 50 l 1
 77 38 l 1
 83 26 l 1
 90 18 l 1
 96 10 l 1
 102 4 l 1
 108 1 l 1
 114 -1 l 1
 120 -2 l 1
 125 -2 l 1
 106 -58 l 1
 94 -51 l 1
 84 -42 l 1
 75 -31 l 1
 68 -20 l 1
 64 -7 l 1
 60 6 l 1
 59 20 l 1
 59 34 l 1
68 574 m 1
 74 582 l 1
 91 574 l 1
 109 566 l 1
 126 554 l 1
 142 542 l 1
 157 528 l 1
 172 512 l 1
 185 495 l 1
 198 476 l 1
 210 456 l 1
 221 436 l 1
 166 413 l 1
 158 433 l 1
 152 452 l 1
 144 470 l 1
 135 487 l 1
 126 503 l 1
 116 518 l 1
 106 533 l 1
 94 548 l 1
 82 561 l 1
 68 574 l 1
96 1 m 1
 141 30 l 1
 184 62 l 1
 226 99 l 1
 266 140 l 1
 304 186 l 1
 340 236 l 1
 374 292 l 1
 408 350 l 1
 440 414 l 1
 470 482 l 1
 479 479 l 1
 457 407 l 1
 432 339 l 1
 404 276 l 1
 372 216 l 1
 338 162 l 1
 302 111 l 1
 262 64 l 1
 220 22 l 1
 175 -16 l 1
 128 -50 l 1
 96 1 l 1
106 -58 m 1
 125 -2 l 1
 142 -16 l 1
 144 -40 l 1
 129 -56 l 1
 106 -58 l 1
166 413 m 1
 221 436 l 1
 220 412 l 1
 204 396 l 1
 182 397 l 1
 166 413 l 1
EndSplineSet
Comment: "Kage: aj1-00387+AAoA-Alias: uf0183"
Colour: ffff00
EndChar
StartChar: uF0184
Encoding: 983428 983428 61
Width: 500
VWidth: 0
Flags: MW
LayerCount: 2
Fore
SplineSet
162 734 m 1
 166 742 l 1
 184 735 l 1
 200 728 l 1
 217 720 l 1
 232 711 l 1
 247 700 l 1
 260 688 l 1
 274 676 l 1
 286 662 l 1
 296 647 l 1
 306 631 l 1
 306 608 l 1
 291 592 l 1
 268 591 l 1
 251 607 l 1
 246 621 l 1
 241 634 l 1
 234 648 l 1
 228 660 l 1
 219 674 l 1
 210 686 l 1
 200 698 l 1
 188 710 l 1
 176 723 l 1
 162 734 l 1
62 679 m 1
 66 686 l 1
 83 678 l 1
 100 670 l 1
 116 661 l 1
 130 650 l 1
 144 638 l 1
 158 624 l 1
 170 610 l 1
 182 594 l 1
 192 578 l 1
 202 560 l 1
 202 538 l 1
 186 522 l 1
 162 522 l 1
 146 538 l 1
 142 554 l 1
 136 570 l 1
 130 584 l 1
 122 599 l 1
 114 613 l 1
 106 627 l 1
 96 640 l 1
 86 654 l 1
 74 667 l 1
 62 679 l 1
EndSplineSet
Comment: "Kage: aj1-00388+AAoA-Alias: uf0184"
EndChar
StartChar: uF0185
Encoding: 983429 983429 62
Width: 1000
VWidth: 0
Flags: MW
LayerCount: 2
Fore
SplineSet
78 622 m 1
 79 640 l 1
 83 656 l 1
 90 671 l 1
 98 684 l 1
 108 697 l 1
 120 708 l 1
 134 716 l 1
 149 722 l 1
 166 726 l 1
 182 727 l 1
 182 667 l 1
 174 666 l 1
 168 665 l 1
 162 662 l 1
 156 659 l 1
 150 654 l 1
 146 650 l 1
 142 644 l 1
 140 638 l 1
 138 630 l 1
 138 622 l 1
 78 622 l 1
78 622 m 1
 138 622 l 1
 138 615 l 1
 140 608 l 1
 142 602 l 1
 146 596 l 1
 150 591 l 1
 156 586 l 1
 162 583 l 1
 168 580 l 1
 174 579 l 1
 182 578 l 1
 182 518 l 1
 166 520 l 1
 149 524 l 1
 134 530 l 1
 120 538 l 1
 108 548 l 1
 98 561 l 1
 90 574 l 1
 83 590 l 1
 79 606 l 1
 78 622 l 1
182 518 m 1
 182 578 l 1
 190 579 l 1
 197 580 l 1
 203 583 l 1
 209 586 l 1
 214 591 l 1
 218 596 l 1
 222 602 l 1
 224 608 l 1
 226 615 l 1
 226 622 l 1
 286 622 l 1
 286 606 l 1
 282 590 l 1
 275 574 l 1
 267 561 l 1
 256 548 l 1
 244 538 l 1
 230 530 l 1
 216 524 l 1
 199 520 l 1
 182 518 l 1
182 667 m 1
 182 727 l 1
 199 726 l 1
 216 722 l 1
 230 716 l 1
 244 708 l 1
 256 697 l 1
 267 684 l 1
 275 671 l 1
 282 656 l 1
 286 640 l 1
 286 622 l 1
 226 623 l 1
 226 630 l 1
 224 638 l 1
 222 644 l 1
 218 650 l 1
 214 654 l 1
 209 659 l 1
 203 662 l 1
 197 665 l 1
 190 666 l 1
 182 667 l 1
EndSplineSet
Comment: "Kage: aj1-00389+AAoA-Alias: uf0185"
Colour: ffff00
EndChar
StartChar: uF0187
Encoding: 983431 983431 63
Width: 500
VWidth: 0
Flags: MW
LayerCount: 2
Fore
SplineSet
268 266 m 1
 268 342 l 1
 268 412 l 1
 269 454 l 1
 248 451 l 1
 248 454 l 1
 245 453 l 1
 219 447 l 1
 196 443 l 1
 176 439 l 1
 158 436 l 1
 154 435 l 1
 153 433 l 1
 137 425 l 1
 119 430 l 1
 112 440 l 1
 108 449 l 1
 104 458 l 1
 102 469 l 1
 101 480 l 1
 100 490 l 1
 100 500 l 1
 102 512 l 1
 104 523 l 1
 105 536 l 1
 113 535 l 1
 113 523 l 1
 116 512 l 1
 120 504 l 1
 124 495 l 1
 128 487 l 1
 132 482 l 1
 135 479 l 1
 140 480 l 1
 154 480 l 1
 172 479 l 1
 192 479 l 1
 214 481 l 1
 240 483 l 1
 268 484 l 1
 268 486 l 1
 268 541 l 1
 268 598 l 1
 268 646 l 1
 267 654 l 1
 265 661 l 1
 262 667 l 1
 260 672 l 1
 259 677 l 1
 256 681 l 1
 251 681 l 1
 249 691 l 1
 258 689 l 1
 265 690 l 1
 273 688 l 1
 280 684 l 1
 288 678 l 1
 294 670 l 1
 303 662 l 1
 308 654 l 1
 315 653 l 1
 316 639 l 1
 323 627 l 1
 321 609 l 1
 316 605 l 1
 316 598 l 1
 316 541 l 1
 315 490 l 1
 334 491 l 1
 359 494 l 1
 362 500 l 1
 368 505 l 1
 378 507 l 1
 386 505 l 1
 395 502 l 1
 401 495 l 1
 407 489 l 1
 413 480 l 1
 420 469 l 1
 420 451 l 1
 406 437 l 1
 388 439 l 1
 377 450 l 1
 373 453 l 1
 371 454 l 1
 365 455 l 1
 356 457 l 1
 344 458 l 1
 330 458 l 1
 313 457 l 1
 315 457 l 1
 316 412 l 1
 316 342 l 1
 316 266 l 1
 315 216 l 1
 354 218 l 1
 387 221 l 1
 387 223 l 1
 392 229 l 1
 399 233 l 1
 408 235 l 1
 418 234 l 1
 426 230 l 1
 435 224 l 1
 443 215 l 1
 450 207 l 1
 458 193 l 1
 459 176 l 1
 446 162 l 1
 426 162 l 1
 415 174 l 1
 408 174 l 1
 407 177 l 1
 403 177 l 1
 393 179 l 1
 382 183 l 1
 366 183 l 1
 346 183 l 1
 325 182 l 1
 315 181 l 1
 316 100 l 1
 316 10 l 1
 316 -86 l 1
 309 -102 l 1
 292 -110 l 1
 275 -102 l 1
 268 -86 l 1
 268 10 l 1
 268 100 l 1
 269 178 l 1
 241 175 l 1
 241 179 l 1
 234 177 l 1
 202 172 l 1
 173 165 l 1
 146 163 l 1
 122 160 l 1
 117 160 l 1
 117 157 l 1
 101 147 l 1
 83 151 l 1
 72 161 l 1
 66 172 l 1
 61 182 l 1
 57 193 l 1
 54 205 l 1
 52 217 l 1
 52 229 l 1
 53 242 l 1
 55 254 l 1
 55 269 l 1
 63 269 l 1
 65 254 l 1
 67 243 l 1
 72 233 l 1
 76 223 l 1
 81 215 l 1
 86 209 l 1
 92 203 l 1
 102 205 l 1
 120 204 l 1
 142 203 l 1
 152 204 l 1
 152 363 l 1
 154 363 l 1
 153 367 l 1
 152 373 l 1
 150 379 l 1
 149 383 l 1
 145 387 l 1
 142 391 l 1
 137 391 l 1
 135 401 l 1
 144 399 l 1
 150 399 l 1
 159 398 l 1
 166 396 l 1
 174 390 l 1
 180 384 l 1
 187 376 l 1
 193 368 l 1
 196 364 l 1
 198 363 l 1
 199 357 l 1
 204 344 l 1
 201 327 l 1
 199 326 l 1
 198 206 l 1
 232 209 l 1
 268 211 l 1
 268 212 l 1
 268 266 l 1
EndSplineSet
Comment: "Kage: aj1-00391+AAoA-Alias: uf0187"
EndChar
StartChar: uF0188
Encoding: 983432 983432 64
Width: 1000
VWidth: 0
Flags: MW
LayerCount: 2
Fore
SplineSet
49 100 m 1
 50 112 l 1
 51 125 l 1
 54 138 l 1
 55 150 l 1
 64 150 l 1
 65 138 l 1
 69 126 l 1
 74 117 l 1
 78 108 l 1
 84 101 l 1
 89 95 l 1
 94 90 l 1
 100 88 l 1
 105 85 l 1
 110 84 l 1
 75 35 l 1
 67 44 l 1
 60 55 l 1
 56 66 l 1
 52 78 l 1
 50 89 l 1
 49 100 l 1
75 35 m 1
 110 84 l 1
 122 64 l 1
 117 42 l 1
 97 30 l 1
 75 35 l 1
88 95 m 1
 102 94 l 1
 120 94 l 1
 142 94 l 1
 168 94 l 1
 198 95 l 1
 231 96 l 1
 268 98 l 1
 308 101 l 1
 354 103 l 1
 402 104 l 1
 403 96 l 1
 356 84 l 1
 312 74 l 1
 272 66 l 1
 236 59 l 1
 202 53 l 1
 172 48 l 1
 146 44 l 1
 124 40 l 1
 104 37 l 1
 88 35 l 1
 88 95 l 1
94 506 m 1
 94 517 l 1
 95 528 l 1
 98 539 l 1
 98 550 l 1
 107 550 l 1
 108 540 l 1
 112 530 l 1
 117 522 l 1
 122 514 l 1
 127 508 l 1
 132 502 l 1
 138 498 l 1
 144 494 l 1
 150 490 l 1
 156 488 l 1
 116 443 l 1
 110 452 l 1
 104 462 l 1
 100 474 l 1
 96 484 l 1
 94 495 l 1
 94 506 l 1
116 443 m 1
 156 488 l 1
 166 467 l 1
 158 446 l 1
 138 436 l 1
 116 443 l 1
126 500 m 1
 137 500 l 1
 150 501 l 1
 166 502 l 1
 184 504 l 1
 204 505 l 1
 226 507 l 1
 251 509 l 1
 278 511 l 1
 308 512 l 1
 339 514 l 1
 340 506 l 1
 310 496 l 1
 282 487 l 1
 256 479 l 1
 233 472 l 1
 212 466 l 1
 192 460 l 1
 176 454 l 1
 161 449 l 1
 148 444 l 1
 138 441 l 1
 126 500 l 1
208 350 m 1
 208 360 l 1
 214 360 l 1
 222 360 l 1
 232 359 l 1
 240 355 l 1
 248 350 l 1
 256 342 l 1
 264 333 l 1
 272 322 l 1
 278 311 l 1
 284 298 l 1
 227 282 l 1
 226 294 l 1
 224 304 l 1
 223 314 l 1
 222 322 l 1
 220 328 l 1
 218 334 l 1
 217 340 l 1
 215 345 l 1
 212 350 l 1
 208 350 l 1
220 305 m 1
 280 305 l 1
 280 70 l 1
 220 70 l 1
 220 305 l 1
227 282 m 1
 284 298 l 1
 282 275 l 1
 264 261 l 1
 241 264 l 1
 227 282 l 1
238 481 m 1
 258 488 l 1
 276 496 l 1
 291 502 l 1
 305 509 l 1
 317 514 l 1
 328 518 l 1
 338 522 l 1
 346 524 l 1
 358 524 l 1
 375 516 l 1
 330 477 l 1
 342 471 l 1
 344 473 l 1
 340 475 l 1
 334 477 l 1
 324 478 l 1
 312 478 l 1
 296 478 l 1
 280 478 l 1
 261 476 l 1
 241 472 l 1
 238 481 l 1
244 70 m 1
 246 62 l 1
 275 64 l 1
 302 66 l 1
 326 66 l 1
 348 66 l 1
 366 66 l 1
 381 64 l 1
 394 62 l 1
 402 60 l 1
 405 58 l 1
 402 58 l 1
 432 108 l 1
 418 112 l 1
 406 112 l 1
 393 110 l 1
 378 108 l 1
 362 104 l 1
 344 100 l 1
 322 94 l 1
 298 87 l 1
 272 78 l 1
 244 70 l 1
254 313 m 1
 266 336 l 1
 277 357 l 1
 288 377 l 1
 298 396 l 1
 306 414 l 1
 314 430 l 1
 322 446 l 1
 328 460 l 1
 334 473 l 1
 338 484 l 1
 391 456 l 1
 382 444 l 1
 374 432 l 1
 363 420 l 1
 352 406 l 1
 340 392 l 1
 326 376 l 1
 312 360 l 1
 296 344 l 1
 278 326 l 1
 261 308 l 1
 254 313 l 1
327 502 m 1
 330 512 l 1
 331 521 l 1
 335 530 l 1
 345 536 l 1
 358 536 l 1
 369 530 l 1
 378 522 l 1
 386 512 l 1
 394 499 l 1
 402 484 l 1
 344 466 l 1
 342 480 l 1
 340 492 l 1
 339 500 l 1
 338 505 l 1
 340 507 l 1
 346 508 l 1
 348 512 l 1
 344 512 l 1
 338 508 l 1
 336 499 l 1
 327 502 l 1
330 477 m 1
 375 516 l 1
 382 494 l 1
 372 474 l 1
 350 467 l 1
 330 477 l 1
344 466 m 1
 402 484 l 1
 399 461 l 1
 382 446 l 1
 359 448 l 1
 344 466 l 1
386 102 m 1
 391 107 l 1
 394 114 l 1
 401 119 l 1
 410 122 l 1
 420 120 l 1
 428 117 l 1
 437 112 l 1
 445 104 l 1
 453 96 l 1
 460 86 l 1
 406 62 l 1
 404 70 l 1
 403 78 l 1
 402 84 l 1
 402 88 l 1
 402 92 l 1
 404 94 l 1
 404 97 l 1
 402 100 l 1
 398 100 l 1
 394 96 l 1
 386 102 l 1
402 58 m 1
 432 108 l 1
 446 90 l 1
 442 68 l 1
 424 54 l 1
 402 58 l 1
406 62 m 1
 460 86 l 1
 462 64 l 1
 446 46 l 1
 423 46 l 1
 406 62 l 1
EndSplineSet
Comment: "Kage: aj1-00392+AAoA-Alias: uf0188"
Colour: ffff00
EndChar
StartChar: uF0189
Encoding: 983433 983433 65
Width: 500
VWidth: 0
Flags: MW
LayerCount: 2
Fore
SplineSet
123 436 m 1
 127 446 l 1
 132 441 l 1
 137 438 l 1
 142 435 l 1
 148 429 l 1
 152 422 l 1
 157 414 l 1
 161 405 l 1
 165 398 l 1
 166 397 l 1
 169 396 l 1
 173 396 l 1
 174 395 l 1
 177 395 l 1
 178 396 l 1
 179 396 l 1
 182 398 l 1
 185 395 l 1
 187 396 l 1
 198 395 l 1
 210 396 l 1
 226 397 l 1
 244 399 l 1
 264 399 l 1
 288 400 l 1
 313 402 l 1
 322 405 l 1
 328 407 l 1
 331 411 l 1
 338 417 l 1
 348 418 l 1
 358 416 l 1
 367 409 l 1
 374 401 l 1
 379 392 l 1
 384 379 l 1
 388 365 l 1
 384 347 l 1
 379 345 l 1
 374 299 l 1
 362 232 l 1
 348 171 l 1
 330 113 l 1
 308 60 l 1
 283 14 l 1
 255 -28 l 1
 224 -64 l 1
 189 -95 l 1
 152 -119 l 1
 147 -114 l 1
 178 -78 l 1
 206 -41 l 1
 230 -1 l 1
 253 42 l 1
 273 89 l 1
 290 139 l 1
 306 193 l 1
 318 250 l 1
 327 311 l 1
 334 367 l 1
 332 370 l 1
 331 370 l 1
 325 372 l 1
 316 374 l 1
 304 374 l 1
 292 374 l 1
 277 373 l 1
 260 372 l 1
 241 367 l 1
 241 369 l 1
 231 365 l 1
 216 361 l 1
 204 357 l 1
 194 354 l 1
 188 351 l 1
 180 348 l 1
 178 355 l 1
 171 355 l 1
 172 348 l 1
 172 331 l 1
 172 313 l 1
 172 295 l 1
 172 276 l 1
 172 256 l 1
 172 236 l 1
 172 214 l 1
 172 192 l 1
 172 169 l 1
 165 153 l 1
 148 146 l 1
 131 153 l 1
 124 169 l 1
 124 192 l 1
 124 214 l 1
 124 236 l 1
 124 256 l 1
 124 276 l 1
 124 295 l 1
 124 313 l 1
 124 331 l 1
 124 348 l 1
 124 364 l 1
 124 376 l 1
 124 388 l 1
 125 398 l 1
 125 406 l 1
 126 414 l 1
 125 420 l 1
 125 426 l 1
 124 431 l 1
 125 435 l 1
 123 436 l 1
EndSplineSet
Comment: "Kage: aj1-00393+AAoA-Alias: uf0189"
EndChar
StartChar: uF018A
Encoding: 983434 983434 66
Width: 1000
VWidth: 0
Flags: MW
LayerCount: 2
Fore
SplineSet
78 -96 m 1
 106 -61 l 1
 129 -23 l 1
 150 18 l 1
 168 63 l 1
 182 114 l 1
 196 172 l 1
 207 236 l 1
 216 309 l 1
 224 391 l 1
 230 482 l 1
 290 478 l 1
 280 386 l 1
 269 302 l 1
 256 228 l 1
 241 161 l 1
 224 102 l 1
 202 49 l 1
 179 2 l 1
 152 -38 l 1
 120 -73 l 1
 85 -103 l 1
 78 -96 l 1
78 -97 m 1
 104 -56 l 1
 127 -14 l 1
 148 29 l 1
 165 74 l 1
 180 124 l 1
 194 180 l 1
 205 242 l 1
 215 313 l 1
 223 392 l 1
 230 482 l 1
 290 478 l 1
 280 386 l 1
 268 306 l 1
 254 234 l 1
 239 169 l 1
 221 112 l 1
 200 60 l 1
 176 14 l 1
 150 -28 l 1
 120 -66 l 1
 85 -102 l 1
 78 -97 l 1
107 300 m 1
 108 308 l 1
 109 318 l 1
 112 328 l 1
 114 338 l 1
 115 348 l 1
 124 347 l 1
 124 338 l 1
 128 328 l 1
 132 321 l 1
 136 314 l 1
 140 310 l 1
 144 306 l 1
 149 302 l 1
 153 301 l 1
 156 300 l 1
 159 301 l 1
 121 254 l 1
 116 263 l 1
 112 272 l 1
 109 281 l 1
 108 290 l 1
 107 300 l 1
121 254 m 1
 159 301 l 1
 170 280 l 1
 164 258 l 1
 143 248 l 1
 121 254 l 1
135 306 m 1
 141 305 l 1
 151 305 l 1
 164 306 l 1
 180 306 l 1
 200 308 l 1
 224 310 l 1
 250 312 l 1
 280 315 l 1
 312 318 l 1
 349 320 l 1
 350 312 l 1
 316 301 l 1
 284 291 l 1
 256 282 l 1
 230 275 l 1
 208 268 l 1
 189 262 l 1
 174 258 l 1
 160 253 l 1
 151 250 l 1
 144 246 l 1
 135 306 l 1
226 58 m 1
 234 63 l 1
 247 47 l 1
 261 34 l 1
 274 20 l 1
 285 9 l 1
 295 -2 l 1
 304 -12 l 1
 312 -20 l 1
 318 -28 l 1
 324 -36 l 1
 329 -44 l 1
 270 -59 l 1
 272 -56 l 1
 272 -50 l 1
 270 -43 l 1
 268 -33 l 1
 264 -22 l 1
 258 -8 l 1
 252 6 l 1
 245 22 l 1
 237 40 l 1
 226 58 l 1
226 510 m 1
 232 510 l 1
 238 512 l 1
 244 514 l 1
 252 512 l 1
 259 510 l 1
 266 506 l 1
 273 502 l 1
 280 496 l 1
 286 488 l 1
 291 480 l 1
 234 460 l 1
 234 467 l 1
 235 472 l 1
 235 478 l 1
 236 482 l 1
 236 486 l 1
 236 490 l 1
 235 493 l 1
 234 497 l 1
 231 500 l 1
 228 500 l 1
 226 510 l 1
234 460 m 1
 291 480 l 1
 290 458 l 1
 272 442 l 1
 250 444 l 1
 234 460 l 1
242 290 m 1
 244 281 l 1
 263 284 l 1
 280 284 l 1
 296 284 l 1
 310 284 l 1
 322 283 l 1
 332 282 l 1
 338 280 l 1
 342 278 l 1
 342 276 l 1
 332 278 l 1
 369 325 l 1
 353 330 l 1
 344 328 l 1
 336 326 l 1
 326 323 l 1
 316 319 l 1
 304 314 l 1
 292 308 l 1
 276 302 l 1
 260 295 l 1
 242 290 l 1
275 -68 m 1
 280 -46 l 1
 329 -80 l 1
 310 -92 l 1
 287 -88 l 1
 275 -68 l 1
280 -46 m 1
 282 -40 l 1
 288 -23 l 1
 295 1 l 1
 302 31 l 1
 309 66 l 1
 316 106 l 1
 322 148 l 1
 328 192 l 1
 332 239 l 1
 336 286 l 1
 396 282 l 1
 392 234 l 1
 387 186 l 1
 382 140 l 1
 375 96 l 1
 368 56 l 1
 361 18 l 1
 354 -14 l 1
 346 -41 l 1
 338 -62 l 1
 329 -80 l 1
 280 -46 l 1
332 278 m 1
 369 325 l 1
 380 305 l 1
 374 283 l 1
 354 272 l 1
 332 278 l 1
332 315 m 1
 336 320 l 1
 338 326 l 1
 346 330 l 1
 355 331 l 1
 364 328 l 1
 371 322 l 1
 378 316 l 1
 384 308 l 1
 391 299 l 1
 398 288 l 1
 340 269 l 1
 340 280 l 1
 338 288 l 1
 338 296 l 1
 338 300 l 1
 339 304 l 1
 341 306 l 1
 344 308 l 1
 346 312 l 1
 342 314 l 1
 340 310 l 1
 332 315 l 1
340 269 m 1
 398 288 l 1
 396 265 l 1
 378 250 l 1
 356 252 l 1
 340 269 l 1
EndSplineSet
Comment: "Kage: aj1-00394+AAoA-Alias: uf018a"
Colour: ffff00
EndChar
StartChar: uF018B
Encoding: 983435 983435 67
Width: 500
VWidth: 0
Flags: MW
LayerCount: 2
Fore
SplineSet
175 492 m 1
 173 502 l 1
 182 500 l 1
 188 501 l 1
 195 499 l 1
 201 495 l 1
 208 490 l 1
 214 484 l 1
 221 476 l 1
 227 467 l 1
 233 457 l 1
 238 445 l 1
 236 426 l 1
 230 421 l 1
 226 401 l 1
 215 359 l 1
 205 319 l 1
 199 300 l 1
 203 297 l 1
 204 295 l 1
 214 294 l 1
 226 293 l 1
 240 294 l 1
 257 295 l 1
 276 298 l 1
 296 298 l 1
 319 300 l 1
 344 302 l 1
 349 304 l 1
 357 306 l 1
 361 308 l 1
 363 311 l 1
 368 317 l 1
 376 318 l 1
 385 316 l 1
 392 313 l 1
 397 307 l 1
 402 302 l 1
 407 294 l 1
 412 285 l 1
 411 266 l 1
 397 254 l 1
 378 256 l 1
 369 267 l 1
 368 267 l 1
 367 269 l 1
 365 270 l 1
 364 270 l 1
 360 273 l 1
 352 273 l 1
 342 274 l 1
 330 274 l 1
 316 273 l 1
 301 272 l 1
 292 270 l 1
 296 267 l 1
 301 263 l 1
 305 259 l 1
 309 254 l 1
 314 246 l 1
 314 243 l 1
 314 242 l 1
 314 228 l 1
 312 226 l 1
 308 189 l 1
 299 139 l 1
 287 91 l 1
 272 45 l 1
 255 3 l 1
 235 -35 l 1
 212 -68 l 1
 187 -96 l 1
 158 -118 l 1
 130 -130 l 1
 128 -131 l 1
 126 -132 l 1
 123 -131 l 1
 120 -128 l 1
 123 -125 l 1
 127 -122 l 1
 147 -99 l 1
 168 -70 l 1
 187 -40 l 1
 205 -9 l 1
 221 26 l 1
 235 64 l 1
 247 105 l 1
 254 149 l 1
 262 196 l 1
 267 249 l 1
 269 249 l 1
 269 250 l 1
 268 254 l 1
 268 257 l 1
 268 260 l 1
 267 262 l 1
 265 262 l 1
 266 265 l 1
 262 263 l 1
 245 259 l 1
 231 256 l 1
 218 253 l 1
 217 252 l 1
 216 250 l 1
 198 244 l 1
 182 250 l 1
 181 244 l 1
 167 209 l 1
 152 176 l 1
 136 145 l 1
 118 117 l 1
 98 89 l 1
 92 94 l 1
 105 124 l 1
 116 155 l 1
 128 187 l 1
 140 220 l 1
 149 255 l 1
 157 291 l 1
 167 329 l 1
 175 368 l 1
 180 409 l 1
 187 454 l 1
 188 454 l 1
 187 461 l 1
 185 468 l 1
 184 475 l 1
 184 479 l 1
 182 484 l 1
 181 488 l 1
 180 491 l 1
 175 492 l 1
EndSplineSet
Comment: "Kage: aj1-00395+AAoA-Alias: uf018b"
EndChar
StartChar: uF018C
Encoding: 983436 983436 68
Width: 1000
VWidth: 0
Flags: MW
LayerCount: 2
Fore
SplineSet
92 259 m 1
 92 283 l 1
 92 306 l 1
 92 329 l 1
 92 351 l 1
 92 373 l 1
 92 394 l 1
 92 415 l 1
 92 435 l 1
 152 435 l 1
 152 415 l 1
 152 394 l 1
 152 373 l 1
 152 351 l 1
 152 329 l 1
 152 306 l 1
 152 283 l 1
 152 259 l 1
 152 235 l 1
 152 210 l 1
 92 210 l 1
 92 235 l 1
 92 259 l 1
92 210 m 1
 152 210 l 1
 144 189 l 1
 122 180 l 1
 102 189 l 1
 92 210 l 1
93 436 m 1
 93 452 l 1
 94 465 l 1
 94 477 l 1
 94 488 l 1
 94 497 l 1
 94 505 l 1
 94 512 l 1
 96 517 l 1
 96 522 l 1
 94 524 l 1
 98 532 l 1
 104 530 l 1
 110 527 l 1
 116 522 l 1
 122 516 l 1
 128 507 l 1
 134 498 l 1
 138 486 l 1
 144 474 l 1
 148 460 l 1
 152 444 l 1
 93 436 l 1
93 436 m 1
 152 444 l 1
 146 422 l 1
 126 410 l 1
 104 416 l 1
 93 436 l 1
122 -96 m 1
 162 -58 l 1
 197 -16 l 1
 230 28 l 1
 258 76 l 1
 283 127 l 1
 304 182 l 1
 322 241 l 1
 337 304 l 1
 348 372 l 1
 355 443 l 1
 414 438 l 1
 404 363 l 1
 390 293 l 1
 370 227 l 1
 348 166 l 1
 322 108 l 1
 290 56 l 1
 256 8 l 1
 217 -34 l 1
 174 -72 l 1
 128 -104 l 1
 122 -96 l 1
122 -96 m 1
 162 -66 l 1
 197 -32 l 1
 229 8 l 1
 257 52 l 1
 282 102 l 1
 304 158 l 1
 322 220 l 1
 336 288 l 1
 347 362 l 1
 355 443 l 1
 414 438 l 1
 404 354 l 1
 388 278 l 1
 370 206 l 1
 347 142 l 1
 320 84 l 1
 290 32 l 1
 254 -13 l 1
 216 -51 l 1
 173 -82 l 1
 127 -104 l 1
 122 -96 l 1
126 474 m 1
 134 478 l 1
 136 474 l 1
 141 472 l 1
 146 472 l 1
 150 471 l 1
 154 470 l 1
 158 471 l 1
 160 472 l 1
 163 474 l 1
 164 476 l 1
 164 478 l 1
 142 423 l 1
 138 428 l 1
 135 432 l 1
 132 438 l 1
 131 443 l 1
 130 448 l 1
 129 453 l 1
 128 458 l 1
 128 464 l 1
 128 470 l 1
 126 474 l 1
142 423 m 1
 164 478 l 1
 180 462 l 1
 181 440 l 1
 165 424 l 1
 142 423 l 1
153 474 m 1
 160 474 l 1
 170 474 l 1
 184 474 l 1
 200 476 l 1
 219 476 l 1
 242 478 l 1
 267 480 l 1
 296 481 l 1
 328 482 l 1
 364 484 l 1
 366 476 l 1
 331 466 l 1
 300 458 l 1
 272 450 l 1
 248 442 l 1
 226 436 l 1
 207 431 l 1
 192 426 l 1
 180 422 l 1
 172 419 l 1
 166 416 l 1
 153 474 l 1
210 676 m 1
 210 684 l 1
 216 684 l 1
 223 685 l 1
 231 683 l 1
 239 680 l 1
 247 674 l 1
 254 666 l 1
 262 658 l 1
 269 648 l 1
 276 637 l 1
 283 624 l 1
 226 604 l 1
 224 617 l 1
 222 628 l 1
 221 638 l 1
 219 646 l 1
 218 654 l 1
 216 660 l 1
 216 666 l 1
 214 670 l 1
 213 674 l 1
 210 676 l 1
220 455 m 1
 220 630 l 1
 280 630 l 1
 280 455 l 1
 220 455 l 1
226 604 m 1
 283 624 l 1
 282 602 l 1
 264 586 l 1
 242 588 l 1
 226 604 l 1
241 451 m 1
 243 442 l 1
 265 446 l 1
 286 447 l 1
 304 448 l 1
 320 448 l 1
 333 447 l 1
 344 446 l 1
 352 444 l 1
 358 442 l 1
 358 439 l 1
 352 440 l 1
 388 488 l 1
 374 492 l 1
 362 492 l 1
 352 490 l 1
 340 488 l 1
 328 484 l 1
 314 479 l 1
 298 473 l 1
 281 466 l 1
 262 458 l 1
 241 451 l 1
342 477 m 1
 349 484 l 1
 354 493 l 1
 362 499 l 1
 374 502 l 1
 386 498 l 1
 396 491 l 1
 404 482 l 1
 410 470 l 1
 416 456 l 1
 422 440 l 1
 363 430 l 1
 362 444 l 1
 362 455 l 1
 362 463 l 1
 362 468 l 1
 364 472 l 1
 366 474 l 1
 366 476 l 1
 362 478 l 1
 356 478 l 1
 349 471 l 1
 342 477 l 1
342 688 m 1
 349 694 l 1
 358 686 l 1
 368 676 l 1
 378 666 l 1
 386 655 l 1
 394 642 l 1
 402 629 l 1
 410 614 l 1
 416 600 l 1
 423 583 l 1
 428 566 l 1
 370 554 l 1
 368 570 l 1
 367 586 l 1
 365 600 l 1
 362 614 l 1
 360 628 l 1
 357 642 l 1
 354 654 l 1
 350 666 l 1
 348 678 l 1
 342 688 l 1
352 440 m 1
 388 488 l 1
 400 468 l 1
 394 446 l 1
 375 434 l 1
 352 440 l 1
363 430 m 1
 422 440 l 1
 416 418 l 1
 397 406 l 1
 375 411 l 1
 363 430 l 1
370 554 m 1
 428 566 l 1
 424 544 l 1
 405 530 l 1
 383 535 l 1
 370 554 l 1
392 744 m 1
 399 750 l 1
 408 742 l 1
 418 734 l 1
 428 726 l 1
 438 716 l 1
 446 705 l 1
 454 693 l 1
 462 680 l 1
 468 666 l 1
 475 652 l 1
 481 636 l 1
 422 624 l 1
 421 638 l 1
 420 651 l 1
 418 664 l 1
 415 676 l 1
 412 688 l 1
 410 700 l 1
 406 712 l 1
 402 723 l 1
 398 734 l 1
 392 744 l 1
422 624 m 1
 481 636 l 1
 476 614 l 1
 458 600 l 1
 436 605 l 1
 422 624 l 1
EndSplineSet
Comment: "Kage: aj1-00396+AAoA-Alias: uf018c"
Colour: ffff00
EndChar
StartChar: uF018D
Encoding: 983437 983437 69
Width: 500
VWidth: 0
Flags: MW
LayerCount: 2
Fore
SplineSet
221 124 m 1
 227 128 l 1
 245 107 l 1
 261 89 l 1
 276 73 l 1
 288 57 l 1
 300 44 l 1
 309 32 l 1
 314 23 l 1
 318 45 l 1
 328 85 l 1
 336 130 l 1
 346 179 l 1
 354 232 l 1
 360 289 l 1
 366 347 l 1
 372 403 l 1
 368 405 l 1
 369 403 l 1
 366 404 l 1
 361 406 l 1
 352 409 l 1
 338 409 l 1
 323 409 l 1
 306 408 l 1
 285 406 l 1
 262 404 l 1
 257 403 l 1
 248 336 l 1
 230 253 l 1
 208 179 l 1
 183 115 l 1
 155 57 l 1
 122 4 l 1
 85 -39 l 1
 42 -78 l 1
 37 -78 l 1
 37 -73 l 1
 37 -72 l 1
 40 -68 l 1
 70 -21 l 1
 101 29 l 1
 127 83 l 1
 151 140 l 1
 172 203 l 1
 189 273 l 1
 204 351 l 1
 213 398 l 1
 197 393 l 1
 173 387 l 1
 153 383 l 1
 137 379 l 1
 139 379 l 1
 138 376 l 1
 123 368 l 1
 105 372 l 1
 96 382 l 1
 91 392 l 1
 85 403 l 1
 82 414 l 1
 79 426 l 1
 80 438 l 1
 79 450 l 1
 81 462 l 1
 83 474 l 1
 83 489 l 1
 91 489 l 1
 91 474 l 1
 95 463 l 1
 99 453 l 1
 103 443 l 1
 108 435 l 1
 112 428 l 1
 118 422 l 1
 121 419 l 1
 129 420 l 1
 146 421 l 1
 166 424 l 1
 190 427 l 1
 217 432 l 1
 218 439 l 1
 229 539 l 1
 239 654 l 1
 238 655 l 1
 236 661 l 1
 234 666 l 1
 231 670 l 1
 227 673 l 1
 224 677 l 1
 217 677 l 1
 214 687 l 1
 224 685 l 1
 231 688 l 1
 239 687 l 1
 248 684 l 1
 255 680 l 1
 264 676 l 1
 272 668 l 1
 280 660 l 1
 284 653 l 1
 285 652 l 1
 286 649 l 1
 286 650 l 1
 292 637 l 1
 291 619 l 1
 283 612 l 1
 276 533 l 1
 261 436 l 1
 288 441 l 1
 329 446 l 1
 357 450 l 1
 359 454 l 1
 367 458 l 1
 378 458 l 1
 387 454 l 1
 395 447 l 1
 404 438 l 1
 409 426 l 1
 418 413 l 1
 424 397 l 1
 424 379 l 1
 416 372 l 1
 414 344 l 1
 408 284 l 1
 401 226 l 1
 392 171 l 1
 384 121 l 1
 374 74 l 1
 364 33 l 1
 354 -1 l 1
 344 -30 l 1
 333 -51 l 1
 317 -60 l 1
 299 -57 l 1
 290 -41 l 1
 292 -24 l 1
 297 -21 l 1
 291 -24 l 1
 288 -15 l 1
 286 -8 l 1
 283 1 l 1
 279 13 l 1
 274 27 l 1
 266 43 l 1
 256 60 l 1
 247 79 l 1
 235 102 l 1
 221 124 l 1
341 682 m 1
 346 686 l 1
 356 677 l 1
 365 667 l 1
 375 656 l 1
 383 643 l 1
 391 631 l 1
 399 617 l 1
 405 601 l 1
 412 585 l 1
 418 568 l 1
 424 549 l 1
 421 531 l 1
 405 522 l 1
 388 524 l 1
 376 539 l 1
 374 558 l 1
 373 574 l 1
 369 589 l 1
 366 605 l 1
 364 619 l 1
 360 633 l 1
 355 645 l 1
 351 659 l 1
 347 671 l 1
 341 682 l 1
391 736 m 1
 396 741 l 1
 406 733 l 1
 416 725 l 1
 425 715 l 1
 434 704 l 1
 442 693 l 1
 451 679 l 1
 457 666 l 1
 464 651 l 1
 471 637 l 1
 476 620 l 1
 474 602 l 1
 458 592 l 1
 440 594 l 1
 429 608 l 1
 427 625 l 1
 425 639 l 1
 422 653 l 1
 419 667 l 1
 416 679 l 1
 412 692 l 1
 407 703 l 1
 403 715 l 1
 397 727 l 1
 391 736 l 1
EndSplineSet
Comment: "Kage: aj1-00397+AAoA-Alias: uf018d"
EndChar
StartChar: uF018E
Encoding: 983438 983438 70
Width: 500
VWidth: 0
Flags: MW
LayerCount: 2
Fore
SplineSet
177 649 m 1
 183 653 l 1
 188 658 l 1
 196 660 l 1
 204 660 l 1
 213 659 l 1
 222 655 l 1
 230 649 l 1
 239 641 l 1
 243 636 l 1
 247 635 l 1
 248 628 l 1
 254 620 l 1
 256 602 l 1
 251 596 l 1
 252 578 l 1
 256 520 l 1
 261 458 l 1
 260 457 l 1
 287 467 l 1
 328 482 l 1
 328 480 l 1
 333 483 l 1
 333 485 l 1
 338 493 l 1
 346 499 l 1
 356 503 l 1
 367 500 l 1
 376 496 l 1
 385 491 l 1
 394 482 l 1
 399 464 l 1
 389 448 l 1
 369 445 l 1
 367 446 l 1
 366 445 l 1
 360 445 l 1
 351 444 l 1
 339 442 l 1
 323 437 l 1
 305 432 l 1
 283 425 l 1
 264 418 l 1
 266 391 l 1
 272 320 l 1
 278 246 l 1
 278 223 l 1
 283 225 l 1
 328 242 l 1
 378 262 l 1
 380 267 l 1
 390 275 l 1
 400 279 l 1
 413 279 l 1
 425 274 l 1
 435 266 l 1
 444 256 l 1
 446 237 l 1
 434 222 l 1
 416 221 l 1
 415 222 l 1
 413 220 l 1
 406 221 l 1
 397 220 l 1
 381 218 l 1
 375 216 l 1
 372 213 l 1
 367 214 l 1
 363 213 l 1
 341 205 l 1
 315 197 l 1
 286 185 l 1
 282 185 l 1
 284 168 l 1
 290 84 l 1
 298 -2 l 1
 306 -94 l 1
 299 -111 l 1
 283 -119 l 1
 265 -113 l 1
 258 -97 l 1
 250 -6 l 1
 242 82 l 1
 236 164 l 1
 237 169 l 1
 217 161 l 1
 175 144 l 1
 174 146 l 1
 163 141 l 1
 142 132 l 1
 130 126 l 1
 130 123 l 1
 114 112 l 1
 96 114 l 1
 87 123 l 1
 79 131 l 1
 74 141 l 1
 69 151 l 1
 67 161 l 1
 64 172 l 1
 64 182 l 1
 65 192 l 1
 65 202 l 1
 66 213 l 1
 74 213 l 1
 75 203 l 1
 78 194 l 1
 83 187 l 1
 88 179 l 1
 92 174 l 1
 97 169 l 1
 102 164 l 1
 104 164 l 1
 112 166 l 1
 129 169 l 1
 151 176 l 1
 177 185 l 1
 207 197 l 1
 233 206 l 1
 230 243 l 1
 224 318 l 1
 218 388 l 1
 218 403 l 1
 202 397 l 1
 166 384 l 1
 166 386 l 1
 165 385 l 1
 149 377 l 1
 136 371 l 1
 134 369 l 1
 125 362 l 1
 119 363 l 1
 114 362 l 1
 113 364 l 1
 107 364 l 1
 98 371 l 1
 91 379 l 1
 85 388 l 1
 81 398 l 1
 78 407 l 1
 76 417 l 1
 74 427 l 1
 75 437 l 1
 77 447 l 1
 76 459 l 1
 84 459 l 1
 85 448 l 1
 89 440 l 1
 94 433 l 1
 98 425 l 1
 103 421 l 1
 108 416 l 1
 113 413 l 1
 118 410 l 1
 119 410 l 1
 122 410 l 1
 135 414 l 1
 152 419 l 1
 172 426 l 1
 196 435 l 1
 215 442 l 1
 214 454 l 1
 208 516 l 1
 204 575 l 1
 202 623 l 1
 201 625 l 1
 199 631 l 1
 197 635 l 1
 194 639 l 1
 193 643 l 1
 190 645 l 1
 186 645 l 1
 181 643 l 1
 177 649 l 1
341 682 m 1
 346 686 l 1
 356 677 l 1
 365 667 l 1
 375 656 l 1
 383 643 l 1
 391 631 l 1
 399 617 l 1
 405 601 l 1
 412 585 l 1
 418 568 l 1
 424 549 l 1
 421 531 l 1
 405 522 l 1
 388 524 l 1
 376 539 l 1
 374 558 l 1
 373 574 l 1
 369 589 l 1
 366 605 l 1
 364 619 l 1
 360 633 l 1
 355 645 l 1
 351 659 l 1
 347 671 l 1
 341 682 l 1
391 736 m 1
 396 741 l 1
 406 733 l 1
 416 725 l 1
 425 715 l 1
 434 704 l 1
 442 693 l 1
 451 679 l 1
 457 666 l 1
 464 651 l 1
 471 637 l 1
 476 620 l 1
 474 602 l 1
 458 592 l 1
 440 594 l 1
 429 608 l 1
 427 625 l 1
 425 639 l 1
 422 653 l 1
 419 667 l 1
 416 679 l 1
 412 692 l 1
 407 703 l 1
 403 715 l 1
 397 727 l 1
 391 736 l 1
EndSplineSet
Comment: "Kage: aj1-00398+AAoA-Alias: uf018e"
EndChar
StartChar: uF0190
Encoding: 983440 983440 72
Width: 500
VWidth: 0
Flags: MW
LayerCount: 2
Fore
SplineSet
157 666 m 1
 155 676 l 1
 164 674 l 1
 171 673 l 1
 179 672 l 1
 187 666 l 1
 196 660 l 1
 202 652 l 1
 210 642 l 1
 217 630 l 1
 224 617 l 1
 230 600 l 1
 228 584 l 1
 218 576 l 1
 214 552 l 1
 202 500 l 1
 189 450 l 1
 182 427 l 1
 184 425 l 1
 189 418 l 1
 190 413 l 1
 192 414 l 1
 205 414 l 1
 220 413 l 1
 238 414 l 1
 259 415 l 1
 282 417 l 1
 308 421 l 1
 336 424 l 1
 368 427 l 1
 390 430 l 1
 390 431 l 1
 392 436 l 1
 398 443 l 1
 408 444 l 1
 418 442 l 1
 425 437 l 1
 431 431 l 1
 437 422 l 1
 442 414 l 1
 448 402 l 1
 446 384 l 1
 432 372 l 1
 414 373 l 1
 402 386 l 1
 403 388 l 1
 398 391 l 1
 395 392 l 1
 388 394 l 1
 377 395 l 1
 364 394 l 1
 349 393 l 1
 332 391 l 1
 313 389 l 1
 295 386 l 1
 298 384 l 1
 304 380 l 1
 310 374 l 1
 315 369 l 1
 320 362 l 1
 326 353 l 1
 326 334 l 1
 321 330 l 1
 316 287 l 1
 306 224 l 1
 292 164 l 1
 273 108 l 1
 253 56 l 1
 229 8 l 1
 200 -32 l 1
 169 -68 l 1
 134 -95 l 1
 96 -113 l 1
 92 -108 l 1
 123 -75 l 1
 150 -40 l 1
 175 -3 l 1
 197 38 l 1
 218 81 l 1
 235 129 l 1
 250 180 l 1
 261 235 l 1
 270 294 l 1
 277 360 l 1
 278 360 l 1
 277 363 l 1
 275 367 l 1
 276 371 l 1
 274 375 l 1
 274 378 l 1
 274 381 l 1
 271 381 l 1
 270 385 l 1
 265 383 l 1
 244 378 l 1
 225 374 l 1
 209 370 l 1
 207 370 l 1
 205 365 l 1
 188 358 l 1
 171 366 l 1
 165 375 l 1
 161 356 l 1
 143 313 l 1
 125 271 l 1
 106 233 l 1
 83 197 l 1
 60 163 l 1
 53 167 l 1
 71 204 l 1
 86 243 l 1
 101 282 l 1
 116 323 l 1
 127 367 l 1
 139 412 l 1
 151 459 l 1
 160 509 l 1
 168 561 l 1
 177 616 l 1
 178 616 l 1
 176 626 l 1
 173 635 l 1
 172 644 l 1
 168 651 l 1
 166 657 l 1
 164 661 l 1
 162 665 l 1
 157 666 l 1
341 656 m 1
 346 661 l 1
 356 652 l 1
 365 642 l 1
 374 631 l 1
 383 619 l 1
 391 605 l 1
 399 591 l 1
 405 576 l 1
 412 560 l 1
 418 543 l 1
 424 524 l 1
 420 507 l 1
 405 496 l 1
 388 501 l 1
 376 514 l 1
 374 534 l 1
 373 549 l 1
 369 565 l 1
 366 579 l 1
 364 594 l 1
 360 607 l 1
 355 621 l 1
 351 633 l 1
 347 646 l 1
 341 656 l 1
391 712 m 1
 396 717 l 1
 406 708 l 1
 416 699 l 1
 425 690 l 1
 434 679 l 1
 442 667 l 1
 451 655 l 1
 457 641 l 1
 464 627 l 1
 471 611 l 1
 476 594 l 1
 474 578 l 1
 458 566 l 1
 440 571 l 1
 429 584 l 1
 427 600 l 1
 425 615 l 1
 422 629 l 1
 419 642 l 1
 416 655 l 1
 412 667 l 1
 407 679 l 1
 403 690 l 1
 397 702 l 1
 391 712 l 1
EndSplineSet
Comment: "Kage: aj1-00400+AAoA-Alias: uf0190"
EndChar
StartChar: uF0191
Encoding: 983441 983441 73
Width: 500
VWidth: 0
Flags: MW
LayerCount: 2
Fore
SplineSet
93 512 m 1
 94 523 l 1
 95 536 l 1
 96 549 l 1
 104 549 l 1
 105 536 l 1
 108 524 l 1
 113 515 l 1
 117 506 l 1
 122 497 l 1
 127 491 l 1
 129 489 l 1
 140 491 l 1
 156 490 l 1
 175 491 l 1
 198 493 l 1
 224 495 l 1
 252 498 l 1
 285 501 l 1
 320 503 l 1
 334 504 l 1
 337 505 l 1
 341 507 l 1
 343 511 l 1
 352 518 l 1
 364 522 l 1
 375 520 l 1
 387 514 l 1
 397 505 l 1
 404 492 l 1
 412 478 l 1
 418 461 l 1
 416 443 l 1
 403 433 l 2
 374 96 l 1
 378 95 l 1
 389 81 l 1
 388 64 l 1
 373 52 l 1
 356 57 l 1
 355 55 l 1
 351 56 l 1
 345 58 l 1
 336 59 l 1
 324 61 l 1
 310 61 l 1
 294 61 l 1
 276 59 l 1
 255 59 l 1
 231 55 l 1
 230 61 l 1
 213 56 l 1
 191 51 l 1
 171 48 l 1
 153 44 l 1
 146 42 l 1
 143 35 l 1
 126 27 l 1
 109 34 l 1
 100 44 l 1
 94 55 l 1
 91 67 l 1
 87 77 l 1
 84 90 l 1
 84 102 l 1
 82 114 l 1
 84 126 l 1
 85 140 l 1
 86 153 l 1
 94 153 l 1
 95 140 l 1
 99 128 l 1
 103 118 l 1
 108 108 l 1
 112 99 l 1
 117 91 l 1
 122 84 l 1
 123 84 l 1
 130 86 l 1
 147 86 l 1
 166 87 l 1
 186 88 l 1
 208 89 l 1
 232 91 l 1
 258 93 l 1
 285 94 l 1
 314 95 l 1
 327 96 l 1
 359 463 l 1
 370 462 l 1
 368 464 l 1
 361 467 l 1
 359 465 l 1
 357 466 l 1
 350 468 l 1
 340 469 l 1
 326 470 l 1
 310 469 l 1
 290 468 l 1
 268 466 l 1
 244 464 l 1
 216 460 l 1
 216 463 l 1
 203 459 l 1
 181 455 l 1
 161 451 l 1
 159 451 l 1
 159 452 l 1
 153 435 l 1
 136 427 l 1
 119 434 l 1
 110 444 l 1
 104 454 l 1
 100 465 l 1
 97 477 l 1
 96 488 l 1
 94 500 l 1
 93 512 l 1
363 692 m 1
 368 696 l 1
 379 687 l 1
 388 677 l 1
 398 666 l 1
 406 653 l 1
 414 641 l 1
 421 627 l 1
 428 611 l 1
 435 595 l 1
 441 578 l 1
 446 559 l 1
 444 541 l 1
 427 532 l 1
 410 534 l 1
 399 550 l 1
 397 567 l 1
 395 584 l 1
 392 599 l 1
 389 615 l 1
 385 629 l 1
 382 643 l 1
 378 655 l 1
 374 668 l 1
 369 681 l 1
 363 692 l 1
413 746 m 1
 418 751 l 1
 429 743 l 1
 439 735 l 1
 447 725 l 1
 457 714 l 1
 465 703 l 1
 473 689 l 1
 480 676 l 1
 487 661 l 1
 494 647 l 1
 498 630 l 1
 496 612 l 1
 481 602 l 1
 462 604 l 1
 452 619 l 1
 450 635 l 1
 446 649 l 1
 445 663 l 1
 441 677 l 1
 438 689 l 1
 434 702 l 1
 430 713 l 1
 425 725 l 1
 420 737 l 1
 413 746 l 1
EndSplineSet
Comment: "Kage: aj1-00401+AAoA-Alias: uf0191"
EndChar
StartChar: uF0192
Encoding: 983442 983442 74
Width: 1000
VWidth: 0
Flags: MW
LayerCount: 2
Fore
SplineSet
49 426 m 1
 50 438 l 1
 51 450 l 1
 54 462 l 1
 55 476 l 1
 64 475 l 1
 65 463 l 1
 69 452 l 1
 74 442 l 1
 78 434 l 1
 84 426 l 1
 89 420 l 1
 94 416 l 1
 100 412 l 1
 105 410 l 1
 110 408 l 1
 75 360 l 1
 67 370 l 1
 60 380 l 1
 56 391 l 1
 52 402 l 1
 50 414 l 1
 49 426 l 1
75 360 m 1
 110 408 l 1
 122 388 l 1
 117 366 l 1
 97 355 l 1
 75 360 l 1
88 360 m 1
 88 420 l 1
 102 419 l 1
 120 418 l 1
 142 418 l 1
 168 419 l 1
 198 420 l 1
 231 422 l 1
 268 424 l 1
 308 426 l 1
 354 428 l 1
 402 430 l 1
 403 421 l 1
 356 409 l 1
 312 400 l 1
 272 391 l 1
 236 384 l 1
 202 378 l 1
 172 372 l 1
 146 368 l 1
 124 365 l 1
 104 362 l 1
 88 360 l 1
132 -86 m 1
 161 -62 l 1
 187 -38 l 1
 212 -11 l 1
 233 18 l 1
 252 50 l 1
 268 86 l 1
 280 125 l 1
 289 168 l 1
 294 217 l 1
 295 270 l 1
 355 270 l 1
 350 212 l 1
 342 158 l 1
 328 110 l 1
 310 68 l 1
 288 29 l 1
 263 -4 l 1
 235 -34 l 1
 204 -58 l 1
 172 -78 l 1
 137 -94 l 1
 132 -86 l 1
133 -86 m 1
 163 -67 l 1
 190 -46 l 1
 214 -22 l 1
 236 7 l 1
 254 39 l 1
 270 76 l 1
 282 116 l 1
 290 162 l 1
 294 214 l 1
 295 270 l 1
 354 270 l 1
 352 210 l 1
 343 154 l 1
 330 103 l 1
 313 58 l 1
 292 18 l 1
 266 -16 l 1
 238 -45 l 1
 206 -68 l 1
 172 -84 l 1
 136 -94 l 1
 133 -86 l 1
139 630 m 1
 140 639 l 1
 147 638 l 1
 156 638 l 1
 164 634 l 1
 172 630 l 1
 180 622 l 1
 187 614 l 1
 194 604 l 1
 201 594 l 1
 207 580 l 1
 213 566 l 1
 154 553 l 1
 154 566 l 1
 152 578 l 1
 152 588 l 1
 150 597 l 1
 150 604 l 1
 148 612 l 1
 147 618 l 1
 146 623 l 1
 143 628 l 1
 139 630 l 1
148 166 m 1
 148 236 l 1
 148 299 l 1
 148 357 l 1
 148 408 l 1
 148 454 l 1
 148 494 l 1
 148 526 l 1
 148 554 l 1
 148 574 l 1
 148 589 l 1
 207 592 l 1
 208 576 l 1
 208 554 l 1
 208 527 l 1
 208 494 l 1
 208 454 l 1
 208 408 l 1
 208 356 l 1
 208 299 l 1
 208 235 l 1
 208 165 l 1
 148 166 l 1
148 166 m 1
 208 165 l 1
 198 144 l 1
 177 136 l 1
 156 144 l 1
 148 166 l 1
154 553 m 1
 213 566 l 1
 209 544 l 1
 190 530 l 1
 168 534 l 1
 154 553 l 1
244 396 m 1
 246 387 l 1
 275 390 l 1
 302 390 l 1
 326 391 l 1
 348 391 l 1
 366 390 l 1
 381 390 l 1
 394 388 l 1
 402 386 l 1
 405 383 l 1
 402 382 l 1
 432 434 l 1
 418 438 l 1
 406 438 l 1
 393 436 l 1
 378 433 l 1
 362 430 l 1
 344 424 l 1
 322 419 l 1
 298 412 l 1
 272 404 l 1
 244 396 l 1
284 660 m 1
 286 669 l 1
 292 668 l 1
 301 668 l 1
 310 664 l 1
 318 660 l 1
 326 653 l 1
 334 644 l 1
 340 634 l 1
 347 623 l 1
 353 610 l 1
 358 596 l 1
 300 584 l 1
 300 596 l 1
 298 608 l 1
 298 618 l 1
 297 627 l 1
 296 634 l 1
 294 642 l 1
 293 648 l 1
 292 653 l 1
 288 658 l 1
 284 660 l 1
295 260 m 1
 295 615 l 1
 355 615 l 1
 355 260 l 1
 295 260 l 1
300 584 m 1
 358 596 l 1
 354 574 l 1
 336 560 l 1
 313 565 l 1
 300 584 l 1
357 678 m 1
 364 684 l 1
 373 676 l 1
 383 666 l 1
 392 656 l 1
 402 645 l 1
 410 632 l 1
 418 619 l 1
 425 604 l 1
 432 590 l 1
 438 573 l 1
 444 556 l 1
 385 544 l 1
 384 560 l 1
 382 576 l 1
 380 590 l 1
 378 604 l 1
 375 618 l 1
 372 632 l 1
 369 644 l 1
 366 656 l 1
 362 668 l 1
 357 678 l 1
385 544 m 1
 444 556 l 1
 439 534 l 1
 420 520 l 1
 398 525 l 1
 385 544 l 1
386 427 m 1
 391 432 l 1
 394 438 l 1
 401 444 l 1
 410 446 l 1
 420 446 l 1
 428 442 l 1
 437 436 l 1
 445 430 l 1
 453 422 l 1
 460 412 l 1
 406 386 l 1
 404 396 l 1
 403 403 l 1
 402 409 l 1
 402 413 l 1
 402 416 l 1
 404 419 l 1
 404 422 l 1
 402 424 l 1
 398 426 l 1
 394 422 l 1
 386 427 l 1
402 382 m 1
 432 434 l 1
 446 415 l 1
 442 392 l 1
 424 379 l 1
 402 382 l 1
406 386 m 1
 460 412 l 1
 462 388 l 1
 446 372 l 1
 423 371 l 1
 406 386 l 1
408 734 m 1
 414 740 l 1
 423 732 l 1
 434 724 l 1
 443 716 l 1
 452 706 l 1
 461 695 l 1
 469 683 l 1
 476 670 l 1
 484 656 l 1
 490 642 l 1
 496 626 l 1
 437 614 l 1
 436 628 l 1
 434 641 l 1
 432 654 l 1
 430 666 l 1
 428 678 l 1
 424 690 l 1
 421 702 l 1
 418 713 l 1
 414 724 l 1
 408 734 l 1
437 614 m 1
 496 626 l 1
 492 604 l 1
 473 590 l 1
 450 595 l 1
 437 614 l 1
EndSplineSet
Comment: "Kage: aj1-00402+AAoA-Alias: uf0192"
Colour: ffff00
EndChar
StartChar: uF0193
Encoding: 983443 983443 75
Width: 500
VWidth: 0
Flags: MW
LayerCount: 2
Fore
SplineSet
79 426 m 1
 84 433 l 1
 98 424 l 1
 112 415 l 1
 125 405 l 1
 138 394 l 1
 150 382 l 1
 162 368 l 1
 173 352 l 1
 183 335 l 1
 192 318 l 1
 202 297 l 1
 200 279 l 1
 187 267 l 1
 168 269 l 1
 157 281 l 1
 150 300 l 1
 145 317 l 1
 139 334 l 1
 131 349 l 1
 125 364 l 1
 117 377 l 1
 108 391 l 1
 100 403 l 1
 90 415 l 1
 79 426 l 1
99 63 m 1
 107 64 l 1
 109 48 l 1
 113 34 l 1
 118 22 l 1
 124 11 l 1
 129 3 l 1
 135 -3 l 1
 137 -5 l 1
 164 19 l 1
 199 52 l 1
 233 92 l 1
 266 134 l 1
 297 181 l 1
 326 233 l 1
 354 289 l 1
 382 349 l 1
 409 412 l 1
 434 482 l 1
 441 481 l 1
 423 408 l 1
 402 341 l 1
 378 277 l 1
 353 219 l 1
 325 165 l 1
 297 114 l 1
 265 67 l 1
 231 24 l 1
 195 -15 l 1
 169 -37 l 1
 169 -45 l 1
 157 -57 l 1
 139 -58 l 1
 128 -51 l 1
 119 -42 l 1
 112 -32 l 1
 107 -21 l 1
 103 -9 l 1
 100 4 l 1
 98 17 l 1
 99 32 l 1
 99 46 l 1
 99 63 l 1
137 632 m 1
 141 637 l 1
 155 628 l 1
 169 619 l 1
 181 607 l 1
 195 596 l 1
 206 582 l 1
 218 568 l 1
 229 552 l 1
 239 536 l 1
 249 518 l 1
 259 497 l 1
 257 481 l 1
 245 468 l 1
 226 469 l 1
 215 480 l 1
 208 500 l 1
 202 517 l 1
 195 534 l 1
 187 550 l 1
 181 565 l 1
 173 579 l 1
 164 593 l 1
 156 607 l 1
 147 619 l 1
 137 632 l 1
341 682 m 1
 346 686 l 1
 356 677 l 1
 365 667 l 1
 375 656 l 1
 383 643 l 1
 391 631 l 1
 399 617 l 1
 405 601 l 1
 412 585 l 1
 418 568 l 1
 424 549 l 1
 420 532 l 1
 405 522 l 1
 388 525 l 1
 377 540 l 1
 374 558 l 1
 373 574 l 1
 369 589 l 1
 366 605 l 1
 364 619 l 1
 360 633 l 1
 355 645 l 1
 351 659 l 1
 347 671 l 1
 341 682 l 1
391 736 m 1
 396 741 l 1
 406 733 l 1
 416 725 l 1
 425 715 l 1
 434 704 l 1
 442 693 l 1
 451 679 l 1
 457 666 l 1
 464 651 l 1
 471 637 l 1
 476 620 l 1
 473 602 l 1
 458 592 l 1
 440 595 l 1
 430 609 l 1
 427 625 l 1
 425 639 l 1
 422 653 l 1
 419 667 l 1
 416 679 l 1
 412 692 l 1
 407 703 l 1
 403 715 l 1
 397 727 l 1
 391 736 l 1
EndSplineSet
Comment: "Kage: aj1-00403+AAoA-Alias: uf0193"
EndChar
StartChar: uF0194
Encoding: 983444 983444 76
Width: 1000
VWidth: 0
Flags: MW
LayerCount: 2
Fore
SplineSet
46 -72 m 1
 80 -26 l 1
 114 21 l 1
 145 72 l 1
 175 126 l 1
 204 184 l 1
 230 246 l 1
 256 312 l 1
 279 382 l 1
 300 456 l 1
 320 533 l 1
 379 518 l 1
 355 439 l 1
 330 364 l 1
 302 294 l 1
 272 228 l 1
 241 166 l 1
 208 108 l 1
 172 54 l 1
 135 6 l 1
 95 -39 l 1
 53 -78 l 1
 46 -72 l 1
47 -72 m 1
 82 -31 l 1
 114 14 l 1
 146 62 l 1
 176 115 l 1
 204 172 l 1
 231 234 l 1
 256 302 l 1
 280 374 l 1
 301 450 l 1
 320 532 l 1
 379 518 l 1
 356 435 l 1
 330 357 l 1
 303 284 l 1
 274 216 l 1
 242 154 l 1
 209 96 l 1
 174 44 l 1
 136 -3 l 1
 95 -44 l 1
 52 -78 l 1
 47 -72 l 1
118 552 m 1
 118 562 l 1
 120 573 l 1
 122 584 l 1
 123 595 l 1
 132 595 l 1
 133 585 l 1
 137 576 l 1
 142 567 l 1
 146 559 l 1
 152 552 l 1
 156 547 l 1
 162 542 l 1
 167 538 l 1
 172 534 l 1
 178 532 l 1
 136 490 l 1
 130 500 l 1
 125 510 l 1
 122 520 l 1
 119 530 l 1
 118 541 l 1
 118 552 l 1
136 490 m 1
 178 532 l 1
 186 511 l 1
 178 490 l 1
 156 481 l 1
 136 490 l 1
148 540 m 1
 156 540 l 1
 166 540 l 1
 179 540 l 1
 194 542 l 1
 212 543 l 1
 232 546 l 1
 254 548 l 1
 278 552 l 1
 305 555 l 1
 334 560 l 1
 336 551 l 1
 309 540 l 1
 284 530 l 1
 261 520 l 1
 240 512 l 1
 222 505 l 1
 204 498 l 1
 190 493 l 1
 177 488 l 1
 166 484 l 1
 156 480 l 1
 148 540 l 1
218 512 m 1
 238 520 l 1
 256 532 l 1
 272 540 l 1
 286 548 l 1
 298 555 l 1
 309 560 l 1
 318 566 l 1
 327 569 l 1
 338 571 l 1
 360 560 l 1
 312 524 l 1
 328 516 l 1
 332 518 l 1
 328 520 l 1
 320 520 l 1
 309 520 l 1
 296 518 l 1
 280 516 l 1
 262 514 l 1
 242 510 l 1
 221 503 l 1
 218 512 l 1
270 238 m 1
 276 244 l 1
 298 226 l 1
 319 204 l 1
 338 182 l 1
 356 156 l 1
 374 130 l 1
 390 102 l 1
 406 74 l 1
 420 44 l 1
 434 12 l 1
 446 -22 l 1
 389 -40 l 1
 380 -8 l 1
 370 24 l 1
 360 54 l 1
 348 82 l 1
 336 110 l 1
 324 138 l 1
 311 164 l 1
 297 189 l 1
 284 214 l 1
 270 238 l 1
304 547 m 1
 310 554 l 1
 314 563 l 1
 322 570 l 1
 332 572 l 1
 344 570 l 1
 354 564 l 1
 363 555 l 1
 370 544 l 1
 377 532 l 1
 384 516 l 1
 324 504 l 1
 324 516 l 1
 324 526 l 1
 322 534 l 1
 322 540 l 1
 324 542 l 1
 326 544 l 1
 327 548 l 1
 324 549 l 1
 317 548 l 1
 312 542 l 1
 304 547 l 1
312 524 m 1
 360 560 l 1
 365 538 l 1
 354 518 l 1
 332 513 l 1
 312 524 l 1
324 504 m 1
 384 516 l 1
 379 494 l 1
 360 480 l 1
 338 485 l 1
 324 504 l 1
360 678 m 1
 366 684 l 1
 376 676 l 1
 386 666 l 1
 395 656 l 1
 404 645 l 1
 412 632 l 1
 420 619 l 1
 428 604 l 1
 434 590 l 1
 440 573 l 1
 446 556 l 1
 388 544 l 1
 386 560 l 1
 384 576 l 1
 382 590 l 1
 380 604 l 1
 378 618 l 1
 374 632 l 1
 372 644 l 1
 368 656 l 1
 365 668 l 1
 360 678 l 1
388 544 m 1
 446 556 l 1
 442 534 l 1
 422 520 l 1
 400 525 l 1
 388 544 l 1
389 -40 m 1
 446 -22 l 1
 444 -44 l 1
 427 -59 l 1
 404 -57 l 1
 389 -40 l 1
410 734 m 1
 416 740 l 1
 426 732 l 1
 436 724 l 1
 446 716 l 1
 455 706 l 1
 464 695 l 1
 472 683 l 1
 479 670 l 1
 486 656 l 1
 492 642 l 1
 498 626 l 1
 440 614 l 1
 438 628 l 1
 437 641 l 1
 435 654 l 1
 432 666 l 1
 430 678 l 1
 427 690 l 1
 424 702 l 1
 420 713 l 1
 416 724 l 1
 410 734 l 1
440 614 m 1
 498 626 l 1
 494 604 l 1
 476 590 l 1
 453 595 l 1
 440 614 l 1
EndSplineSet
Comment: "Kage: aj1-00404+AAoA-Alias: uf0194"
Colour: ffff00
EndChar
StartChar: uF0195
Encoding: 983445 983445 77
Width: 1000
VWidth: 0
Flags: MW
LayerCount: 2
Fore
SplineSet
50 303 m 1
 50 316 l 1
 50 330 l 1
 53 344 l 1
 53 360 l 1
 62 360 l 1
 64 346 l 1
 68 332 l 1
 74 321 l 1
 79 312 l 1
 84 304 l 1
 90 300 l 1
 95 297 l 1
 99 296 l 1
 102 296 l 1
 104 298 l 1
 87 241 l 1
 76 248 l 1
 66 257 l 1
 59 268 l 1
 54 279 l 1
 52 290 l 1
 50 303 l 1
78 304 m 1
 90 307 l 1
 108 312 l 1
 128 320 l 1
 154 330 l 1
 182 342 l 1
 214 356 l 1
 250 372 l 1
 290 390 l 1
 334 408 l 1
 382 429 l 1
 387 422 l 1
 344 392 l 1
 303 366 l 1
 266 342 l 1
 232 322 l 1
 201 304 l 1
 174 288 l 1
 150 274 l 1
 129 263 l 1
 112 254 l 1
 96 247 l 1
 78 304 l 1
87 241 m 1
 104 298 l 1
 122 284 l 1
 124 261 l 1
 110 244 l 1
 87 241 l 1
145 630 m 1
 145 640 l 1
 152 640 l 1
 159 641 l 1
 168 640 l 1
 176 638 l 1
 184 633 l 1
 193 628 l 1
 202 620 l 1
 210 612 l 1
 218 602 l 1
 226 592 l 1
 171 566 l 1
 168 577 l 1
 166 586 l 1
 164 595 l 1
 162 602 l 1
 159 609 l 1
 157 615 l 1
 155 620 l 1
 152 625 l 1
 149 630 l 1
 145 630 l 1
162 75 m 1
 162 600 l 1
 222 600 l 1
 222 75 l 1
 162 75 l 1
162 75 m 1
 222 75 l 1
 210 57 l 1
 192 45 l 1
 174 57 l 1
 162 75 l 1
162 75 m 1
 222 75 l 1
 222 68 l 1
 224 60 l 1
 224 52 l 1
 226 46 l 1
 228 39 l 1
 232 32 l 1
 234 26 l 1
 238 20 l 1
 243 14 l 1
 248 8 l 1
 202 -32 l 1
 195 -23 l 1
 188 -14 l 1
 182 -4 l 1
 177 7 l 1
 172 18 l 1
 168 29 l 1
 166 40 l 1
 164 52 l 1
 162 64 l 1
 162 75 l 1
171 566 m 1
 226 592 l 1
 226 568 l 1
 211 552 l 1
 188 551 l 1
 171 566 l 1
180 12 m 1
 190 28 l 1
 208 35 l 1
 232 25 l 1
 187 -14 l 1
 180 12 l 1
187 -14 m 1
 232 25 l 1
 248 8 l 1
 202 -32 l 1
 187 -14 l 1
190 -20 m 1
 234 20 l 1
 240 14 l 1
 248 10 l 1
 258 5 l 1
 269 2 l 1
 282 -1 l 1
 298 -2 l 1
 316 -2 l 1
 336 -0 l 1
 358 2 l 1
 382 6 l 1
 394 -52 l 1
 367 -57 l 1
 342 -60 l 1
 318 -62 l 1
 296 -62 l 1
 274 -60 l 1
 255 -56 l 1
 236 -51 l 1
 219 -43 l 1
 204 -32 l 1
 190 -20 l 1
202 -32 m 1
 248 8 l 1
 255 -14 l 1
 245 -35 l 1
 223 -42 l 1
 202 -32 l 1
259 352 m 1
 280 367 l 1
 298 382 l 1
 316 396 l 1
 331 406 l 1
 345 416 l 1
 358 424 l 1
 370 430 l 1
 382 434 l 1
 396 434 l 1
 414 428 l 1
 374 383 l 1
 383 380 l 1
 385 382 l 1
 380 384 l 1
 372 383 l 1
 360 381 l 1
 346 377 l 1
 328 372 l 1
 309 364 l 1
 287 356 l 1
 264 344 l 1
 259 352 l 1
278 142 m 1
 292 174 l 1
 304 205 l 1
 317 234 l 1
 329 261 l 1
 340 288 l 1
 350 312 l 1
 360 336 l 1
 368 359 l 1
 376 380 l 1
 382 401 l 1
 438 380 l 1
 428 359 l 1
 417 338 l 1
 406 315 l 1
 392 292 l 1
 378 268 l 1
 362 244 l 1
 346 218 l 1
 328 192 l 1
 308 165 l 1
 286 138 l 1
 278 142 l 1
342 658 m 1
 349 664 l 1
 358 656 l 1
 368 646 l 1
 378 636 l 1
 386 625 l 1
 394 612 l 1
 402 599 l 1
 410 584 l 1
 416 570 l 1
 423 553 l 1
 428 536 l 1
 370 524 l 1
 368 540 l 1
 367 556 l 1
 365 570 l 1
 362 584 l 1
 360 598 l 1
 357 612 l 1
 354 624 l 1
 350 636 l 1
 348 648 l 1
 342 658 l 1
355 407 m 1
 363 416 l 1
 369 425 l 1
 376 432 l 1
 386 438 l 1
 398 440 l 1
 410 438 l 1
 421 431 l 1
 430 422 l 1
 438 410 l 1
 445 398 l 1
 387 382 l 1
 386 391 l 1
 386 398 l 1
 386 402 l 1
 388 404 l 1
 390 407 l 1
 389 410 l 1
 385 412 l 1
 378 412 l 1
 370 408 l 1
 362 401 l 1
 355 407 l 1
370 524 m 1
 428 536 l 1
 424 514 l 1
 405 500 l 1
 383 505 l 1
 370 524 l 1
374 383 m 1
 414 428 l 1
 424 407 l 1
 416 385 l 1
 395 376 l 1
 374 383 l 1
382 6 m 1
 404 2 l 1
 417 -16 l 1
 412 -39 l 1
 394 -52 l 1
 382 6 l 1
387 382 m 1
 445 398 l 1
 442 375 l 1
 424 361 l 1
 401 364 l 1
 387 382 l 1
392 714 m 1
 399 720 l 1
 408 712 l 1
 418 704 l 1
 428 696 l 1
 438 686 l 1
 446 675 l 1
 454 663 l 1
 462 650 l 1
 468 636 l 1
 475 622 l 1
 481 606 l 1
 422 594 l 1
 421 608 l 1
 420 621 l 1
 418 634 l 1
 415 646 l 1
 412 658 l 1
 410 670 l 1
 406 682 l 1
 402 693 l 1
 398 704 l 1
 392 714 l 1
422 594 m 1
 481 606 l 1
 476 584 l 1
 458 570 l 1
 436 575 l 1
 422 594 l 1
EndSplineSet
Comment: "Kage: aj1-00405+AAoA-Alias: uf0195"
Colour: ffff00
EndChar
StartChar: uF0196
Encoding: 983446 983446 78
Width: 500
VWidth: 0
Flags: MW
LayerCount: 2
Fore
SplineSet
95 586 m 1
 101 591 l 1
 117 572 l 1
 130 553 l 1
 142 532 l 1
 154 511 l 1
 165 488 l 1
 174 465 l 1
 183 441 l 1
 190 416 l 1
 198 391 l 1
 204 364 l 1
 199 347 l 1
 185 336 l 1
 167 341 l 1
 158 355 l 1
 153 381 l 1
 148 405 l 1
 145 430 l 1
 139 453 l 1
 132 477 l 1
 126 499 l 1
 118 521 l 1
 110 543 l 1
 103 566 l 1
 95 586 l 1
347 596 m 1
 345 606 l 1
 354 604 l 1
 361 603 l 1
 370 600 l 1
 377 594 l 1
 385 586 l 1
 392 577 l 1
 399 565 l 1
 405 551 l 1
 408 541 l 1
 413 540 l 1
 412 531 l 1
 416 519 l 1
 413 502 l 1
 406 498 l 1
 397 443 l 1
 377 355 l 1
 354 275 l 1
 327 203 l 1
 298 136 l 1
 265 78 l 1
 230 26 l 1
 190 -16 l 1
 147 -51 l 1
 102 -79 l 1
 97 -72 l 1
 137 -31 l 1
 174 15 l 1
 209 64 l 1
 240 118 l 1
 269 176 l 1
 295 239 l 1
 316 308 l 1
 336 382 l 1
 352 461 l 1
 366 539 l 1
 366 540 l 1
 363 553 l 1
 361 563 l 1
 360 573 l 1
 358 580 l 1
 355 586 l 1
 353 591 l 1
 351 595 l 1
 347 596 l 1
371 736 m 1
 376 741 l 1
 386 732 l 1
 395 722 l 1
 404 711 l 1
 413 699 l 1
 421 685 l 1
 429 671 l 1
 435 656 l 1
 442 640 l 1
 448 623 l 1
 454 604 l 1
 450 587 l 1
 435 576 l 1
 418 581 l 1
 407 595 l 1
 404 614 l 1
 403 629 l 1
 399 645 l 1
 396 659 l 1
 394 674 l 1
 390 687 l 1
 385 701 l 1
 381 713 l 1
 377 726 l 1
 371 736 l 1
421 792 m 1
 426 797 l 1
 436 788 l 1
 446 779 l 1
 455 770 l 1
 464 759 l 1
 472 747 l 1
 481 735 l 1
 487 721 l 1
 494 707 l 1
 501 691 l 1
 506 674 l 1
 503 658 l 1
 488 646 l 1
 470 651 l 1
 460 665 l 1
 457 680 l 1
 455 695 l 1
 452 709 l 1
 449 722 l 1
 446 735 l 1
 442 747 l 1
 437 759 l 1
 433 770 l 1
 427 782 l 1
 421 792 l 1
EndSplineSet
Comment: "Kage: aj1-00406+AAoA-Alias: uf0196"
EndChar
StartChar: uF0197
Encoding: 983447 983447 79
Width: 1000
VWidth: 0
Flags: MW
LayerCount: 2
Fore
SplineSet
80 -106 m 1
 122 -64 l 1
 161 -17 l 1
 196 36 l 1
 229 94 l 1
 258 156 l 1
 284 222 l 1
 307 290 l 1
 326 361 l 1
 342 433 l 1
 355 506 l 1
 414 495 l 1
 398 420 l 1
 378 346 l 1
 355 274 l 1
 328 204 l 1
 297 138 l 1
 262 75 l 1
 224 17 l 1
 182 -34 l 1
 135 -78 l 1
 85 -114 l 1
 80 -106 l 1
80 -106 m 1
 124 -72 l 1
 164 -30 l 1
 200 20 l 1
 232 76 l 1
 261 140 l 1
 286 208 l 1
 308 280 l 1
 327 355 l 1
 342 430 l 1
 355 506 l 1
 414 495 l 1
 398 419 l 1
 379 342 l 1
 356 266 l 1
 330 192 l 1
 300 123 l 1
 266 58 l 1
 227 0 l 1
 184 -48 l 1
 136 -88 l 1
 84 -114 l 1
 80 -106 l 1
84 228 m 1
 100 262 l 1
 116 296 l 1
 132 332 l 1
 146 369 l 1
 160 408 l 1
 172 448 l 1
 184 492 l 1
 195 536 l 1
 204 582 l 1
 213 631 l 1
 272 620 l 1
 260 570 l 1
 247 522 l 1
 232 477 l 1
 216 434 l 1
 200 392 l 1
 181 354 l 1
 161 317 l 1
 140 282 l 1
 116 251 l 1
 91 222 l 1
 84 228 l 1
186 338 m 1
 192 346 l 1
 204 338 l 1
 217 331 l 1
 230 322 l 1
 242 312 l 1
 253 300 l 1
 264 287 l 1
 274 273 l 1
 284 258 l 1
 294 242 l 1
 302 225 l 1
 246 204 l 1
 242 220 l 1
 238 236 l 1
 232 251 l 1
 227 265 l 1
 221 278 l 1
 215 292 l 1
 208 304 l 1
 202 316 l 1
 194 328 l 1
 186 338 l 1
205 666 m 1
 205 674 l 1
 210 674 l 1
 218 675 l 1
 226 674 l 1
 233 670 l 1
 240 664 l 1
 248 658 l 1
 254 650 l 1
 260 640 l 1
 266 630 l 1
 272 618 l 1
 214 602 l 1
 214 613 l 1
 213 623 l 1
 212 632 l 1
 212 640 l 1
 211 646 l 1
 210 652 l 1
 210 656 l 1
 210 660 l 1
 208 665 l 1
 205 666 l 1
212 492 m 1
 212 498 l 1
 212 502 l 1
 212 506 l 1
 214 511 l 1
 214 516 l 1
 216 520 l 1
 217 526 l 1
 219 530 l 1
 220 535 l 1
 220 539 l 1
 228 542 l 1
 229 538 l 1
 234 535 l 1
 238 533 l 1
 242 530 l 1
 246 528 l 1
 249 527 l 1
 253 526 l 1
 256 524 l 1
 260 524 l 1
 263 524 l 1
 212 492 l 1
212 492 m 1
 263 524 l 1
 266 501 l 1
 252 482 l 1
 230 480 l 1
 212 492 l 1
214 602 m 1
 272 618 l 1
 269 595 l 1
 251 581 l 1
 228 584 l 1
 214 602 l 1
230 476 m 1
 244 534 l 1
 244 532 l 1
 246 530 l 1
 252 528 l 1
 260 527 l 1
 270 526 l 1
 282 527 l 1
 295 528 l 1
 310 528 l 1
 326 530 l 1
 344 534 l 1
 346 526 l 1
 330 519 l 1
 315 510 l 1
 302 504 l 1
 290 497 l 1
 278 492 l 1
 268 486 l 1
 258 482 l 1
 250 479 l 1
 240 477 l 1
 230 476 l 1
246 204 m 1
 302 225 l 1
 302 202 l 1
 285 186 l 1
 262 188 l 1
 246 204 l 1
278 501 m 1
 292 508 l 1
 304 516 l 1
 316 522 l 1
 326 528 l 1
 335 534 l 1
 344 538 l 1
 352 542 l 1
 360 545 l 1
 370 546 l 1
 382 544 l 1
 352 492 l 1
 358 492 l 1
 360 494 l 1
 356 496 l 1
 351 498 l 1
 343 499 l 1
 334 500 l 1
 322 499 l 1
 310 498 l 1
 296 498 l 1
 281 493 l 1
 278 501 l 1
338 516 m 1
 343 526 l 1
 346 536 l 1
 352 544 l 1
 362 549 l 1
 374 549 l 1
 386 544 l 1
 396 536 l 1
 404 526 l 1
 412 513 l 1
 419 498 l 1
 362 481 l 1
 360 494 l 1
 358 504 l 1
 358 512 l 1
 357 516 l 1
 359 518 l 1
 362 520 l 1
 362 524 l 1
 358 524 l 1
 351 521 l 1
 346 512 l 1
 338 516 l 1
352 492 m 1
 382 544 l 1
 396 525 l 1
 392 502 l 1
 374 489 l 1
 352 492 l 1
354 714 m 1
 362 719 l 1
 370 710 l 1
 380 702 l 1
 390 692 l 1
 399 680 l 1
 407 668 l 1
 415 654 l 1
 422 640 l 1
 429 624 l 1
 436 608 l 1
 441 591 l 1
 382 579 l 1
 381 596 l 1
 380 610 l 1
 378 626 l 1
 375 640 l 1
 372 654 l 1
 370 666 l 1
 366 679 l 1
 363 691 l 1
 360 703 l 1
 354 714 l 1
362 481 m 1
 419 498 l 1
 416 476 l 1
 399 461 l 1
 376 464 l 1
 362 481 l 1
382 579 m 1
 441 591 l 1
 436 568 l 1
 418 556 l 1
 396 560 l 1
 382 579 l 1
405 768 m 1
 412 774 l 1
 420 767 l 1
 431 760 l 1
 440 750 l 1
 450 740 l 1
 458 730 l 1
 466 718 l 1
 474 705 l 1
 481 692 l 1
 488 676 l 1
 494 662 l 1
 434 648 l 1
 434 662 l 1
 432 676 l 1
 430 689 l 1
 428 702 l 1
 425 714 l 1
 422 726 l 1
 418 737 l 1
 415 748 l 1
 411 759 l 1
 405 768 l 1
434 648 m 1
 494 662 l 1
 489 639 l 1
 470 626 l 1
 448 630 l 1
 434 648 l 1
EndSplineSet
Comment: "Kage: aj1-00407+AAoA-Alias: uf0197"
Colour: ffff00
EndChar
StartChar: uF0198
Encoding: 983448 983448 80
Width: 500
VWidth: 0
Flags: MW
LayerCount: 2
Fore
SplineSet
319 666 m 1
 324 673 l 1
 331 667 l 1
 339 662 l 1
 347 655 l 1
 353 647 l 1
 358 637 l 1
 362 625 l 1
 364 612 l 1
 366 600 l 1
 365 585 l 1
 363 568 l 1
 352 554 l 1
 334 552 l 1
 332 554 l 1
 312 537 l 1
 286 521 l 1
 265 510 l 1
 267 509 l 1
 273 505 l 1
 278 500 l 1
 285 494 l 1
 290 488 l 1
 296 480 l 1
 295 480 l 1
 297 479 l 1
 298 475 l 1
 300 471 l 1
 298 457 l 1
 299 378 l 1
 299 377 l 1
 299 372 l 1
 296 328 l 1
 310 329 l 1
 354 333 l 1
 388 336 l 1
 388 337 l 1
 392 343 l 1
 399 348 l 1
 408 350 l 1
 418 348 l 1
 426 343 l 1
 434 337 l 1
 443 331 l 1
 449 320 l 1
 458 309 l 1
 458 291 l 1
 446 277 l 1
 426 277 l 1
 415 289 l 1
 415 290 l 1
 409 290 l 1
 408 292 l 1
 403 294 l 1
 394 296 l 1
 382 297 l 1
 366 298 l 1
 346 298 l 1
 325 297 l 1
 300 295 l 1
 296 295 l 1
 296 281 l 1
 290 201 l 1
 280 130 l 1
 265 69 l 1
 245 17 l 1
 222 -30 l 1
 192 -68 l 1
 159 -102 l 1
 119 -128 l 1
 115 -127 l 1
 114 -123 l 1
 143 -81 l 1
 169 -38 l 1
 191 4 l 1
 211 49 l 1
 226 99 l 1
 238 157 l 1
 246 220 l 1
 252 291 l 1
 241 290 l 1
 240 294 l 1
 234 294 l 1
 202 287 l 1
 172 283 l 1
 146 279 l 1
 123 275 l 1
 117 275 l 1
 116 272 l 1
 101 262 l 1
 83 266 l 1
 73 276 l 1
 66 286 l 1
 60 296 l 1
 57 309 l 1
 54 319 l 1
 52 332 l 1
 52 344 l 1
 53 356 l 1
 55 370 l 1
 55 384 l 1
 63 383 l 1
 65 370 l 1
 67 358 l 1
 72 348 l 1
 76 339 l 1
 81 330 l 1
 86 324 l 1
 92 318 l 1
 93 318 l 1
 102 318 l 1
 120 318 l 1
 142 318 l 1
 168 319 l 1
 198 321 l 1
 232 322 l 1
 253 325 l 1
 253 374 l 1
 252 477 l 1
 253 477 l 1
 253 478 l 1
 251 483 l 1
 250 489 l 1
 250 493 l 1
 248 497 l 1
 247 501 l 1
 246 499 l 1
 231 492 l 1
 203 482 l 1
 175 473 l 1
 144 466 l 1
 114 463 l 1
 81 461 l 1
 81 469 l 1
 111 477 l 1
 139 488 l 1
 165 498 l 1
 191 510 l 1
 217 522 l 1
 240 538 l 1
 264 554 l 1
 286 572 l 1
 307 591 l 1
 326 611 l 1
 327 615 l 1
 329 623 l 1
 330 632 l 1
 330 640 l 1
 329 646 l 1
 328 654 l 1
 325 661 l 1
 319 666 l 1
365 676 m 1
 371 681 l 1
 381 672 l 1
 391 662 l 1
 400 651 l 1
 408 639 l 1
 416 625 l 1
 424 611 l 1
 431 596 l 1
 437 580 l 1
 444 563 l 1
 449 544 l 1
 445 527 l 1
 430 516 l 1
 412 521 l 1
 402 535 l 1
 400 553 l 1
 397 569 l 1
 395 585 l 1
 391 599 l 1
 388 614 l 1
 384 627 l 1
 380 641 l 1
 377 653 l 1
 371 666 l 1
 365 676 l 1
416 732 m 1
 421 737 l 1
 431 728 l 1
 441 719 l 1
 450 710 l 1
 460 699 l 1
 468 687 l 1
 475 675 l 1
 483 661 l 1
 489 647 l 1
 496 631 l 1
 501 614 l 1
 498 598 l 1
 483 586 l 1
 465 591 l 1
 454 604 l 1
 452 620 l 1
 450 635 l 1
 447 649 l 1
 443 662 l 1
 440 675 l 1
 436 687 l 1
 432 699 l 1
 428 710 l 1
 423 722 l 1
 416 732 l 1
EndSplineSet
Comment: "Kage: aj1-00408+AAoA-Alias: uf0198"
EndChar
StartChar: uF0199
Encoding: 983449 983449 81
Width: 1000
VWidth: 0
Flags: MW
LayerCount: 2
Fore
SplineSet
69 554 m 1
 76 558 l 1
 89 546 l 1
 102 532 l 1
 113 516 l 1
 124 498 l 1
 134 480 l 1
 142 460 l 1
 150 439 l 1
 158 417 l 1
 164 394 l 1
 170 370 l 1
 110 360 l 1
 108 384 l 1
 106 406 l 1
 103 426 l 1
 100 447 l 1
 96 466 l 1
 91 485 l 1
 86 503 l 1
 80 520 l 1
 76 538 l 1
 69 554 l 1
110 360 m 1
 170 370 l 1
 164 348 l 1
 144 336 l 1
 122 341 l 1
 110 360 l 1
114 -76 m 1
 153 -30 l 1
 189 18 l 1
 222 70 l 1
 253 126 l 1
 281 184 l 1
 306 247 l 1
 329 314 l 1
 349 384 l 1
 366 458 l 1
 380 536 l 1
 440 525 l 1
 422 445 l 1
 400 369 l 1
 377 297 l 1
 350 230 l 1
 320 166 l 1
 286 107 l 1
 250 52 l 1
 210 2 l 1
 167 -43 l 1
 120 -83 l 1
 114 -76 l 1
114 -76 m 1
 151 -40 l 1
 185 2 l 1
 218 48 l 1
 247 100 l 1
 275 157 l 1
 300 220 l 1
 324 290 l 1
 345 366 l 1
 364 448 l 1
 380 536 l 1
 440 525 l 1
 420 435 l 1
 396 352 l 1
 372 274 l 1
 344 203 l 1
 314 138 l 1
 280 80 l 1
 244 28 l 1
 206 -16 l 1
 164 -54 l 1
 120 -84 l 1
 114 -76 l 1
186 618 m 1
 194 624 l 1
 206 610 l 1
 219 596 l 1
 230 581 l 1
 241 564 l 1
 250 546 l 1
 260 527 l 1
 268 506 l 1
 275 485 l 1
 282 463 l 1
 287 440 l 1
 228 430 l 1
 226 452 l 1
 224 474 l 1
 220 494 l 1
 217 514 l 1
 213 532 l 1
 208 550 l 1
 204 568 l 1
 198 586 l 1
 193 602 l 1
 186 618 l 1
228 430 m 1
 287 440 l 1
 282 418 l 1
 262 406 l 1
 240 411 l 1
 228 430 l 1
370 590 m 1
 370 600 l 1
 376 600 l 1
 384 600 l 1
 393 596 l 1
 401 591 l 1
 408 584 l 1
 416 574 l 1
 422 564 l 1
 429 551 l 1
 435 537 l 1
 441 521 l 1
 382 508 l 1
 382 524 l 1
 380 537 l 1
 379 548 l 1
 378 558 l 1
 377 567 l 1
 376 574 l 1
 375 580 l 1
 374 584 l 1
 373 590 l 1
 370 590 l 1
372 734 m 1
 379 739 l 1
 388 730 l 1
 398 722 l 1
 408 712 l 1
 416 700 l 1
 424 688 l 1
 432 674 l 1
 440 660 l 1
 446 644 l 1
 453 628 l 1
 458 611 l 1
 400 599 l 1
 398 616 l 1
 397 630 l 1
 395 646 l 1
 392 660 l 1
 390 674 l 1
 387 686 l 1
 384 699 l 1
 380 711 l 1
 378 723 l 1
 372 734 l 1
382 508 m 1
 441 521 l 1
 436 498 l 1
 418 486 l 1
 396 490 l 1
 382 508 l 1
400 599 m 1
 458 611 l 1
 454 588 l 1
 435 576 l 1
 413 580 l 1
 400 599 l 1
422 788 m 1
 429 794 l 1
 438 787 l 1
 448 780 l 1
 458 770 l 1
 468 760 l 1
 476 750 l 1
 484 738 l 1
 492 725 l 1
 498 712 l 1
 505 696 l 1
 511 682 l 1
 452 668 l 1
 451 682 l 1
 450 696 l 1
 448 709 l 1
 445 722 l 1
 442 734 l 1
 440 746 l 1
 436 757 l 1
 432 768 l 1
 428 779 l 1
 422 788 l 1
452 668 m 1
 511 682 l 1
 506 659 l 1
 488 646 l 1
 466 650 l 1
 452 668 l 1
EndSplineSet
Comment: "Kage: aj1-00409+AAoA-Alias: uf0199"
Colour: ffff00
EndChar
StartChar: uF019A
Encoding: 983450 983450 82
Width: 500
VWidth: 0
Flags: MW
LayerCount: 2
Fore
SplineSet
52 419 m 1
 53 432 l 1
 55 444 l 1
 55 459 l 1
 63 459 l 1
 65 444 l 1
 67 433 l 1
 72 423 l 1
 76 413 l 1
 81 405 l 1
 86 399 l 1
 92 393 l 1
 102 394 l 1
 120 394 l 1
 142 393 l 1
 168 395 l 1
 198 396 l 1
 232 399 l 1
 268 401 l 1
 310 405 l 1
 354 408 l 1
 387 411 l 1
 388 413 l 1
 392 418 l 1
 399 423 l 1
 408 424 l 1
 418 423 l 1
 426 420 l 1
 435 413 l 1
 443 405 l 1
 450 397 l 1
 458 383 l 1
 458 367 l 1
 446 352 l 1
 426 352 l 1
 415 364 l 1
 408 364 l 1
 407 367 l 1
 403 368 l 1
 393 370 l 1
 382 373 l 1
 366 373 l 1
 346 373 l 1
 325 372 l 1
 300 371 l 1
 273 369 l 1
 253 367 l 1
 257 365 l 1
 262 362 l 1
 268 356 l 1
 274 350 l 1
 279 344 l 1
 284 338 l 1
 290 337 l 1
 290 325 l 1
 295 317 l 1
 294 298 l 1
 288 293 l 1
 286 270 l 1
 278 208 l 1
 268 152 l 1
 254 99 l 1
 236 52 l 1
 217 8 l 1
 193 -32 l 1
 166 -66 l 1
 137 -94 l 1
 104 -118 l 1
 99 -112 l 1
 125 -77 l 1
 148 -39 l 1
 167 -1 l 1
 186 41 l 1
 202 83 l 1
 215 129 l 1
 226 177 l 1
 234 229 l 1
 240 280 l 1
 245 338 l 1
 243 343 l 1
 244 348 l 1
 242 351 l 1
 241 356 l 1
 241 359 l 1
 238 362 l 1
 238 368 l 1
 234 367 l 1
 202 362 l 1
 173 357 l 1
 146 353 l 1
 122 350 l 1
 117 350 l 1
 117 347 l 1
 101 338 l 1
 83 341 l 1
 73 351 l 1
 66 362 l 1
 61 372 l 1
 57 383 l 1
 54 395 l 1
 52 407 l 1
 52 419 l 1
116 620 m 1
 117 630 l 1
 118 642 l 1
 119 653 l 1
 127 653 l 1
 127 642 l 1
 131 632 l 1
 134 623 l 1
 139 615 l 1
 144 607 l 1
 148 602 l 1
 153 596 l 1
 157 594 l 1
 163 594 l 1
 176 595 l 1
 191 597 l 1
 208 599 l 1
 228 601 l 1
 249 605 l 1
 272 608 l 1
 298 611 l 1
 313 614 l 1
 314 618 l 1
 320 626 l 1
 328 632 l 1
 340 634 l 1
 351 633 l 1
 360 628 l 1
 371 621 l 1
 380 612 l 1
 387 599 l 1
 388 582 l 1
 376 568 l 1
 358 566 l 1
 345 578 l 1
 346 577 l 1
 339 578 l 1
 340 578 l 1
 333 580 l 1
 324 580 l 1
 312 580 l 1
 298 579 l 1
 282 577 l 1
 264 573 l 1
 243 571 l 1
 218 565 l 1
 218 569 l 1
 215 567 l 1
 198 561 l 1
 183 557 l 1
 174 553 l 1
 173 551 l 1
 156 543 l 1
 140 548 l 1
 131 557 l 1
 126 567 l 1
 122 577 l 1
 119 587 l 1
 118 598 l 1
 116 608 l 1
 116 620 l 1
371 722 m 1
 376 726 l 1
 386 717 l 1
 395 707 l 1
 405 696 l 1
 413 683 l 1
 421 671 l 1
 429 657 l 1
 435 641 l 1
 442 625 l 1
 448 608 l 1
 454 589 l 1
 451 571 l 1
 435 562 l 1
 418 564 l 1
 406 579 l 1
 404 598 l 1
 403 614 l 1
 399 629 l 1
 396 645 l 1
 394 659 l 1
 390 673 l 1
 385 685 l 1
 381 699 l 1
 377 711 l 1
 371 722 l 1
421 776 m 1
 426 781 l 1
 436 773 l 1
 446 765 l 1
 455 755 l 1
 464 744 l 1
 472 733 l 1
 481 719 l 1
 487 706 l 1
 494 691 l 1
 501 677 l 1
 506 660 l 1
 504 642 l 1
 488 632 l 1
 470 634 l 1
 459 648 l 1
 457 665 l 1
 455 679 l 1
 452 693 l 1
 449 707 l 1
 446 719 l 1
 442 732 l 1
 437 743 l 1
 433 755 l 1
 427 767 l 1
 421 776 l 1
246 338 m 1
 248 337 248 337 246 338 c 1
245 339 m 2
 245 338 l 1
 245 339 l 2
EndSplineSet
Comment: "Kage: aj1-00410+AAoA-Alias: uf019a"
EndChar
StartChar: uF019B
Encoding: 983451 983451 83
Width: 500
VWidth: 0
Flags: MW
LayerCount: 2
Fore
SplineSet
180 481 m 1
 181 540 l 1
 181 592 l 1
 182 643 l 1
 183 643 l 1
 181 649 l 1
 180 656 l 1
 176 662 l 1
 174 667 l 1
 172 671 l 1
 170 675 l 1
 164 676 l 1
 162 686 l 1
 171 684 l 1
 178 684 l 1
 187 682 l 1
 194 678 l 1
 202 673 l 1
 209 666 l 1
 217 657 l 1
 223 647 l 1
 225 644 l 1
 228 643 l 1
 229 638 l 1
 231 636 l 1
 237 622 l 1
 236 604 l 1
 229 598 l 1
 229 592 l 1
 229 540 l 1
 228 481 l 1
 229 417 l 1
 228 361 l 1
 234 357 l 1
 253 350 l 1
 271 342 l 1
 287 330 l 1
 306 316 l 1
 322 300 l 1
 338 283 l 1
 353 264 l 1
 367 243 l 1
 382 219 l 1
 383 202 l 1
 372 188 l 1
 353 186 l 1
 339 198 l 1
 329 220 l 1
 317 240 l 1
 305 260 l 1
 293 277 l 1
 282 294 l 1
 269 308 l 1
 257 323 l 1
 243 335 l 1
 229 346 l 1
 229 273 l 1
 229 193 l 1
 229 108 l 1
 229 16 l 1
 229 -81 l 1
 222 -97 l 1
 205 -104 l 1
 188 -97 l 1
 181 -81 l 1
 181 16 l 1
 181 108 l 1
 181 193 l 1
 181 273 l 1
 181 348 l 1
 181 417 l 1
 180 481 l 1
301 632 m 1
 306 636 l 1
 316 627 l 1
 325 617 l 1
 335 606 l 1
 343 593 l 1
 351 581 l 1
 359 567 l 1
 365 551 l 1
 372 535 l 1
 378 518 l 1
 384 499 l 1
 380 482 l 1
 365 472 l 1
 348 475 l 1
 336 489 l 1
 334 508 l 1
 333 524 l 1
 329 539 l 1
 326 555 l 1
 324 569 l 1
 320 583 l 1
 315 595 l 1
 311 609 l 1
 307 621 l 1
 301 632 l 1
351 686 m 1
 356 691 l 1
 366 683 l 1
 376 675 l 1
 385 665 l 1
 394 654 l 1
 402 643 l 1
 411 629 l 1
 417 616 l 1
 424 601 l 1
 431 587 l 1
 436 570 l 1
 433 552 l 1
 418 542 l 1
 400 545 l 1
 389 558 l 1
 387 575 l 1
 385 589 l 1
 382 603 l 1
 379 617 l 1
 376 629 l 1
 372 642 l 1
 367 653 l 1
 363 665 l 1
 357 677 l 1
 351 686 l 1
EndSplineSet
Comment: "Kage: aj1-00411+AAoA-Alias: uf019b"
EndChar
StartChar: uF019C
Encoding: 983452 983452 84
Width: 500
VWidth: 0
Flags: MW
LayerCount: 2
Fore
SplineSet
155 512 m 1
 158 518 l 1
 166 515 l 1
 175 511 l 1
 183 506 l 1
 192 499 l 1
 198 490 l 1
 206 479 l 1
 211 467 l 1
 216 454 l 1
 219 444 l 1
 225 442 l 1
 223 431 l 1
 225 422 l 1
 219 406 l 1
 215 403 l 1
 212 393 l 1
 198 348 l 1
 183 304 l 1
 167 262 l 1
 149 221 l 1
 130 182 l 1
 110 145 l 1
 89 109 l 1
 65 75 l 1
 40 43 l 1
 34 47 l 1
 53 83 l 1
 69 119 l 1
 86 157 l 1
 103 195 l 1
 117 234 l 1
 132 275 l 1
 145 317 l 1
 158 360 l 1
 168 405 l 1
 177 440 l 1
 177 446 l 1
 175 458 l 1
 174 469 l 1
 173 477 l 1
 170 486 l 1
 168 494 l 1
 165 501 l 1
 161 507 l 1
 155 512 l 1
288 492 m 1
 294 497 l 1
 315 475 l 1
 335 449 l 1
 354 421 l 1
 371 389 l 1
 389 353 l 1
 403 315 l 1
 418 273 l 1
 431 229 l 1
 445 181 l 1
 456 129 l 1
 453 112 l 1
 437 102 l 1
 420 105 l 1
 410 120 l 1
 400 171 l 1
 391 217 l 1
 380 262 l 1
 368 303 l 1
 356 341 l 1
 344 377 l 1
 330 409 l 1
 316 439 l 1
 303 465 l 1
 288 492 l 1
348 642 m 1
 354 646 l 1
 363 637 l 1
 373 627 l 1
 382 616 l 1
 390 603 l 1
 398 591 l 1
 407 577 l 1
 413 561 l 1
 419 545 l 1
 425 528 l 1
 432 509 l 1
 427 492 l 1
 413 482 l 1
 395 485 l 1
 385 500 l 1
 382 517 l 1
 380 534 l 1
 377 549 l 1
 373 565 l 1
 370 579 l 1
 367 593 l 1
 362 605 l 1
 359 619 l 1
 354 631 l 1
 348 642 l 1
399 696 m 1
 404 701 l 1
 413 693 l 1
 423 685 l 1
 433 675 l 1
 442 664 l 1
 450 653 l 1
 458 639 l 1
 465 626 l 1
 471 611 l 1
 477 597 l 1
 484 580 l 1
 480 562 l 1
 465 552 l 1
 448 555 l 1
 437 569 l 1
 434 586 l 1
 433 599 l 1
 429 613 l 1
 426 627 l 1
 423 639 l 1
 419 652 l 1
 414 663 l 1
 411 675 l 1
 405 687 l 1
 399 696 l 1
EndSplineSet
Comment: "Kage: aj1-00412+AAoA-Alias: uf019c"
EndChar
StartChar: uF019D
Encoding: 983453 983453 85
Width: 1000
VWidth: 0
Flags: MW
LayerCount: 2
Fore
SplineSet
34 48 m 1
 50 84 l 1
 68 120 l 1
 84 158 l 1
 99 196 l 1
 114 236 l 1
 128 276 l 1
 140 318 l 1
 152 362 l 1
 163 406 l 1
 173 452 l 1
 232 438 l 1
 218 392 l 1
 204 346 l 1
 188 302 l 1
 171 260 l 1
 153 220 l 1
 134 180 l 1
 113 143 l 1
 91 108 l 1
 67 74 l 1
 41 43 l 1
 34 48 l 1
158 509 m 1
 161 518 l 1
 168 514 l 1
 178 512 l 1
 186 508 l 1
 194 501 l 1
 202 492 l 1
 210 482 l 1
 216 471 l 1
 221 458 l 1
 226 444 l 1
 230 428 l 1
 171 422 l 1
 172 436 l 1
 172 448 l 1
 171 458 l 1
 170 468 l 1
 170 477 l 1
 169 485 l 1
 168 492 l 1
 166 499 l 1
 163 506 l 1
 158 509 l 1
171 422 m 1
 230 428 l 1
 224 406 l 1
 204 396 l 1
 182 402 l 1
 171 422 l 1
290 488 m 1
 296 494 l 1
 318 474 l 1
 338 450 l 1
 358 422 l 1
 376 390 l 1
 392 356 l 1
 408 318 l 1
 422 277 l 1
 436 233 l 1
 450 186 l 1
 462 136 l 1
 402 124 l 1
 394 174 l 1
 384 220 l 1
 374 262 l 1
 364 303 l 1
 352 340 l 1
 340 375 l 1
 328 407 l 1
 316 436 l 1
 302 463 l 1
 290 488 l 1
354 578 m 1
 354 592 l 1
 356 606 l 1
 359 620 l 1
 362 632 l 1
 368 644 l 1
 374 655 l 1
 382 665 l 1
 393 674 l 1
 406 680 l 1
 421 682 l 1
 421 622 l 1
 424 622 l 1
 426 623 l 1
 425 623 l 1
 424 621 l 1
 422 618 l 1
 419 612 l 1
 417 605 l 1
 416 597 l 1
 414 588 l 1
 414 578 l 1
 354 578 l 1
354 578 m 1
 414 578 l 1
 414 568 l 1
 416 558 l 1
 417 550 l 1
 419 544 l 1
 422 538 l 1
 424 534 l 1
 425 532 l 1
 426 532 l 1
 424 533 l 1
 421 534 l 1
 421 474 l 1
 406 476 l 1
 393 482 l 1
 382 490 l 1
 374 500 l 1
 368 512 l 1
 362 523 l 1
 359 536 l 1
 356 549 l 1
 354 563 l 1
 354 578 l 1
402 124 m 1
 462 136 l 1
 456 114 l 1
 438 100 l 1
 416 106 l 1
 402 124 l 1
416 532 m 1
 417 532 l 1
 418 534 l 1
 420 538 l 1
 423 544 l 1
 425 550 l 1
 426 558 l 1
 428 568 l 1
 428 578 l 1
 488 578 l 1
 488 563 l 1
 486 549 l 1
 483 536 l 1
 480 523 l 1
 474 512 l 1
 468 500 l 1
 460 490 l 1
 449 482 l 1
 436 476 l 1
 421 474 l 1
 421 534 l 1
 418 533 l 1
 416 532 l 1
416 623 m 1
 418 622 l 1
 421 622 l 1
 421 682 l 1
 436 680 l 1
 449 674 l 1
 460 665 l 1
 468 655 l 1
 474 644 l 1
 480 632 l 1
 483 620 l 1
 486 606 l 1
 488 592 l 1
 488 578 l 1
 428 578 l 1
 428 588 l 1
 426 597 l 1
 425 605 l 1
 423 612 l 1
 420 618 l 1
 418 621 l 1
 417 623 l 1
 416 623 l 1
EndSplineSet
Comment: "Kage: aj1-00413+AAoA-Alias: uf019d"
Colour: ffff00
EndChar
StartChar: uF019E
Encoding: 983454 983454 86
Width: 1000
VWidth: 0
Flags: MW
LayerCount: 2
Fore
SplineSet
109 620 m 1
 110 629 l 1
 118 628 l 1
 127 628 l 1
 136 626 l 1
 145 622 l 1
 154 617 l 1
 162 610 l 1
 169 600 l 1
 176 590 l 1
 182 579 l 1
 188 566 l 1
 130 553 l 1
 130 564 l 1
 128 573 l 1
 128 582 l 1
 127 589 l 1
 126 596 l 1
 124 602 l 1
 122 608 l 1
 119 613 l 1
 115 618 l 1
 109 620 l 1
118 85 m 1
 118 595 l 1
 178 595 l 1
 178 85 l 1
 118 85 l 1
118 85 m 1
 178 85 l 1
 166 67 l 1
 148 55 l 1
 130 67 l 1
 118 85 l 1
118 85 m 1
 178 85 l 1
 178 78 l 1
 178 70 l 1
 180 62 l 1
 182 56 l 1
 184 49 l 1
 186 42 l 1
 190 36 l 1
 194 30 l 1
 198 24 l 1
 203 18 l 1
 158 -22 l 1
 150 -13 l 1
 143 -4 l 1
 137 6 l 1
 132 17 l 1
 128 28 l 1
 124 39 l 1
 121 50 l 1
 119 62 l 1
 118 74 l 1
 118 85 l 1
130 553 m 1
 188 566 l 1
 184 544 l 1
 166 530 l 1
 143 534 l 1
 130 553 l 1
136 22 m 1
 145 38 l 1
 162 45 l 1
 188 35 l 1
 142 -4 l 1
 136 22 l 1
142 -4 m 1
 188 35 l 1
 203 18 l 1
 158 -22 l 1
 142 -4 l 1
145 -10 m 1
 190 30 l 1
 196 25 l 1
 204 20 l 1
 215 16 l 1
 229 12 l 1
 246 10 l 1
 267 8 l 1
 290 8 l 1
 317 10 l 1
 346 13 l 1
 378 18 l 1
 387 -42 l 1
 354 -46 l 1
 322 -50 l 1
 292 -52 l 1
 266 -52 l 1
 240 -50 l 1
 218 -47 l 1
 196 -42 l 1
 177 -34 l 1
 160 -23 l 1
 145 -10 l 1
146 284 m 1
 169 300 l 1
 192 316 l 1
 214 331 l 1
 236 346 l 1
 256 362 l 1
 276 378 l 1
 296 394 l 1
 314 412 l 1
 332 429 l 1
 349 447 l 1
 390 404 l 1
 370 386 l 1
 348 370 l 1
 326 354 l 1
 303 340 l 1
 280 326 l 1
 255 314 l 1
 230 302 l 1
 204 292 l 1
 177 283 l 1
 149 276 l 1
 146 284 l 1
158 -22 m 1
 203 18 l 1
 210 -4 l 1
 200 -25 l 1
 178 -32 l 1
 158 -22 l 1
335 499 m 1
 338 507 l 1
 347 504 l 1
 356 501 l 1
 366 496 l 1
 374 490 l 1
 382 482 l 1
 389 472 l 1
 396 461 l 1
 400 449 l 1
 405 436 l 1
 409 422 l 1
 349 418 l 1
 350 430 l 1
 351 440 l 1
 351 449 l 1
 351 458 l 1
 350 466 l 1
 349 473 l 1
 348 480 l 1
 344 488 l 1
 341 494 l 1
 335 499 l 1
347 678 m 1
 354 684 l 1
 363 676 l 1
 373 666 l 1
 382 656 l 1
 392 645 l 1
 400 632 l 1
 408 619 l 1
 415 604 l 1
 422 590 l 1
 428 573 l 1
 434 556 l 1
 375 544 l 1
 374 560 l 1
 372 576 l 1
 370 590 l 1
 368 604 l 1
 365 618 l 1
 362 632 l 1
 359 644 l 1
 356 656 l 1
 352 668 l 1
 347 678 l 1
349 418 m 1
 409 422 l 1
 401 400 l 1
 380 390 l 1
 359 398 l 1
 349 418 l 1
375 544 m 1
 434 556 l 1
 429 534 l 1
 410 520 l 1
 388 525 l 1
 375 544 l 1
378 18 m 1
 400 12 l 1
 412 -8 l 1
 406 -30 l 1
 387 -42 l 1
 378 18 l 1
398 734 m 1
 404 740 l 1
 413 732 l 1
 424 724 l 1
 433 716 l 1
 442 706 l 1
 451 695 l 1
 459 683 l 1
 466 670 l 1
 474 656 l 1
 480 642 l 1
 486 626 l 1
 427 614 l 1
 426 628 l 1
 424 641 l 1
 422 654 l 1
 420 666 l 1
 418 678 l 1
 414 690 l 1
 411 702 l 1
 408 713 l 1
 404 724 l 1
 398 734 l 1
427 614 m 1
 486 626 l 1
 482 604 l 1
 463 590 l 1
 440 595 l 1
 427 614 l 1
EndSplineSet
Comment: "Kage: aj1-00414+AAoA-Alias: uf019e"
Colour: ffff00
EndChar
StartChar: uF019F
Encoding: 983455 983455 87
Width: 1000
VWidth: 0
Flags: MW
LayerCount: 2
Fore
SplineSet
109 620 m 1
 110 629 l 1
 118 628 l 1
 127 628 l 1
 136 626 l 1
 145 622 l 1
 154 617 l 1
 162 610 l 1
 169 600 l 1
 176 590 l 1
 182 579 l 1
 188 566 l 1
 130 553 l 1
 130 564 l 1
 128 573 l 1
 128 582 l 1
 127 589 l 1
 126 596 l 1
 124 602 l 1
 122 608 l 1
 119 613 l 1
 115 618 l 1
 109 620 l 1
118 85 m 1
 118 595 l 1
 178 595 l 1
 178 85 l 1
 118 85 l 1
118 85 m 1
 178 85 l 1
 166 67 l 1
 148 55 l 1
 130 67 l 1
 118 85 l 1
118 85 m 1
 178 85 l 1
 178 78 l 1
 178 70 l 1
 180 62 l 1
 182 56 l 1
 184 49 l 1
 186 42 l 1
 190 36 l 1
 194 30 l 1
 198 24 l 1
 203 18 l 1
 158 -22 l 1
 150 -13 l 1
 143 -4 l 1
 137 6 l 1
 132 17 l 1
 128 28 l 1
 124 39 l 1
 121 50 l 1
 119 62 l 1
 118 74 l 1
 118 85 l 1
130 553 m 1
 188 566 l 1
 184 544 l 1
 166 530 l 1
 143 534 l 1
 130 553 l 1
136 22 m 1
 145 38 l 1
 162 45 l 1
 188 35 l 1
 142 -4 l 1
 136 22 l 1
142 -4 m 1
 188 35 l 1
 203 18 l 1
 158 -22 l 1
 142 -4 l 1
145 -10 m 1
 190 30 l 1
 196 25 l 1
 204 20 l 1
 215 16 l 1
 229 12 l 1
 246 10 l 1
 267 8 l 1
 290 8 l 1
 317 10 l 1
 346 13 l 1
 378 18 l 1
 387 -42 l 1
 354 -46 l 1
 322 -50 l 1
 292 -52 l 1
 266 -52 l 1
 240 -50 l 1
 218 -47 l 1
 196 -42 l 1
 177 -34 l 1
 160 -23 l 1
 145 -10 l 1
146 284 m 1
 169 300 l 1
 192 316 l 1
 214 331 l 1
 236 346 l 1
 256 362 l 1
 276 378 l 1
 296 394 l 1
 314 412 l 1
 332 429 l 1
 349 447 l 1
 390 404 l 1
 370 386 l 1
 348 370 l 1
 326 354 l 1
 303 340 l 1
 280 326 l 1
 255 314 l 1
 230 302 l 1
 204 292 l 1
 177 283 l 1
 149 276 l 1
 146 284 l 1
158 -22 m 1
 203 18 l 1
 210 -4 l 1
 200 -25 l 1
 178 -32 l 1
 158 -22 l 1
335 499 m 1
 338 507 l 1
 347 504 l 1
 356 501 l 1
 366 496 l 1
 374 490 l 1
 382 482 l 1
 389 472 l 1
 396 461 l 1
 400 449 l 1
 405 436 l 1
 409 422 l 1
 349 418 l 1
 350 430 l 1
 351 440 l 1
 351 449 l 1
 351 458 l 1
 350 466 l 1
 349 473 l 1
 348 480 l 1
 344 488 l 1
 341 494 l 1
 335 499 l 1
349 418 m 1
 409 422 l 1
 401 400 l 1
 380 390 l 1
 359 398 l 1
 349 418 l 1
352 618 m 1
 352 632 l 1
 354 646 l 1
 356 660 l 1
 360 672 l 1
 365 684 l 1
 372 695 l 1
 380 705 l 1
 390 714 l 1
 404 720 l 1
 418 722 l 1
 418 662 l 1
 422 662 l 1
 423 663 l 1
 422 663 l 1
 421 661 l 1
 419 658 l 1
 416 652 l 1
 414 645 l 1
 413 637 l 1
 412 628 l 1
 412 618 l 1
 352 618 l 1
352 618 m 1
 412 618 l 1
 412 608 l 1
 413 598 l 1
 414 590 l 1
 416 584 l 1
 419 578 l 1
 421 574 l 1
 422 572 l 1
 423 572 l 1
 422 573 l 1
 418 574 l 1
 418 514 l 1
 404 516 l 1
 390 522 l 1
 380 530 l 1
 372 540 l 1
 365 552 l 1
 360 563 l 1
 356 576 l 1
 354 589 l 1
 352 603 l 1
 352 618 l 1
378 18 m 1
 400 12 l 1
 412 -8 l 1
 406 -30 l 1
 387 -42 l 1
 378 18 l 1
414 572 m 1
 416 574 l 1
 418 578 l 1
 420 584 l 1
 422 590 l 1
 424 598 l 1
 426 608 l 1
 426 618 l 1
 486 618 l 1
 485 603 l 1
 484 589 l 1
 480 576 l 1
 477 563 l 1
 472 552 l 1
 466 540 l 1
 457 530 l 1
 446 522 l 1
 434 516 l 1
 418 514 l 1
 418 574 l 1
 416 573 l 1
 414 572 l 1
414 663 m 1
 416 662 l 1
 418 662 l 1
 418 722 l 1
 434 720 l 1
 446 714 l 1
 457 705 l 1
 466 695 l 1
 472 684 l 1
 477 672 l 1
 480 660 l 1
 484 646 l 1
 485 632 l 1
 486 618 l 1
 426 618 l 1
 426 628 l 1
 424 637 l 1
 422 645 l 1
 420 652 l 1
 418 658 l 1
 416 661 l 1
 414 663 l 1
EndSplineSet
Comment: "Kage: aj1-00415+AAoA-Alias: uf019f"
Colour: ffff00
EndChar
StartChar: uF01A0
Encoding: 983456 983456 88
Width: 500
VWidth: 0
Flags: MW
LayerCount: 2
Fore
SplineSet
416 776 m 1
 421 781 l 1
 431 773 l 1
 441 765 l 1
 450 755 l 1
 460 744 l 1
 468 733 l 1
 475 719 l 1
 483 706 l 1
 489 691 l 1
 496 677 l 1
 501 660 l 1
 497 642 l 1
 483 632 l 1
 465 635 l 1
 454 648 l 1
 452 665 l 1
 450 679 l 1
 447 693 l 1
 443 707 l 1
 439 719 l 1
 436 732 l 1
 432 743 l 1
 428 755 l 1
 423 767 l 1
 416 776 l 1
365 722 m 1
 371 726 l 1
 381 717 l 1
 391 707 l 1
 400 696 l 1
 408 683 l 1
 416 671 l 1
 424 657 l 1
 431 641 l 1
 437 625 l 1
 444 608 l 1
 449 589 l 1
 445 572 l 1
 430 562 l 1
 412 565 l 1
 402 580 l 1
 400 597 l 1
 397 614 l 1
 395 629 l 1
 391 645 l 1
 387 659 l 1
 384 673 l 1
 380 685 l 1
 377 698 l 1
 371 711 l 1
 365 722 l 1
111 -88 m 1
 148 -41 l 1
 184 8 l 1
 215 58 l 1
 245 114 l 1
 271 172 l 1
 295 233 l 1
 316 299 l 1
 335 369 l 1
 350 442 l 1
 364 512 l 1
 358 514 l 1
 354 515 l 1
 344 517 l 1
 332 517 l 1
 317 515 l 1
 300 513 l 1
 280 510 l 1
 260 507 l 1
 234 500 l 1
 233 505 l 1
 216 500 l 1
 194 493 l 1
 175 487 l 1
 158 482 l 1
 154 480 l 1
 153 477 l 1
 137 468 l 1
 120 473 l 1
 111 482 l 1
 105 492 l 1
 99 502 l 1
 95 513 l 1
 94 524 l 1
 92 535 l 1
 90 546 l 1
 91 558 l 1
 93 570 l 1
 93 583 l 1
 101 583 l 1
 102 571 l 1
 105 560 l 1
 110 551 l 1
 115 542 l 1
 120 534 l 1
 124 528 l 1
 130 522 l 1
 133 521 l 1
 134 521 l 1
 147 524 l 1
 165 525 l 1
 185 529 l 1
 208 533 l 1
 234 537 l 1
 262 542 l 1
 294 547 l 1
 328 551 l 1
 345 555 l 1
 351 562 l 1
 361 568 l 1
 372 570 l 1
 384 565 l 1
 393 558 l 1
 400 548 l 1
 407 536 l 1
 412 521 l 1
 417 503 l 1
 412 486 l 1
 405 482 l 1
 396 424 l 1
 378 342 l 1
 356 266 l 1
 332 196 l 1
 305 131 l 1
 273 74 l 1
 239 22 l 1
 202 -24 l 1
 161 -62 l 1
 120 -90 l 1
 117 -93 l 1
 115 -94 l 1
 111 -93 l 1
 111 -88 l 1
EndSplineSet
Comment: "Kage: aj1-00416+AAoA-Alias: uf01a0"
EndChar
StartChar: uF01A1
Encoding: 983457 983457 89
Width: 1000
VWidth: 0
Flags: MW
LayerCount: 2
Fore
SplineSet
88 534 m 1
 88 545 l 1
 90 556 l 1
 92 568 l 1
 93 580 l 1
 102 580 l 1
 103 569 l 1
 108 558 l 1
 112 550 l 1
 117 542 l 1
 122 535 l 1
 128 530 l 1
 133 526 l 1
 138 522 l 1
 144 520 l 1
 149 518 l 1
 112 471 l 1
 104 480 l 1
 99 490 l 1
 94 500 l 1
 91 512 l 1
 89 522 l 1
 88 534 l 1
112 -86 m 1
 148 -40 l 1
 182 8 l 1
 214 60 l 1
 242 114 l 1
 268 172 l 1
 292 234 l 1
 312 300 l 1
 330 370 l 1
 346 443 l 1
 358 520 l 1
 417 510 l 1
 401 432 l 1
 382 356 l 1
 360 286 l 1
 336 218 l 1
 307 156 l 1
 276 96 l 1
 242 42 l 1
 204 -8 l 1
 162 -53 l 1
 118 -93 l 1
 112 -86 l 1
112 471 m 1
 149 518 l 1
 160 498 l 1
 154 476 l 1
 134 465 l 1
 112 471 l 1
112 -86 m 1
 149 -49 l 1
 182 -8 l 1
 214 39 l 1
 242 90 l 1
 268 148 l 1
 292 210 l 1
 312 279 l 1
 330 353 l 1
 346 434 l 1
 358 520 l 1
 417 511 l 1
 402 423 l 1
 382 341 l 1
 360 264 l 1
 336 194 l 1
 307 130 l 1
 276 72 l 1
 241 20 l 1
 203 -24 l 1
 162 -62 l 1
 118 -94 l 1
 112 -86 l 1
118 524 m 1
 131 526 l 1
 146 528 l 1
 164 531 l 1
 184 534 l 1
 207 537 l 1
 232 540 l 1
 261 544 l 1
 292 548 l 1
 326 552 l 1
 364 554 l 1
 366 546 l 1
 330 534 l 1
 298 522 l 1
 268 512 l 1
 241 504 l 1
 216 496 l 1
 194 489 l 1
 176 482 l 1
 160 476 l 1
 146 471 l 1
 136 466 l 1
 118 524 l 1
236 511 m 1
 258 520 l 1
 277 530 l 1
 295 538 l 1
 311 545 l 1
 326 551 l 1
 338 556 l 1
 350 560 l 1
 361 562 l 1
 372 563 l 1
 388 558 l 1
 352 510 l 1
 360 508 l 1
 359 511 l 1
 354 513 l 1
 344 514 l 1
 333 514 l 1
 318 514 l 1
 302 512 l 1
 283 510 l 1
 262 508 l 1
 238 502 l 1
 236 511 l 1
342 547 m 1
 349 554 l 1
 354 563 l 1
 362 569 l 1
 374 572 l 1
 386 568 l 1
 396 561 l 1
 404 552 l 1
 410 540 l 1
 416 526 l 1
 422 510 l 1
 363 500 l 1
 362 514 l 1
 362 525 l 1
 362 533 l 1
 362 538 l 1
 364 542 l 1
 366 544 l 1
 366 546 l 1
 362 548 l 1
 356 548 l 1
 349 541 l 1
 342 547 l 1
352 510 m 1
 388 558 l 1
 400 538 l 1
 394 516 l 1
 375 504 l 1
 352 510 l 1
363 500 m 1
 422 510 l 1
 416 488 l 1
 397 476 l 1
 375 481 l 1
 363 500 l 1
372 658 m 1
 372 672 l 1
 374 686 l 1
 376 700 l 1
 380 712 l 1
 385 724 l 1
 392 735 l 1
 400 745 l 1
 410 754 l 1
 424 760 l 1
 438 762 l 1
 438 702 l 1
 442 702 l 1
 443 703 l 1
 442 703 l 1
 441 701 l 1
 439 698 l 1
 436 692 l 1
 434 685 l 1
 433 677 l 1
 432 668 l 1
 432 658 l 1
 372 658 l 1
372 658 m 1
 432 658 l 1
 432 648 l 1
 433 638 l 1
 434 630 l 1
 436 624 l 1
 439 618 l 1
 441 614 l 1
 442 612 l 1
 443 612 l 1
 442 613 l 1
 438 614 l 1
 438 554 l 1
 424 556 l 1
 410 562 l 1
 400 570 l 1
 392 580 l 1
 385 592 l 1
 380 603 l 1
 376 616 l 1
 374 629 l 1
 372 643 l 1
 372 658 l 1
434 612 m 1
 436 614 l 1
 438 618 l 1
 440 624 l 1
 442 630 l 1
 444 638 l 1
 446 648 l 1
 446 658 l 1
 506 658 l 1
 505 643 l 1
 504 629 l 1
 500 616 l 1
 497 603 l 1
 492 592 l 1
 486 580 l 1
 477 570 l 1
 466 562 l 1
 454 556 l 1
 438 554 l 1
 438 614 l 1
 436 613 l 1
 434 612 l 1
434 703 m 1
 436 702 l 1
 438 702 l 1
 438 762 l 1
 454 760 l 1
 466 754 l 1
 477 745 l 1
 486 735 l 1
 492 724 l 1
 497 712 l 1
 500 700 l 1
 504 686 l 1
 505 672 l 1
 506 658 l 1
 446 658 l 1
 446 668 l 1
 444 677 l 1
 442 685 l 1
 440 692 l 1
 438 698 l 1
 436 701 l 1
 434 703 l 1
EndSplineSet
Comment: "Kage: aj1-00417+AAoA-Alias: uf01a1"
Colour: ffff00
EndChar
StartChar: uF01A2
Encoding: 983458 983458 90
Width: 500
VWidth: 0
Flags: MW
LayerCount: 2
Fore
SplineSet
29 323 m 1
 37 324 l 1
 39 306 l 1
 44 292 l 1
 50 281 l 1
 54 271 l 1
 57 266 l 1
 70 302 l 1
 87 347 l 1
 103 387 l 1
 116 423 l 1
 129 453 l 1
 142 477 l 1
 154 494 l 1
 161 501 l 1
 158 505 l 1
 182 519 l 1
 207 510 l 1
 232 487 l 1
 257 454 l 1
 283 410 l 1
 311 358 l 1
 341 299 l 1
 376 234 l 1
 414 164 l 1
 454 89 l 1
 456 73 l 1
 452 68 l 1
 453 57 l 1
 442 42 l 1
 423 42 l 1
 409 52 l 1
 370 130 l 1
 336 203 l 1
 305 270 l 1
 276 331 l 1
 249 384 l 1
 226 428 l 1
 206 462 l 1
 189 484 l 1
 184 489 l 1
 181 490 l 1
 180 488 l 1
 176 480 l 1
 168 464 l 1
 161 441 l 1
 151 410 l 1
 140 374 l 1
 127 333 l 1
 112 287 l 1
 93 234 l 1
 88 236 l 1
 86 225 l 1
 71 215 l 1
 57 217 l 1
 45 224 l 1
 38 233 l 1
 34 243 l 1
 31 253 l 1
 31 264 l 1
 30 276 l 1
 30 290 l 1
 30 306 l 1
 29 323 l 1
295 592 m 1
 301 596 l 1
 311 587 l 1
 321 577 l 1
 330 566 l 1
 338 553 l 1
 346 541 l 1
 354 527 l 1
 361 511 l 1
 367 495 l 1
 374 478 l 1
 379 459 l 1
 375 442 l 1
 360 432 l 1
 342 434 l 1
 332 450 l 1
 330 467 l 1
 327 484 l 1
 325 499 l 1
 321 515 l 1
 317 529 l 1
 314 543 l 1
 310 555 l 1
 307 568 l 1
 301 581 l 1
 295 592 l 1
346 646 m 1
 351 651 l 1
 361 643 l 1
 371 635 l 1
 380 625 l 1
 390 614 l 1
 398 603 l 1
 405 589 l 1
 413 576 l 1
 419 561 l 1
 426 547 l 1
 431 530 l 1
 427 512 l 1
 413 502 l 1
 395 504 l 1
 384 518 l 1
 382 535 l 1
 380 549 l 1
 377 563 l 1
 373 577 l 1
 369 589 l 1
 366 602 l 1
 362 613 l 1
 358 625 l 1
 353 637 l 1
 346 646 l 1
EndSplineSet
Comment: "Kage: aj1-00418+AAoA-Alias: uf01a2"
EndChar
StartChar: uF01A3
Encoding: 983459 983459 91
Width: 500
VWidth: 0
Flags: MW
LayerCount: 2
Fore
SplineSet
402 528 m 1
 402 542 l 1
 399 557 l 1
 394 572 l 1
 391 582 l 1
 385 592 l 1
 380 598 l 1
 374 604 l 1
 369 606 l 1
 364 604 l 1
 358 598 l 1
 353 592 l 1
 346 582 l 1
 342 572 l 1
 338 558 l 1
 336 542 l 1
 336 528 l 1
 336 511 l 1
 338 498 l 1
 342 484 l 1
 346 472 l 1
 352 464 l 1
 358 457 l 1
 364 452 l 1
 369 451 l 1
 374 452 l 1
 379 457 l 1
 385 464 l 1
 390 472 l 1
 395 484 l 1
 399 498 l 1
 402 511 l 1
 402 528 l 1
429 528 m 1
 428 514 l 1
 427 499 l 1
 424 487 l 1
 421 475 l 1
 416 465 l 1
 410 454 l 1
 402 446 l 1
 394 437 l 1
 381 432 l 1
 368 431 l 1
 355 432 l 1
 344 438 l 1
 335 446 l 1
 327 454 l 1
 321 465 l 1
 317 475 l 1
 313 487 l 1
 311 500 l 1
 309 514 l 1
 309 528 l 1
 309 542 l 1
 311 555 l 1
 313 569 l 1
 317 580 l 1
 321 591 l 1
 327 602 l 1
 335 610 l 1
 344 617 l 1
 355 623 l 1
 368 625 l 1
 381 623 l 1
 394 618 l 1
 402 610 l 1
 410 602 l 1
 416 591 l 1
 421 580 l 1
 424 569 l 1
 427 555 l 1
 428 542 l 1
 429 528 l 1
29 323 m 1
 37 324 l 1
 39 306 l 1
 44 292 l 1
 50 281 l 1
 54 271 l 1
 58 265 l 1
 70 302 l 1
 87 347 l 1
 103 387 l 1
 116 423 l 1
 129 453 l 1
 142 477 l 1
 154 494 l 1
 162 501 l 1
 159 504 l 1
 182 519 l 1
 207 510 l 1
 232 487 l 1
 257 454 l 1
 283 410 l 1
 311 358 l 1
 341 299 l 1
 375 234 l 1
 413 164 l 1
 453 89 l 1
 455 73 l 1
 451 68 l 1
 452 57 l 1
 442 43 l 1
 423 43 l 1
 409 53 l 1
 371 131 l 1
 337 204 l 1
 305 271 l 1
 276 331 l 1
 249 384 l 1
 226 428 l 1
 206 462 l 1
 189 484 l 1
 185 489 l 1
 181 490 l 1
 180 488 l 1
 176 480 l 1
 168 464 l 1
 161 441 l 1
 151 410 l 1
 140 374 l 1
 127 333 l 1
 111 287 l 1
 92 235 l 1
 88 237 l 1
 86 225 l 1
 71 216 l 1
 57 218 l 1
 46 224 l 1
 39 233 l 1
 35 243 l 1
 32 253 l 1
 31 264 l 1
 30 276 l 1
 30 290 l 1
 30 306 l 1
 29 323 l 1
EndSplineSet
Comment: "Kage: aj1-00419+AAoA-Alias: uf01a3"
EndChar
